STARTFONT 2.1
COMMENT
COMMENT Converted from OpenType font "RuthlessSketch_Italic.ttf" by "otf2bdf 3.0".
COMMENT
FONT -FreeType-Ruthless Sketch-Medium-I-Normal--44-320-100-100-P-239-ISO10646-1
SIZE 32 100 100
FONTBOUNDINGBOX 58 50 -20 -9
STARTPROPERTIES 19
FOUNDRY "FreeType"
FAMILY_NAME "Ruthless Sketch"
WEIGHT_NAME "Medium"
SLANT "I"
SETWIDTH_NAME "Normal"
ADD_STYLE_NAME ""
PIXEL_SIZE 44
POINT_SIZE 320
RESOLUTION_X 100
RESOLUTION_Y 100
SPACING "P"
AVERAGE_WIDTH 239
CHARSET_REGISTRY "ISO10646"
CHARSET_ENCODING "1"
FONT_ASCENT 41
FONT_DESCENT 9
COPYRIGHT "© 2024 GGBotNet. All Rights Reserved."
_OTF_FONTFILE "RuthlessSketch_Italic.ttf"
_OTF_PSNAME "RuthlessSketch-Italic"
ENDPROPERTIES
CHARS 1105
STARTCHAR 0020
ENCODING 32
SWIDTH 292 0
DWIDTH 13 0
BBX 0 0 0 0
BITMAP
ENDCHAR
STARTCHAR 0021
ENCODING 33
SWIDTH 292 0
DWIDTH 13 0
BBX 16 34 3 -1
BITMAP
01FF
0FFF
0FFF
0FFE
0FFE
0FFC
0FFC
0FF8
1FF8
1FF8
1FF0
1FF0
1FF0
1FE0
1FE0
1FE0
1FC0
1FC0
1FC0
1FC0
1F80
1F80
0C00
0000
0000
0600
3F00
7F80
7F80
7F00
FF00
7F00
7E00
1000
ENDCHAR
STARTCHAR 0022
ENCODING 34
SWIDTH 382 0
DWIDTH 17 0
BBX 17 16 6 16
BITMAP
3F0F80
7F1F80
7F3F80
7E3F80
7E3F80
FE3F00
FE3F00
FC3F00
FC3E00
FC3E00
F83C00
F83C00
F03C00
F03800
603800
603000
ENDCHAR
STARTCHAR 0023
ENCODING 35
SWIDTH 517 0
DWIDTH 23 0
BBX 26 31 2 0
BITMAP
00078100
000F83C0
000F8780
001F8780
001F0F00
001F0F00
003E1E00
003E1E00
0FFFFF80
0FFFFF80
1FFFFF80
1FFFFF80
1FFFFF00
0FF8F000
01F1F000
03E1E000
03C3E800
3FFFFE00
7FFFFE00
7FFFFE00
7FFFFC00
7FFFFC00
7FFF0000
1E1F0000
3C3E0000
3C3E0000
787E0000
787C0000
F07C0000
F0F80000
20880000
ENDCHAR
STARTCHAR 0024
ENCODING 36
SWIDTH 495 0
DWIDTH 22 0
BBX 26 41 1 -5
BITMAP
0001F800
0003F000
0003F000
0003F000
0003F000
0003F800
000FFE00
003FFF80
007FFFC0
01FFFFC0
01FFFFC0
03FFFFC0
03FFFFC0
07FFE780
07FFC300
07FFC000
07FF8000
03FF8000
03FFE000
03FFF000
00FFF800
003FF800
003FFC00
003FFC00
003FFC00
0FFFFC00
1FFFF800
1FFFF800
3FFFF000
3FFFF000
7FFFE000
7FFFC000
7FFFC000
FFFF8000
FFFE0000
03FC0000
01F80000
01F80000
01F80000
03F00000
00F00000
ENDCHAR
STARTCHAR 0025
ENCODING 37
SWIDTH 562 0
DWIDTH 25 0
BBX 25 31 3 0
BITMAP
00000200
00E00780
03F00F80
07F81F80
0FF81F00
0E383E00
1E387E00
1C387C00
3C38F800
3C79F000
3CF3E000
1FF7E000
1FE7C000
0F8F8000
001F0000
003F1000
007E7C00
007DFC00
00FBFE00
01F3CE00
03E78F00
07E70F00
07C70E00
0F8F1E00
1F071E00
3E07FC00
7C07F800
FC03F000
F8008000
F0000000
60000000
ENDCHAR
STARTCHAR 0026
ENCODING 38
SWIDTH 495 0
DWIDTH 22 0
BBX 22 30 3 1
BITMAP
001800
00FF00
03FF80
07FF80
07FF80
07CF80
0F8F80
0F8F00
0FDF00
07FE00
07FE00
07FC18
0FFC7C
0FFE7C
1FFEF8
3FFFF8
3F3FF0
7E3FF0
7E1FE0
FC0FE0
FC0FE0
FC07E0
FC0FF0
FFFFF0
FFFFF0
FFFFF0
FFFEF0
7FFE70
3FFC30
07E020
ENDCHAR
STARTCHAR 0027
ENCODING 39
SWIDTH 202 0
DWIDTH 9 0
BBX 9 16 6 16
BITMAP
3F80
7F80
7F80
7F80
7F80
FF00
FF00
FF00
FE00
FE00
FC00
FC00
7800
7800
7000
7000
ENDCHAR
STARTCHAR 0028
ENCODING 40
SWIDTH 337 0
DWIDTH 15 0
BBX 19 42 3 -7
BITMAP
000300
000780
000FE0
001FE0
003F80
007F00
00FE00
01F800
03F800
03F000
07E000
0FC000
0F8000
1F8000
1F0000
3F0000
3F0000
3E0000
3E0000
7E0000
7E0000
7E0000
7E0000
7C0000
FC0000
FC0000
FC0000
FC0000
F80000
F80000
FC0000
7C0000
7E0000
7E0000
7E0000
3E0000
3F8000
1F8000
1FC000
0FE000
07C000
070000
ENDCHAR
STARTCHAR 0029
ENCODING 41
SWIDTH 337 0
DWIDTH 15 0
BBX 19 42 0 -6
BITMAP
000800
003C00
00FE00
00FE00
007F00
003F00
001F80
000F80
000F80
000FC0
000FC0
0007C0
0007E0
0003E0
0003E0
0007E0
0007E0
0007E0
0007C0
0007C0
000FC0
000FC0
000FC0
000F80
000F80
000F80
001F80
001F00
003F00
003E00
007E00
00FC00
01F800
01F800
03F000
07E000
1FC000
3F8000
7F0000
FE0000
7C0000
180000
ENDCHAR
STARTCHAR 002A
ENCODING 42
SWIDTH 315 0
DWIDTH 14 0
BBX 14 14 6 19
BITMAP
0100
0180
1388
7BBC
3FF8
1FE0
0F80
0F80
3FC0
7EF0
E670
4E20
0E00
0C00
ENDCHAR
STARTCHAR 002B
ENCODING 43
SWIDTH 472 0
DWIDTH 21 0
BBX 20 20 4 6
BITMAP
007800
007E00
007E00
007E00
00FE00
00FC00
00FC00
7FFFF0
7FFFF0
FFFFF0
FFFFF0
FFFFF0
FFFFE0
7FF000
03F000
03F000
03F000
07F000
07E000
07E000
ENDCHAR
STARTCHAR 002C
ENCODING 44
SWIDTH 202 0
DWIDTH 9 0
BBX 12 15 -2 -7
BITMAP
01C0
07E0
0FE0
0FE0
0FF0
0FE0
0FE0
07C0
0780
1F00
7E00
FE00
7C00
7800
3000
ENDCHAR
STARTCHAR 002D
ENCODING 45
SWIDTH 382 0
DWIDTH 17 0
BBX 16 7 4 12
BITMAP
7FFF
FFFF
FFFF
FFFF
FFFF
FFFE
03FC
ENDCHAR
STARTCHAR 002E
ENCODING 46
SWIDTH 202 0
DWIDTH 9 0
BBX 9 8 1 0
BITMAP
0E00
3F80
7F80
7F80
FF00
FF00
7F00
3C00
ENDCHAR
STARTCHAR 002F
ENCODING 47
SWIDTH 450 0
DWIDTH 20 0
BBX 25 35 1 -3
BITMAP
00000C80
00001F80
00003F80
00003F00
00007E00
0000FE00
0000FC00
0001FC00
0003F800
0003F800
0007F000
000FE000
000FE000
001FC000
001FC000
003F8000
007F8000
007F0000
00FF0000
01FE0000
01FE0000
03FC0000
07FC0000
07F80000
0FF80000
0FF00000
1FF00000
1FE00000
3FE00000
3FC00000
7F800000
7F800000
FF000000
FF000000
FE000000
ENDCHAR
STARTCHAR 0030
ENCODING 48
SWIDTH 382 0
DWIDTH 17 0
BBX 17 31 4 0
BITMAP
00F000
03F800
07FC00
07FC00
0FFE00
0FFF00
1FFF00
1FFF00
3FFF80
3FFF80
3F1F80
7F1F80
7E1F80
7E1F80
FE1F80
FE1F00
FC3F00
FC3F00
FE7F00
FFFE00
FFFE00
FFFE00
FFFC00
FFFC00
FFF800
7FF800
7FF000
7FF000
3FE000
1FC000
0F8000
ENDCHAR
STARTCHAR 0031
ENCODING 49
SWIDTH 427 0
DWIDTH 19 0
BBX 16 29 6 1
BITMAP
007E
00FF
03FF
0FFF
3FFE
7FFE
FFFE
FFFE
7DFE
39FC
13FC
03FC
07FC
07FC
07FC
0FFC
0FF8
0FF8
1FF8
1FF8
1FF8
3FF8
3FF8
3FF8
7FF0
7FF0
7FF0
7FF8
01F0
ENDCHAR
STARTCHAR 0032
ENCODING 50
SWIDTH 495 0
DWIDTH 22 0
BBX 22 31 3 0
BITMAP
001C00
007F00
01FFC0
03FFE0
07FFF0
1FFFF0
1FFFF0
1FFFE0
0F87E0
0707E0
0407E0
000FC0
000FC0
001F80
003F00
003F00
007E00
00FC00
00FC7C
01FFF8
03FFF8
07FFF8
07FFF0
0FFFF0
1FFFE0
3FFFE0
FFFFC0
FFFFC0
FFFF00
3FF000
010000
ENDCHAR
STARTCHAR 0033
ENCODING 51
SWIDTH 472 0
DWIDTH 21 0
BBX 20 30 2 0
BITMAP
007F80
03FFC0
03FFC0
03FF80
03FF80
001F00
003F00
007E00
007E00
00FC00
01FF80
03FFE0
07FFF0
07FFF0
0FFFF0
01CFF0
0003F0
0001F0
0001F0
0001F0
0001F0
0003F0
0007F0
E01FE0
FFFFC0
FFFFC0
7FFF80
3FFF00
0FFC00
03F000
ENDCHAR
STARTCHAR 0034
ENCODING 52
SWIDTH 427 0
DWIDTH 19 0
BBX 19 31 3 -1
BITMAP
007E00
00FC00
00FC00
01F800
01F800
03F000
03F000
07E000
07E000
0FC000
0FC000
1FBFE0
1FFFE0
3FFFE0
3FFFE0
7FFFE0
7FFFC0
7FFE00
E07C00
00FC00
00FC00
01F800
01F800
03F800
03F800
07F800
0FF800
0FF800
1FF800
1FF000
100000
ENDCHAR
STARTCHAR 0035
ENCODING 53
SWIDTH 472 0
DWIDTH 21 0
BBX 23 31 2 0
BITMAP
000002
003FFE
007FFE
007FFE
007FFC
00FFC0
00FC00
01FC00
01FC00
01FF00
03FFC0
03FFE0
07FFE0
07FFF0
0C1FF0
000FF8
0007F8
0007F8
0007F8
0007F8
0007F8
0007F8
4007F8
C00FF0
E01FF0
FF7FE0
FFFFC0
FFFF80
7FFF00
1FFE00
07F800
ENDCHAR
STARTCHAR 0036
ENCODING 54
SWIDTH 495 0
DWIDTH 22 0
BBX 22 32 3 -1
BITMAP
000070
0003F8
000FFC
001FFC
007FFC
00FFF8
01FC00
03F000
07E000
0FE000
1FC000
1FC000
3FFF00
3FFF80
3FFFC0
7FFFE0
7FFFF0
7FFFF0
FF87F0
FF07F8
FE03F0
FE03F0
FE07F0
FC07F0
FC0FF0
FE0FE0
FF3FC0
FFFFC0
7FFF80
3FFF00
1FFC00
07E000
ENDCHAR
STARTCHAR 0037
ENCODING 55
SWIDTH 405 0
DWIDTH 18 0
BBX 23 29 1 1
BITMAP
00FFFE
03FFFE
03FFFE
03FFFC
07FFFC
07FFFC
07FFF8
07F7F8
0C03F8
0007F8
0007F0
000FF0
001FE0
003FE0
007FC0
007FC0
00FF80
01FF80
03FF00
03FF00
07FE00
0FFE00
1FFE00
1FFC00
3FFC00
3FF800
7FF800
FFC000
F00000
ENDCHAR
STARTCHAR 0038
ENCODING 56
SWIDTH 495 0
DWIDTH 22 0
BBX 21 31 3 0
BITMAP
001FC0
007FE0
00FFF0
01FFF0
03FFF0
03F1F0
03F1F0
03F3E0
03FFC0
01FF80
03FF80
07FFC0
0FFFC0
0FFFE0
1FFFE0
3FFFF0
3F8FF0
7F07F0
7F03F8
FE03F8
FE03F8
FF03F0
FF07F0
FF9FF0
FFFFF0
FFFFE0
7FFFC0
7FFF80
3FFF00
0FFE00
01F000
ENDCHAR
STARTCHAR 0039
ENCODING 57
SWIDTH 450 0
DWIDTH 20 0
BBX 22 30 3 0
BITMAP
007F80
03FFE0
07FFF8
0FFFF8
0FFFF8
0FC7FC
1F81FC
1F81F8
3F81F8
3F83F8
3F83F8
3F87F8
3FFFF8
3FFFF8
1FFFF0
0FFFF0
07FFF0
0007E0
0007E0
0007E0
000FE0
600FC0
783FC0
FFFFC0
FFFF80
FFFF00
FFFF00
7FFE00
3FFC00
078000
ENDCHAR
STARTCHAR 003A
ENCODING 58
SWIDTH 202 0
DWIDTH 9 0
BBX 11 22 2 0
BITMAP
0380
0FC0
1FC0
1FE0
3FC0
3FC0
1F80
1F00
0000
0000
0000
0000
0000
0000
1C00
7E00
FF00
FF00
FF00
FE00
FE00
7C00
ENDCHAR
STARTCHAR 003B
ENCODING 59
SWIDTH 202 0
DWIDTH 9 0
BBX 15 29 -2 -7
BITMAP
0038
00FE
01FE
01FE
03FC
03FC
01F8
00F0
0000
0000
0000
0000
0000
0000
01C0
07E0
0FE0
0FE0
0FF0
0FE0
0FE0
07C0
0780
1F00
7E00
FE00
7C00
7800
3000
ENDCHAR
STARTCHAR 003C
ENCODING 60
SWIDTH 472 0
DWIDTH 21 0
BBX 22 25 4 3
BITMAP
00000C
00003C
0000FC
0003FC
000FFC
003FF8
01FFF8
07FFF8
1FFFF0
7FFFF0
FFFC00
FFC000
FF8000
FFF000
FFFE00
3FFFC0
1FFFC0
0FFFC0
07FFC0
01FFC0
00FFC0
007F80
001F80
000F80
000180
ENDCHAR
STARTCHAR 003D
ENCODING 61
SWIDTH 472 0
DWIDTH 21 0
BBX 22 17 3 7
BITMAP
0001F0
1FFFFC
1FFFFC
3FFFFC
3FFFFC
3FFFFC
3FFC00
000000
000000
000000
03FFF8
FFFFF0
FFFFF0
FFFFF0
FFFFF0
FFFFE0
020000
ENDCHAR
STARTCHAR 003E
ENCODING 62
SWIDTH 472 0
DWIDTH 21 0
BBX 22 25 2 3
BITMAP
060000
0FC000
0FE000
0FF800
0FFC00
0FFE00
0FFF80
0FFFC0
1FFFE0
0FFFF0
01FFF8
003FFC
0007FC
000FFC
00FFF8
3FFFF8
7FFFE0
7FFF80
7FFC00
7FF000
FFC000
FF0000
FC0000
F00000
C00000
ENDCHAR
STARTCHAR 003F
ENCODING 63
SWIDTH 450 0
DWIDTH 20 0
BBX 19 32 6 0
BITMAP
03F800
0FFFC0
1FFFE0
3FFFE0
7FFFE0
7FFFE0
FFFFE0
FC1FE0
780FE0
201FE0
001FC0
001FC0
003FC0
00FF80
07FF00
0FFE00
1FF800
1FF000
3FC000
3F8000
3F8000
3F0000
000000
000000
000000
1E0000
7E0000
FF0000
FF0000
FF0000
FE0000
7C0000
ENDCHAR
STARTCHAR 0040
ENCODING 64
SWIDTH 652 0
DWIDTH 29 0
BBX 31 38 2 -6
BITMAP
0000FF80
0007FFE0
001FFFF0
007FFFF8
00FFFFF8
01FFFFFC
03FFFFFC
03FFFFFC
07FFFFFC
07FC01FC
0FF801FC
0FF01FFC
1FE07FFE
1FC1FFFE
3FC3FFFE
3F87F1FC
3F87E1FC
3F8FC1FC
3F8F81FC
7F9F81F8
7F1F83F8
7F1F87F8
7F1FFFF0
7F1FFFE0
7F0FFFC0
7F07FF80
FF03FC00
FF006000
FF800000
FF800600
7FC07E00
7FFFFF00
7FFFFF80
7FFFFF00
7FFFFE00
3FFFF800
1FFFF000
07FFC000
ENDCHAR
STARTCHAR 0041
ENCODING 65
SWIDTH 630 0
DWIDTH 28 0
BBX 26 31 1 -1
BITMAP
00001C00
00003E00
00007E00
0000FE00
0000FE00
0001FE00
0001FE00
0003FE00
0003FE00
0007FE00
000FFE00
000FFE00
001FFE00
003FFF00
003FFF00
007FFF00
007DFF00
00F8FF00
01F0FF00
01E0FF00
03EFFF00
07FFFF00
07FFFF80
0FFFFF80
1FE1FF80
1FC1FF80
3F81FFC0
7F81FFC0
7F01FFC0
FF01FFC0
FC008000
ENDCHAR
STARTCHAR 0042
ENCODING 66
SWIDTH 517 0
DWIDTH 23 0
BBX 20 31 4 0
BITMAP
00C000
07FF00
1FFFC0
1FFFE0
3FFFE0
3FFFE0
3FFFF0
3FCFF0
3FC7F0
3F83E0
3F83E0
3F87C0
3FCFC0
3FFF80
3FFE00
3FFF80
3FFFE0
3FFFE0
7FFFF0
7FC7F0
7F87F0
7F87F0
7F8FF0
7F9FF0
7FBFE0
7FFFE0
7FFFC0
7FFF00
FFFE00
FFF800
3C0000
ENDCHAR
STARTCHAR 0043
ENCODING 67
SWIDTH 472 0
DWIDTH 21 0
BBX 24 30 3 0
BITMAP
0007F0
003FFC
00FFFE
01FFFF
07FFFF
07FFFE
0FFFFE
1FFFFC
1FFF10
3FF800
3FF000
3FE000
3FC000
7FC000
7FC000
7FC000
7FE030
FFFFF0
FFFFF0
FFFFF0
7FFFF0
7FFFE0
7FFFE0
7FFFE0
7FFFE0
3FFFC0
3FFF80
3FFF00
07FC00
002000
ENDCHAR
STARTCHAR 0044
ENCODING 68
SWIDTH 450 0
DWIDTH 20 0
BBX 19 30 5 0
BITMAP
1FF000
3FFC00
3FFE00
7FFF00
7FFF80
7FFF80
7FFFC0
7FFFC0
FF8FC0
FF07E0
FF07E0
FF07E0
FF07E0
FF0FC0
FF0FC0
FE1F80
FE3F80
FEFF00
FFFE00
FFFE00
FFFC00
FFF800
FFF000
FFE000
FFC000
FF8000
FF0000
FC0000
F00000
800000
ENDCHAR
STARTCHAR 0045
ENCODING 69
SWIDTH 495 0
DWIDTH 22 0
BBX 17 31 6 0
BITMAP
07FE00
3FFF80
7FFF80
7FFF00
7FFF00
7FFE00
7FFE00
7FFE00
7FFE00
7FC000
7F0000
7F0000
7F0800
7FF800
7FF800
7FF800
7FF800
7F8000
7F0000
7F0300
7FFF00
7FFF00
FFFF00
FFFF00
FFFF00
FFFF00
FFFF00
FFFF00
FFF800
FF8000
F00000
ENDCHAR
STARTCHAR 0046
ENCODING 70
SWIDTH 495 0
DWIDTH 22 0
BBX 25 31 2 0
BITMAP
0007FF80
01FFFF80
07FFFF80
07FFFF80
0FFFFF80
0FFFFF80
0FFFF780
0FF80000
0FF00000
1FF00000
1FE00000
1FE60000
1FFF0000
1FFF0000
3FFE0000
3FFE0000
3FFE0000
3FF60000
7F800000
7F800000
7F800000
7F800000
7F000000
FF000000
FF000000
FF000000
FF000000
FF000000
FF000000
FF000000
F8000000
ENDCHAR
STARTCHAR 0047
ENCODING 71
SWIDTH 495 0
DWIDTH 22 0
BBX 24 31 2 0
BITMAP
000200
0007FC
001FFE
003FFF
007FFF
00FFFF
00FFFF
01FF3E
03F800
03F000
07E000
07E000
0FC000
0FC03E
1F83FE
1F87FE
1F87FE
3F07FC
3F07FC
7F07FC
7F87FC
7FDFF8
7FFFF8
FFFFF8
FFFFF8
FFFFE0
7FFFC0
7FFF00
3FFC00
1FE000
080000
ENDCHAR
STARTCHAR 0048
ENCODING 72
SWIDTH 562 0
DWIDTH 25 0
BBX 29 29 1 1
BITMAP
000FC000
007FC3F8
00FF83F8
00FF87F8
00FF87F8
00FF87F0
00FF0FF0
01FF0FF0
01FF1FE0
01FF1FE0
03FF1FE0
03FFFFE0
03FFFFC0
07FFFFC0
07FFFFC0
07FFFF80
0FFFFFC0
0FFFFFC0
0FFFFF80
0FFFFF80
1FF8FF80
1FF0FF00
1FF1FF00
3FF1FF00
3FF1FE00
3FE3FE00
7FE1FE00
7FE3FC00
FFC3E000
ENDCHAR
STARTCHAR 0049
ENCODING 73
SWIDTH 315 0
DWIDTH 14 0
BBX 19 30 1 0
BITMAP
003FC0
007FE0
007FE0
007FC0
00FFC0
00FF80
00FF80
01FF80
01FF00
01FF00
03FF00
03FF00
03FE00
03FE00
07FE00
07FE00
07FC00
0FFC00
0FFC00
0FFC00
0FFC00
1FF800
1FF800
1FF800
1FF000
3FF000
3FE000
7FE000
7FC000
F80000
ENDCHAR
STARTCHAR 004A
ENCODING 74
SWIDTH 450 0
DWIDTH 20 0
BBX 23 30 2 0
BITMAP
0003FE
0007FE
0007FE
0007FE
000FFE
000FFE
001FFC
001FFC
001FFC
003FFC
003FFC
003FFC
003FF8
003FF8
003FF8
003FF8
003FF8
003FF0
003FF0
003FF0
3E3FE0
7F3FE0
FF3FC0
FFBF80
FFFF80
FFFF00
7FFE00
7FFC00
1FF800
07E000
ENDCHAR
STARTCHAR 004B
ENCODING 75
SWIDTH 540 0
DWIDTH 24 0
BBX 29 31 1 0
BITMAP
00000080
03FFC180
01FFC3C0
03FFC7F8
03FF8FF0
03FF9FE0
03FFBFC0
07FFBF80
07FF7F00
07FFFE00
07FFFC00
0FFFFC00
0FFFF800
0FFFF000
1FFFE000
1FFFE000
1FFF8000
1FFFC000
3FFFE000
3FFFF000
3FFFF000
3FFFF800
7FFBF800
7FFBFC00
7FF9FC00
7FF1FE00
7FF1FE00
7FF0FE00
FFF0FE00
FFF07000
01C0C000
ENDCHAR
STARTCHAR 004C
ENCODING 76
SWIDTH 495 0
DWIDTH 22 0
BBX 22 31 1 -1
BITMAP
000FF8
003FF8
007FF8
007FF0
007FF0
00FFF0
00FFE0
00FFE0
01FFE0
01FFC0
01FFC0
01FF80
03FF80
03FF80
07FF00
07FF00
07FF00
0FFE00
0FFE00
0FFC00
1FFC00
1FFFFC
1FFFFC
3FFFFC
3FFFFC
3FFFF8
3FFFF8
7FFFF8
7FFFC0
7FC000
C00000
ENDCHAR
STARTCHAR 004D
ENCODING 77
SWIDTH 652 0
DWIDTH 29 0
BBX 30 30 1 0
BITMAP
00380018
0038003C
0038007C
007C00FC
007C00F8
00FE01F8
00FE03F8
00FF07F8
01FF07F8
01FF0FF8
01FF9FF8
03FFBFF8
03FFFFF8
03FFFFF8
07FFFFF8
07FFFFF8
07FFFFF0
0FFDFFF0
0FF8DFF0
1FF89FF0
1FF01FF0
1FE03FF0
3FE03FF0
3FC03FF0
3FC07FF0
7F807FF0
7F807FF0
FF007FF0
FF00FFE0
FE000000
ENDCHAR
STARTCHAR 004E
ENCODING 78
SWIDTH 562 0
DWIDTH 25 0
BBX 29 30 1 0
BITMAP
00180060
007F83F8
00FFC7F8
00FF8FF8
00FF8FF8
01FF8FF0
01FF8FF0
03FF9FF0
03FF9FE0
03FF9FE0
07FF9FE0
07FF9FC0
07FFBFC0
0FFFBFC0
0FFFBF80
0FFFBF80
0FFFFF80
1FFFFF80
1FFFFF00
1FF7FF00
3FE7FF00
3FE7FF00
3FE7FE00
3FC7FE00
7FC7FE00
7FC7FC00
7FC7FC00
FF87FC00
FF87F800
F0000000
ENDCHAR
STARTCHAR 004F
ENCODING 79
SWIDTH 517 0
DWIDTH 23 0
BBX 22 31 4 0
BITMAP
003C00
007E00
00FF80
01FFC0
03FFE0
07FFF0
07FFF0
0FFFF8
1FFFF8
1FFFFC
3FFFFC
3FFFFC
7FC3FC
7F83FC
FF83FC
FF03FC
FF03FC
FF07FC
FF8FFC
FFDFF8
FFFFF8
FFFFF8
FFFFF0
FFFFF0
FFFFE0
FFFFE0
FFFFC0
7FFFC0
3FFF80
1FFE00
07F800
ENDCHAR
STARTCHAR 0050
ENCODING 80
SWIDTH 495 0
DWIDTH 22 0
BBX 24 31 1 0
BITMAP
000080
007FF0
01FFFC
01FFFE
01FFFF
01FFFF
03FFFF
03FCFF
03FC3F
03FC1F
07FC3F
07FC3F
07FC7F
0FFC7F
0FFFFF
0FFFFE
0FFFFC
1FFFF8
1FFFE0
1FF800
3FF800
3FF800
3FF800
7FF000
7FF000
7FF000
7FF000
FFF000
FFF000
FFF000
FFF000
ENDCHAR
STARTCHAR 0051
ENCODING 81
SWIDTH 607 0
DWIDTH 27 0
BBX 24 33 3 -2
BITMAP
000780
007FC0
00FFE0
01FFF0
03FFF8
03FFFC
07FFFC
0FFFFE
0FF3FE
1FE1FE
1FC0FE
1FC0FF
3FC0FE
3FC0FE
7FC0FE
7F80FE
7F80FE
7FC1FE
FFFFFC
FFFFFC
FFFFF8
FFFFF8
FFFFF0
FFFFF0
FFFFF0
7FFFF8
3FFFF8
3FFFFC
1FFFFE
07FFFE
0007FF
0007FE
000300
ENDCHAR
STARTCHAR 0052
ENCODING 82
SWIDTH 585 0
DWIDTH 26 0
BBX 23 32 3 -1
BITMAP
000600
007FC0
07FFF0
0FFFFC
1FFFFE
1FFDFE
1FF83E
1FF83E
1FF83E
1FF83E
3FF83E
3FF87E
3FFCFC
3FFBFC
3FFFF8
3FFFF0
3FFFC0
3FFFC0
3FFFC0
7FFFE0
7FFFE0
7FF7F0
7FF7F0
7FE7F0
FFE3F8
FFE3F8
FFE3FC
FFE3FC
FFE1FC
FFE1FE
7FC1F0
7E0000
ENDCHAR
STARTCHAR 0053
ENCODING 83
SWIDTH 495 0
DWIDTH 22 0
BBX 26 31 2 0
BITMAP
0001F000
001FFFC0
007FFF80
00FFFF80
00FFFF00
01FFFE00
03FFFE00
03FFFC00
07FFF800
07FFF800
0FFFF000
0FFFF000
0FF02000
0FF80000
07FE0000
07FF8000
07FFE000
03FFF000
007FF000
000FF000
0007F000
0007F800
700FF800
7FFFF000
FFFFF000
FFFFF000
FFFFE000
FFFFC000
7FFF0000
3FFE0000
1FF80000
ENDCHAR
STARTCHAR 0054
ENCODING 84
SWIDTH 562 0
DWIDTH 25 0
BBX 25 30 5 0
BITMAP
07FFFE00
3FFFFF80
3FFFFF80
3FFFFF80
3FFFFF80
7FFFFF80
7FFFFF80
7FFFFF80
FFFFF000
FE7F8000
C07F0000
007F0000
007E0000
00FE0000
00FE0000
00FE0000
00FC0000
01FC0000
01FC0000
01FC0000
01F80000
01F80000
03F80000
03F80000
03F80000
03F00000
07F00000
07F00000
07F00000
07E00000
ENDCHAR
STARTCHAR 0055
ENCODING 85
SWIDTH 540 0
DWIDTH 24 0
BBX 27 30 3 1
BITMAP
01000000
01F80FC0
03F81FE0
03F81FC0
07F01FC0
07F01FC0
0FF01FC0
0FE01F80
0FE03F80
1FE03F80
1FC03F80
3FC07F00
3FC07F00
3FC07F00
7FC0FF00
7FC0FF00
7FC1FF00
7FE1FE00
7FFFFE00
7FFFFC00
FFFFFC00
FFFFF800
7FFFF800
7FFFF000
7FFFE000
7FFFC000
3FFF8000
3FFF0000
1FFE0000
07FC0000
ENDCHAR
STARTCHAR 0056
ENCODING 86
SWIDTH 585 0
DWIDTH 26 0
BBX 25 28 7 1
BITMAP
E0007F80
FF01FF80
7FC1FF00
7FE1FF00
7FE1FF00
7FE3FE00
7FE3FE00
7FE3FC00
7FE7FC00
3FE7F800
3FE7F800
3FEFF000
3FEFF000
1FEFE000
1FFFE000
1FFFE000
0FFFC000
0FFFC000
0FFF8000
07FF8000
07FF0000
03FF0000
03FF0000
01FE0000
01FE0000
00FC0000
00FC0000
00780000
ENDCHAR
STARTCHAR 0057
ENCODING 87
SWIDTH 720 0
DWIDTH 32 0
BBX 32 31 6 0
BITMAP
00000040
3F00007A
7F81C0FF
7F81C1FE
FF81C1FC
FF83C3FC
FFC3C3F8
FFC3C7F8
FFC7C7F0
FFC7CFF0
7FC7EFF0
7FEFFFF0
7FEFFFE0
7FFFFFE0
7FFFFFC0
3FFFFFC0
3FFFFF80
3FFFFF80
3FFFFF80
1FFFFF00
1FF9FF00
1FF9FE00
0FF1FE00
0FE1FE00
0FE1FE00
0FC1FC00
07C1FC00
0781F800
0781F800
03000000
03000000
ENDCHAR
STARTCHAR 0058
ENCODING 88
SWIDTH 562 0
DWIDTH 25 0
BBX 28 29 3 1
BITMAP
000007F0
07F00FF0
0FF00FF0
1FF01FE0
1FF83FC0
1FF87FC0
1FF87F80
1FF8FF00
0FFCFF00
0FFDFE00
07FFFC00
03FFFC00
03FFF800
01FFF000
01FFF000
01FFE000
00FFE000
01FFE000
03FFE000
07FFE000
07FFE000
0FFFE000
1FEFE000
3FE7F000
3FC7F000
7FC7F000
7F83F000
FF81C000
FF000000
ENDCHAR
STARTCHAR 0059
ENCODING 89
SWIDTH 607 0
DWIDTH 27 0
BBX 27 31 6 0
BITMAP
00000020
00001FE0
07001FC0
7F803F80
FF807F80
7F807F00
7FC0FE00
7FC1FE00
7FC1FC00
3FC3F800
3FC7F800
3FEFF000
1FEFE000
1FFFE000
1FFFC000
0FFF8000
0FFF0000
0FFF0000
0FFE0000
07FC0000
07FC0000
07F80000
03F80000
03F80000
03F80000
07F00000
07F00000
07F00000
07F00000
07F00000
07C00000
ENDCHAR
STARTCHAR 005A
ENCODING 90
SWIDTH 585 0
DWIDTH 26 0
BBX 24 31 5 0
BITMAP
0007C0
00FFFF
0FFFFE
1FFFFC
3FFFF8
3FFFF0
7FFFE0
7FFFE0
FE1FC0
003F80
003F80
007F00
007E00
00FE00
00FC00
01FC00
03F800
03F800
07F800
07F000
0FF000
0FE000
1FC000
1FFFFE
3FFFFC
7FFFFC
7FFFF8
7FFFF0
0FFFE0
03FFC0
003C00
ENDCHAR
STARTCHAR 005B
ENCODING 91
SWIDTH 337 0
DWIDTH 15 0
BBX 22 43 0 -7
BITMAP
0003FC
00FFFC
00FFFC
00FFFC
00FFFC
01FFF8
01FC00
01F800
01F800
01F800
01F800
03F800
03F000
03F000
07F000
07F000
07F000
07E000
07E000
0FE000
0FE000
0FE000
0FC000
0FC000
1FC000
1FC000
1FC000
1F8000
3F8000
3F8000
3F8000
3F0000
3F0000
7F0000
7F0000
7F0000
7FFE00
FFFE00
FFFC00
FFFC00
FFFC00
FFFC00
100000
ENDCHAR
STARTCHAR 005C
ENCODING 92
SWIDTH 450 0
DWIDTH 20 0
BBX 12 36 7 -3
BITMAP
7F00
FF80
FF80
FF80
FF80
7F80
7F80
7F80
7F80
7F80
7F80
7FC0
7FC0
3FC0
3FC0
3FC0
3FC0
3FC0
1FC0
1FC0
1FC0
1FE0
1FE0
0FE0
0FE0
0FE0
0FE0
07E0
07E0
07F0
07F0
03F0
03F0
03F0
0190
0100
ENDCHAR
STARTCHAR 005D
ENCODING 93
SWIDTH 337 0
DWIDTH 15 0
BBX 22 42 0 -7
BITMAP
007FFC
00FFFC
00FFFC
00FFFC
00FFFC
01FFF8
0041F8
0003F8
0003F8
0003F8
0003F0
0007F0
0007F0
0007F0
0007E0
0007E0
000FE0
000FE0
000FE0
000FC0
000FC0
001FC0
001FC0
001FC0
001F80
001F80
003F80
003F80
003F00
003F00
007F00
007F00
007E00
007E00
007E00
00FE00
2FFE00
FFFC00
FFFC00
FFFC00
FFFC00
FFFC00
ENDCHAR
STARTCHAR 005E
ENCODING 94
SWIDTH 495 0
DWIDTH 22 0
BBX 21 18 4 14
BITMAP
000F80
001F80
003F80
007F80
007F80
00FFC0
01FFC0
03F7C0
07F7C0
0FE7E0
0FE7E0
1FC7E0
3FC7E0
7F87F0
7F87F0
FF07F0
FF07F8
E003E0
ENDCHAR
STARTCHAR 005F
ENCODING 95
SWIDTH 382 0
DWIDTH 17 0
BBX 17 6 0 -6
BITMAP
7FFF80
FFFF00
FFFF00
FFFF00
FFFE00
040000
ENDCHAR
STARTCHAR 0060
ENCODING 96
SWIDTH 225 0
DWIDTH 10 0
BBX 7 7 9 31
BITMAP
FC
FC
7E
3E
3E
1E
10
ENDCHAR
STARTCHAR 0061
ENCODING 97
SWIDTH 630 0
DWIDTH 28 0
BBX 26 31 1 -1
BITMAP
00001C00
00003E00
00007E00
0000FE00
0000FE00
0001FE00
0001FE00
0003FE00
0003FE00
0007FE00
000FFE00
000FFE00
001FFE00
003FFF00
003FFF00
007FFF00
007DFF00
00F8FF00
01F0FF00
01E0FF00
03EFFF00
07FFFF00
07FFFF80
0FFFFF80
1FE1FF80
1FC1FF80
3F81FFC0
7F81FFC0
7F01FFC0
FF01FFC0
FC008000
ENDCHAR
STARTCHAR 0062
ENCODING 98
SWIDTH 517 0
DWIDTH 23 0
BBX 20 31 4 0
BITMAP
00C000
07FF00
1FFFC0
1FFFE0
3FFFE0
3FFFE0
3FFFF0
3FCFF0
3FC7F0
3F83E0
3F83E0
3F87C0
3FCFC0
3FFF80
3FFE00
3FFF80
3FFFE0
3FFFE0
7FFFF0
7FC7F0
7F87F0
7F87F0
7F8FF0
7F9FF0
7FBFE0
7FFFE0
7FFFC0
7FFF00
FFFE00
FFF800
3C0000
ENDCHAR
STARTCHAR 0063
ENCODING 99
SWIDTH 472 0
DWIDTH 21 0
BBX 24 30 3 0
BITMAP
0007F0
003FFC
00FFFE
01FFFF
07FFFF
07FFFE
0FFFFE
1FFFFC
1FFF10
3FF800
3FF000
3FE000
3FC000
7FC000
7FC000
7FC000
7FE030
FFFFF0
FFFFF0
FFFFF0
7FFFF0
7FFFE0
7FFFE0
7FFFE0
7FFFE0
3FFFC0
3FFF80
3FFF00
07FC00
002000
ENDCHAR
STARTCHAR 0064
ENCODING 100
SWIDTH 450 0
DWIDTH 20 0
BBX 19 30 5 0
BITMAP
1FF000
3FFC00
3FFE00
7FFF00
7FFF80
7FFF80
7FFFC0
7FFFC0
FF8FC0
FF07E0
FF07E0
FF07E0
FF07E0
FF0FC0
FF0FC0
FE1F80
FE3F80
FEFF00
FFFE00
FFFE00
FFFC00
FFF800
FFF000
FFE000
FFC000
FF8000
FF0000
FC0000
F00000
800000
ENDCHAR
STARTCHAR 0065
ENCODING 101
SWIDTH 495 0
DWIDTH 22 0
BBX 17 31 6 0
BITMAP
07FE00
3FFF80
7FFF80
7FFF00
7FFF00
7FFE00
7FFE00
7FFE00
7FFE00
7FC000
7F0000
7F0000
7F0800
7FF800
7FF800
7FF800
7FF800
7F8000
7F0000
7F0300
7FFF00
7FFF00
FFFF00
FFFF00
FFFF00
FFFF00
FFFF00
FFFF00
FFF800
FF8000
F00000
ENDCHAR
STARTCHAR 0066
ENCODING 102
SWIDTH 495 0
DWIDTH 22 0
BBX 25 31 2 0
BITMAP
0007FF80
01FFFF80
07FFFF80
07FFFF80
0FFFFF80
0FFFFF80
0FFFF780
0FF80000
0FF00000
1FF00000
1FE00000
1FE60000
1FFF0000
1FFF0000
3FFE0000
3FFE0000
3FFE0000
3FF60000
7F800000
7F800000
7F800000
7F800000
7F000000
FF000000
FF000000
FF000000
FF000000
FF000000
FF000000
FF000000
F8000000
ENDCHAR
STARTCHAR 0067
ENCODING 103
SWIDTH 495 0
DWIDTH 22 0
BBX 24 31 2 0
BITMAP
000200
0007FC
001FFE
003FFF
007FFF
00FFFF
00FFFF
01FF3E
03F800
03F000
07E000
07E000
0FC000
0FC03E
1F83FE
1F87FE
1F87FE
3F07FC
3F07FC
7F07FC
7F87FC
7FDFF8
7FFFF8
FFFFF8
FFFFF8
FFFFE0
7FFFC0
7FFF00
3FFC00
1FE000
080000
ENDCHAR
STARTCHAR 0068
ENCODING 104
SWIDTH 562 0
DWIDTH 25 0
BBX 29 29 1 1
BITMAP
000FC000
007FC3F8
00FF83F8
00FF87F8
00FF87F8
00FF87F0
00FF0FF0
01FF0FF0
01FF1FE0
01FF1FE0
03FF1FE0
03FFFFE0
03FFFFC0
07FFFFC0
07FFFFC0
07FFFF80
0FFFFFC0
0FFFFFC0
0FFFFF80
0FFFFF80
1FF8FF80
1FF0FF00
1FF1FF00
3FF1FF00
3FF1FE00
3FE3FE00
7FE1FE00
7FE3FC00
FFC3E000
ENDCHAR
STARTCHAR 0069
ENCODING 105
SWIDTH 315 0
DWIDTH 14 0
BBX 19 30 1 0
BITMAP
003FC0
007FE0
007FE0
007FC0
00FFC0
00FF80
00FF80
01FF80
01FF00
01FF00
03FF00
03FF00
03FE00
03FE00
07FE00
07FE00
07FC00
0FFC00
0FFC00
0FFC00
0FFC00
1FF800
1FF800
1FF800
1FF000
3FF000
3FE000
7FE000
7FC000
F80000
ENDCHAR
STARTCHAR 006A
ENCODING 106
SWIDTH 450 0
DWIDTH 20 0
BBX 23 30 2 0
BITMAP
0003FE
0007FE
0007FE
0007FE
000FFE
000FFE
001FFC
001FFC
001FFC
003FFC
003FFC
003FFC
003FF8
003FF8
003FF8
003FF8
003FF8
003FF0
003FF0
003FF0
3E3FE0
7F3FE0
FF3FC0
FFBF80
FFFF80
FFFF00
7FFE00
7FFC00
1FF800
07E000
ENDCHAR
STARTCHAR 006B
ENCODING 107
SWIDTH 540 0
DWIDTH 24 0
BBX 29 31 1 0
BITMAP
00000080
03FFC180
01FFC3C0
03FFC7F8
03FF8FF0
03FF9FE0
03FFBFC0
07FFBF80
07FF7F00
07FFFE00
07FFFC00
0FFFFC00
0FFFF800
0FFFF000
1FFFE000
1FFFE000
1FFF8000
1FFFC000
3FFFE000
3FFFF000
3FFFF000
3FFFF800
7FFBF800
7FFBFC00
7FF9FC00
7FF1FE00
7FF1FE00
7FF0FE00
FFF0FE00
FFF07000
01C0C000
ENDCHAR
STARTCHAR 006C
ENCODING 108
SWIDTH 495 0
DWIDTH 22 0
BBX 22 31 1 -1
BITMAP
000FF8
003FF8
007FF8
007FF0
007FF0
00FFF0
00FFE0
00FFE0
01FFE0
01FFC0
01FFC0
01FF80
03FF80
03FF80
07FF00
07FF00
07FF00
0FFE00
0FFE00
0FFC00
1FFC00
1FFFFC
1FFFFC
3FFFFC
3FFFFC
3FFFF8
3FFFF8
7FFFF8
7FFFC0
7FC000
C00000
ENDCHAR
STARTCHAR 006D
ENCODING 109
SWIDTH 652 0
DWIDTH 29 0
BBX 30 30 1 0
BITMAP
00380018
0038003C
0038007C
007C00FC
007C00F8
00FE01F8
00FE03F8
00FF07F8
01FF07F8
01FF0FF8
01FF9FF8
03FFBFF8
03FFFFF8
03FFFFF8
07FFFFF8
07FFFFF8
07FFFFF0
0FFDFFF0
0FF8DFF0
1FF89FF0
1FF01FF0
1FE03FF0
3FE03FF0
3FC03FF0
3FC07FF0
7F807FF0
7F807FF0
FF007FF0
FF00FFE0
FE000000
ENDCHAR
STARTCHAR 006E
ENCODING 110
SWIDTH 562 0
DWIDTH 25 0
BBX 29 30 1 0
BITMAP
00180060
007F83F8
00FFC7F8
00FF8FF8
00FF8FF8
01FF8FF0
01FF8FF0
03FF9FF0
03FF9FE0
03FF9FE0
07FF9FE0
07FF9FC0
07FFBFC0
0FFFBFC0
0FFFBF80
0FFFBF80
0FFFFF80
1FFFFF80
1FFFFF00
1FF7FF00
3FE7FF00
3FE7FF00
3FE7FE00
3FC7FE00
7FC7FE00
7FC7FC00
7FC7FC00
FF87FC00
FF87F800
F0000000
ENDCHAR
STARTCHAR 006F
ENCODING 111
SWIDTH 517 0
DWIDTH 23 0
BBX 22 31 4 0
BITMAP
003C00
007E00
00FF80
01FFC0
03FFE0
07FFF0
07FFF0
0FFFF8
1FFFF8
1FFFFC
3FFFFC
3FFFFC
7FC3FC
7F83FC
FF83FC
FF03FC
FF03FC
FF07FC
FF8FFC
FFDFF8
FFFFF8
FFFFF8
FFFFF0
FFFFF0
FFFFE0
FFFFE0
FFFFC0
7FFFC0
3FFF80
1FFE00
07F800
ENDCHAR
STARTCHAR 0070
ENCODING 112
SWIDTH 495 0
DWIDTH 22 0
BBX 24 31 1 0
BITMAP
000080
007FF0
01FFFC
01FFFE
01FFFF
01FFFF
03FFFF
03FCFF
03FC3F
03FC1F
07FC3F
07FC3F
07FC7F
0FFC7F
0FFFFF
0FFFFE
0FFFFC
1FFFF8
1FFFE0
1FF800
3FF800
3FF800
3FF800
7FF000
7FF000
7FF000
7FF000
FFF000
FFF000
FFF000
FFF000
ENDCHAR
STARTCHAR 0071
ENCODING 113
SWIDTH 607 0
DWIDTH 27 0
BBX 24 33 3 -2
BITMAP
000780
007FC0
00FFE0
01FFF0
03FFF8
03FFFC
07FFFC
0FFFFE
0FF3FE
1FE1FE
1FC0FE
1FC0FF
3FC0FE
3FC0FE
7FC0FE
7F80FE
7F80FE
7FC1FE
FFFFFC
FFFFFC
FFFFF8
FFFFF8
FFFFF0
FFFFF0
FFFFF0
7FFFF8
3FFFF8
3FFFFC
1FFFFE
07FFFE
0007FF
0007FE
000300
ENDCHAR
STARTCHAR 0072
ENCODING 114
SWIDTH 585 0
DWIDTH 26 0
BBX 23 32 3 -1
BITMAP
000600
007FC0
07FFF0
0FFFFC
1FFFFE
1FFDFE
1FF83E
1FF83E
1FF83E
1FF83E
3FF83E
3FF87E
3FFCFC
3FFBFC
3FFFF8
3FFFF0
3FFFC0
3FFFC0
3FFFC0
7FFFE0
7FFFE0
7FF7F0
7FF7F0
7FE7F0
FFE3F8
FFE3F8
FFE3FC
FFE3FC
FFE1FC
FFE1FE
7FC1F0
7E0000
ENDCHAR
STARTCHAR 0073
ENCODING 115
SWIDTH 495 0
DWIDTH 22 0
BBX 26 31 2 0
BITMAP
0001F000
001FFFC0
007FFF80
00FFFF80
00FFFF00
01FFFE00
03FFFE00
03FFFC00
07FFF800
07FFF800
0FFFF000
0FFFF000
0FF02000
0FF80000
07FE0000
07FF8000
07FFE000
03FFF000
007FF000
000FF000
0007F000
0007F800
700FF800
7FFFF000
FFFFF000
FFFFF000
FFFFE000
FFFFC000
7FFF0000
3FFE0000
1FF80000
ENDCHAR
STARTCHAR 0074
ENCODING 116
SWIDTH 562 0
DWIDTH 25 0
BBX 25 30 5 0
BITMAP
07FFFE00
3FFFFF80
3FFFFF80
3FFFFF80
3FFFFF80
7FFFFF80
7FFFFF80
7FFFFF80
FFFFF000
FE7F8000
C07F0000
007F0000
007E0000
00FE0000
00FE0000
00FE0000
00FC0000
01FC0000
01FC0000
01FC0000
01F80000
01F80000
03F80000
03F80000
03F80000
03F00000
07F00000
07F00000
07F00000
07E00000
ENDCHAR
STARTCHAR 0075
ENCODING 117
SWIDTH 540 0
DWIDTH 24 0
BBX 27 30 3 1
BITMAP
01000000
01F80FC0
03F81FE0
03F81FC0
07F01FC0
07F01FC0
0FF01FC0
0FE01F80
0FE03F80
1FE03F80
1FC03F80
3FC07F00
3FC07F00
3FC07F00
7FC0FF00
7FC0FF00
7FC1FF00
7FE1FE00
7FFFFE00
7FFFFC00
FFFFFC00
FFFFF800
7FFFF800
7FFFF000
7FFFE000
7FFFC000
3FFF8000
3FFF0000
1FFE0000
07FC0000
ENDCHAR
STARTCHAR 0076
ENCODING 118
SWIDTH 585 0
DWIDTH 26 0
BBX 25 28 7 1
BITMAP
E0007F80
FF01FF80
7FC1FF00
7FE1FF00
7FE1FF00
7FE3FE00
7FE3FE00
7FE3FC00
7FE7FC00
3FE7F800
3FE7F800
3FEFF000
3FEFF000
1FEFE000
1FFFE000
1FFFE000
0FFFC000
0FFFC000
0FFF8000
07FF8000
07FF0000
03FF0000
03FF0000
01FE0000
01FE0000
00FC0000
00FC0000
00780000
ENDCHAR
STARTCHAR 0077
ENCODING 119
SWIDTH 720 0
DWIDTH 32 0
BBX 32 31 6 0
BITMAP
00000040
3F00007A
7F81C0FF
7F81C1FE
FF81C1FC
FF83C3FC
FFC3C3F8
FFC3C7F8
FFC7C7F0
FFC7CFF0
7FC7EFF0
7FEFFFF0
7FEFFFE0
7FFFFFE0
7FFFFFC0
3FFFFFC0
3FFFFF80
3FFFFF80
3FFFFF80
1FFFFF00
1FF9FF00
1FF9FE00
0FF1FE00
0FE1FE00
0FE1FE00
0FC1FC00
07C1FC00
0781F800
0781F800
03000000
03000000
ENDCHAR
STARTCHAR 0078
ENCODING 120
SWIDTH 562 0
DWIDTH 25 0
BBX 28 29 3 1
BITMAP
000007F0
07F00FF0
0FF00FF0
1FF01FE0
1FF83FC0
1FF87FC0
1FF87F80
1FF8FF00
0FFCFF00
0FFDFE00
07FFFC00
03FFFC00
03FFF800
01FFF000
01FFF000
01FFE000
00FFE000
01FFE000
03FFE000
07FFE000
07FFE000
0FFFE000
1FEFE000
3FE7F000
3FC7F000
7FC7F000
7F83F000
FF81C000
FF000000
ENDCHAR
STARTCHAR 0079
ENCODING 121
SWIDTH 607 0
DWIDTH 27 0
BBX 27 31 6 0
BITMAP
00000020
00001FE0
07001FC0
7F803F80
FF807F80
7F807F00
7FC0FE00
7FC1FE00
7FC1FC00
3FC3F800
3FC7F800
3FEFF000
1FEFE000
1FFFE000
1FFFC000
0FFF8000
0FFF0000
0FFF0000
0FFE0000
07FC0000
07FC0000
07F80000
03F80000
03F80000
03F80000
07F00000
07F00000
07F00000
07F00000
07F00000
07C00000
ENDCHAR
STARTCHAR 007A
ENCODING 122
SWIDTH 585 0
DWIDTH 26 0
BBX 24 31 5 0
BITMAP
0007C0
00FFFF
0FFFFE
1FFFFC
3FFFF8
3FFFF0
7FFFE0
7FFFE0
FE1FC0
003F80
003F80
007F00
007E00
00FE00
00FC00
01FC00
03F800
03F800
07F800
07F000
0FF000
0FE000
1FC000
1FFFFE
3FFFFC
7FFFFC
7FFFF8
7FFFF0
0FFFE0
03FFC0
003C00
ENDCHAR
STARTCHAR 007B
ENCODING 123
SWIDTH 337 0
DWIDTH 15 0
BBX 18 42 4 -5
BITMAP
000380
000780
000F80
001FC0
003FC0
007F80
007F00
00FE00
00FC00
00F800
01F800
01F000
03F000
03E000
07E000
07C000
0FC000
0FC000
7F8000
7F8000
FF8000
FF8000
FF8000
5F8000
1F8000
1F8000
1F8000
1F8000
1F8000
1F8000
1F0000
1F0000
3F0000
3F0000
3F0000
3F0000
3FC000
3FC000
1FC000
1F8000
0F8000
070000
ENDCHAR
STARTCHAR 007C
ENCODING 124
SWIDTH 180 0
DWIDTH 8 0
BBX 15 45 0 -7
BITMAP
0070
007E
007E
00FE
00FE
00FC
00FC
01FC
01FC
01FC
01F8
01F8
03F8
03F8
03F8
03F0
07F0
07F0
07F0
07E0
07E0
0FE0
0FE0
0FE0
0FE0
0FC0
1FC0
1FC0
1F80
1F80
1F80
3F80
3F80
3F00
3F00
3F00
7F00
7F00
7E00
7E00
7E00
FE00
FC00
FC00
F000
ENDCHAR
STARTCHAR 007D
ENCODING 125
SWIDTH 337 0
DWIDTH 15 0
BBX 18 42 1 -5
BITMAP
007000
007800
00FC00
00FE00
01FE00
00FF00
007F00
007F00
007E00
007E00
007E00
007E00
007E00
007E00
007C00
007C00
00FC00
00FC00
00FF00
007F80
007FC0
007F80
007F80
00FF00
00FC00
01F800
01F800
01F000
03F000
03E000
07E000
07C000
0FC000
0F8000
1F8000
3F8000
FF0000
FE0000
FC0000
F80000
780000
600000
ENDCHAR
STARTCHAR 007E
ENCODING 126
SWIDTH 472 0
DWIDTH 21 0
BBX 22 10 3 11
BITMAP
0381FC
0FC1FC
1FF1FC
3FFFF8
3FFFF8
7FFFF8
7FFFF0
7FFFE0
FCFFC0
FC3F00
ENDCHAR
STARTCHAR 00A0
ENCODING 160
SWIDTH 292 0
DWIDTH 13 0
BBX 0 0 0 0
BITMAP
ENDCHAR
STARTCHAR 00A1
ENCODING 161
SWIDTH 292 0
DWIDTH 13 0
BBX 16 34 -1 -9
BITMAP
001E
003F
007F
00FF
00FF
00FF
00FE
007C
0000
0000
0000
00F0
01F8
03F8
03F8
03F8
07F8
07F8
07F0
0FF0
0FF0
1FF0
1FF0
1FF0
3FF0
3FF0
3FF0
7FF0
7FF0
7FF0
7FF0
FFF0
FFF0
05E0
ENDCHAR
STARTCHAR 00A2
ENCODING 162
SWIDTH 495 0
DWIDTH 22 0
BBX 24 38 3 -4
BITMAP
00003F
00007E
00007E
0000FE
0003FC
003FFC
00FFFE
01FFFE
03FFFE
07FFFE
07FFFE
0FFFFE
1FFFFE
1FFFFC
3FEFFC
3FDF98
3F9F80
7F3F80
7F3F00
7F3F00
7E7E00
FE7E00
FEFC00
FFFC00
FFFC00
FFFFF0
FFFFF0
FFFFF0
7FFFF0
7FFFF0
3FFFE0
1FFFC0
0FFF00
0FF800
1F8000
1F8000
1F0000
0F0000
ENDCHAR
STARTCHAR 00A3
ENCODING 163
SWIDTH 540 0
DWIDTH 24 0
BBX 26 30 2 0
BITMAP
0001FC00
0003FF00
0007FF80
000FFFC0
001FFFC0
003FFFC0
003FBFC0
007F9FC0
00FF9FC0
00FF0F00
00FF0000
01FE0000
1FFFF800
3FFFFC00
3FFFF800
3FFFF800
3FFFF800
3FFFF000
03FC0000
07FC0000
07FC0000
07F80000
07F80000
7FFFFE00
FFFFFE00
FFFFFC00
FFFFFC00
FFFFFC00
FFFFF800
0FFFC000
ENDCHAR
STARTCHAR 00A4
ENCODING 164
SWIDTH 427 0
DWIDTH 19 0
BBX 20 18 3 6
BITMAP
020040
0781C0
0FFBE0
1FFFF0
3FFFF0
1FFFE0
1FCFC0
0F8F80
0F0F80
1F0F80
1F0F00
1F1F00
3F1F80
7FFFC0
FFFFC0
7FFF80
7CDF00
380E00
ENDCHAR
STARTCHAR 00A5
ENCODING 165
SWIDTH 607 0
DWIDTH 27 0
BBX 29 31 4 0
BITMAP
00000008
000007F8
01C007F0
1FE00FE0
3FE01FE0
1FE01FC0
1FF03F80
1FF07F80
1FF07F00
0FF0FE00
0FF1FE00
0FFBFC00
07FBF800
07FFF000
1FFFFC00
3FFFFC00
3FFFFC00
3FFFFC00
3FFFFC00
3FFF0000
01FF0000
3FFFF800
7FFFF800
7FFFF800
7FFFF800
7FFFF000
FFFFF000
01FC0000
01FC0000
01FC0000
01F00000
ENDCHAR
STARTCHAR 00A6
ENCODING 166
SWIDTH 180 0
DWIDTH 8 0
BBX 15 45 0 -7
BITMAP
007E
007E
00FE
00FE
00FE
00FE
00FC
01FC
01FC
01FC
01F8
01F8
03F8
03F8
03F8
03F0
03F0
03F0
07F0
07E0
0000
0000
0000
0000
0000
0080
1FC0
1F80
1F80
1F80
3F80
3F80
3F80
3F00
3F00
7F00
7F00
7F00
7E00
FE00
FE00
FE00
FE00
FC00
FC00
ENDCHAR
STARTCHAR 00A7
ENCODING 167
SWIDTH 495 0
DWIDTH 22 0
BBX 21 38 4 -3
BITMAP
000300
001FE0
007FF0
01FFF8
03FFF8
03FFF8
07FFF8
07FFF0
07F870
07F800
07F000
07F800
0FFE00
1FFFC0
3FFFE0
3FFFF0
7FFFF8
7FEFF8
FF07F8
FE03F8
FF07F8
FFFFF0
7FFFE0
7FFFE0
3FFFC0
0FFFC0
01FF80
00FF00
007F00
00FF00
71FF00
FFFF00
FFFF00
FFFE00
FFFE00
7FF800
7FF000
1FC000
ENDCHAR
STARTCHAR 00A8
ENCODING 168
SWIDTH 292 0
DWIDTH 13 0
BBX 12 5 8 31
BITMAP
70F0
F8F0
F9F0
F1E0
6040
ENDCHAR
STARTCHAR 00A9
ENCODING 169
SWIDTH 652 0
DWIDTH 29 0
BBX 29 29 4 1
BITMAP
0001FC00
001FFF00
00FFFFC0
03FFFFE0
07FFFFF0
0FF00FF0
0FC003F0
1F81C1F0
3F0FE1F8
3E1FF0F8
7C1FF0F8
783FE0F8
787E60F8
F07C00F8
F07800F0
F07801F0
F0F801F0
F0FC01E0
F8FFC3E0
F87FC3C0
F87F83C0
FC1F0780
FE001F00
FF007E00
7FFFFC00
7FFFF000
3FFFE000
0FFF8000
007C0000
ENDCHAR
STARTCHAR 00AA
ENCODING 170
SWIDTH 315 0
DWIDTH 14 0
BBX 13 15 4 15
BITMAP
0060
00E0
00F0
01F0
01F0
03F0
07F0
07F0
0EF0
1CF0
1FF0
3FF0
78F8
78F8
F0F8
ENDCHAR
STARTCHAR 00AB
ENCODING 171
SWIDTH 472 0
DWIDTH 21 0
BBX 22 19 3 1
BITMAP
00700C
00E018
01E078
07E0F8
0FE3F8
1FC7F8
3FDFF0
7FBFE0
FC3F00
F03C00
F83F00
FF3FC0
FF9FE0
7F9FE0
3F8FC0
1F87C0
0F03C0
0703C0
0301C0
ENDCHAR
STARTCHAR 00AC
ENCODING 172
SWIDTH 472 0
DWIDTH 21 0
BBX 20 11 4 8
BITMAP
7FFFF0
7FFFF0
FFFFF0
FFFFF0
FFFFF0
FFFFE0
7FFFE0
000FE0
000FE0
000FC0
000FC0
ENDCHAR
STARTCHAR 00AD
ENCODING 173
SWIDTH 382 0
DWIDTH 17 0
BBX 16 7 4 12
BITMAP
7FFF
7FFF
FFFF
FFFF
FFFF
FFFF
FF90
ENDCHAR
STARTCHAR 00AE
ENCODING 174
SWIDTH 450 0
DWIDTH 20 0
BBX 19 19 5 13
BITMAP
001800
03FF00
07FF80
1F87C0
1E01E0
3DF8E0
79C8E0
71CCE0
71D8E0
E3F0E0
E3F0E0
E3F1E0
E3F9C0
F39BC0
F30780
7C0F00
7FFF00
3FFE00
0FF000
ENDCHAR
STARTCHAR 00AF
ENCODING 175
SWIDTH 315 0
DWIDTH 14 0
BBX 13 4 8 32
BITMAP
7FF8
FFF8
FFF8
FFF8
ENDCHAR
STARTCHAR 00B0
ENCODING 176
SWIDTH 315 0
DWIDTH 14 0
BBX 13 15 6 17
BITMAP
01C0
0FE0
1FF0
3FF8
7CF8
F878
F078
F078
F078
F0F0
F9F0
FFE0
7FC0
3F80
1E00
ENDCHAR
STARTCHAR 00B1
ENCODING 177
SWIDTH 472 0
DWIDTH 21 0
BBX 23 26 1 0
BITMAP
0007C0
000FC0
001FC0
001F80
001F80
001F80
001F80
0FFFFE
1FFFFE
1FFFFE
1FFFFE
1FFFFE
1FFFFC
007FF8
007E00
007E00
00FE00
00FE00
00FC00
000400
000000
7FFFF0
FFFFF0
FFFFF0
FFFFE0
FFFFE0
ENDCHAR
STARTCHAR 00B2
ENCODING 178
SWIDTH 270 0
DWIDTH 12 0
BBX 11 15 5 16
BITMAP
0700
1F80
3FC0
3FC0
31C0
0380
0380
0700
0700
0FE0
1FE0
3FC0
7FC0
FF80
FE00
ENDCHAR
STARTCHAR 00B3
ENCODING 179
SWIDTH 247 0
DWIDTH 11 0
BBX 11 15 4 15
BITMAP
0F80
1F80
0B80
0700
0700
0FC0
1FC0
1FE0
00E0
00E0
00E0
01C0
FFC0
7F80
1E00
ENDCHAR
STARTCHAR 00B4
ENCODING 180
SWIDTH 225 0
DWIDTH 10 0
BBX 10 6 8 31
BITMAP
1FC0
1F80
3F00
7E00
F800
F000
ENDCHAR
STARTCHAR 00B5
ENCODING 181
SWIDTH 540 0
DWIDTH 24 0
BBX 27 31 0 -7
BITMAP
000803C0
03F81FC0
03F81FC0
07F01FE0
07F01FE0
07F01FE0
07F01FE0
0FF01FE0
0FF03FE0
0FF03FE0
0FF07FC0
1FF07FC0
1FF1FFC0
1FFFFF80
1FFFFF80
1FFFFF00
3FFFFF00
3FFFFE00
3FFFFC00
3FFFFC00
3FFFF800
7FFFE000
7FFF8000
7F000000
7E000000
FE000000
FE000000
FE000000
FE000000
FC000000
FC000000
ENDCHAR
STARTCHAR 00B6
ENCODING 182
SWIDTH 382 0
DWIDTH 17 0
BBX 18 35 5 -4
BITMAP
001C00
03FFC0
0FFFC0
1FFFC0
3FFF80
3FFF80
7FFF80
7FC780
7FCF80
7FCF00
FFCF00
FF8F00
FF9F00
FF9F00
FF9F00
FF9E00
FF1E00
7F3E00
7F3E00
1F3C00
1F3C00
1F7C00
1E7C00
1E7C00
3E7800
3E7800
3EF800
3CF800
7CF000
7CF000
7CF000
7DF000
79F000
F9E000
F9E000
ENDCHAR
STARTCHAR 00B7
ENCODING 183
SWIDTH 202 0
DWIDTH 9 0
BBX 8 9 4 11
BITMAP
0E
3F
7F
FF
FF
FF
FE
7C
20
ENDCHAR
STARTCHAR 00B8
ENCODING 184
SWIDTH 292 0
DWIDTH 13 0
BBX 12 9 0 -7
BITMAP
0F80
0F80
0F80
0FC0
03F0
41F0
FFF0
FFE0
FFC0
ENDCHAR
STARTCHAR 00B9
ENCODING 185
SWIDTH 225 0
DWIDTH 10 0
BBX 7 14 7 16
BITMAP
0E
3E
FE
FE
5E
3E
3C
3C
7C
7C
7C
FC
FC
FC
ENDCHAR
STARTCHAR 00BA
ENCODING 186
SWIDTH 270 0
DWIDTH 12 0
BBX 12 16 5 15
BITMAP
0700
0F80
1FC0
1FE0
3FE0
3FF0
78F0
78F0
79F0
F9E0
FFE0
7FE0
7FC0
7FC0
3F00
0C00
ENDCHAR
STARTCHAR 00BB
ENCODING 187
SWIDTH 472 0
DWIDTH 21 0
BBX 22 20 1 0
BITMAP
080000
0E0200
0E0300
0F0780
1F87C0
1FC7E0
1FC7F0
1FE7F8
0FE7FC
03F0FC
01E03C
07E0FC
3FE7F8
7FCFF0
7F1FE0
7E1FC0
781F00
F01E00
E03C00
803800
ENDCHAR
STARTCHAR 00BC
ENCODING 188
SWIDTH 562 0
DWIDTH 25 0
BBX 25 32 3 -1
BITMAP
00000200
00E00780
03E00F80
0FE01F80
0FE01F00
05E03E00
03E07E00
03C07C00
03C0F800
07C1F000
07C3E000
07C7E000
0FC7C000
0FCF8000
0FDF0000
003F0000
007E3800
007C7000
00F87000
01F0E000
03E0E000
07E1C000
07C1FE00
0F83FE00
1F03FE00
3E063000
7C007000
FC007000
F800F000
F000F000
6001F000
00010000
ENDCHAR
STARTCHAR 00BD
ENCODING 189
SWIDTH 562 0
DWIDTH 25 0
BBX 25 31 3 0
BITMAP
00000200
00E00780
03E00F80
0FE01F80
0FE01F00
05E03E00
03E07E00
03C07C00
03C0F800
07C1F000
07C3E000
07C7E000
0FC7C000
0FCF8000
0FDF0000
003F4000
007EF800
007FFC00
00FFFC00
01F39800
03E03800
07E03800
07C07000
0F807000
1F00E600
3E01FC00
7C03FC00
FC03FC00
F80FF800
F00FF000
60010000
ENDCHAR
STARTCHAR 00BE
ENCODING 190
SWIDTH 562 0
DWIDTH 25 0
BBX 25 32 3 -1
BITMAP
00000200
07C00780
0FC00F80
05C01F80
03801F00
03803E00
07E07E00
0FE07C00
0FF0F800
0071F000
0073E000
0077E000
00E7C000
7FEF8000
3FDF0000
0F3F0000
007E3800
007C7000
00F87000
01F0E000
03E0E000
07E1C000
07C1FE00
0F83FE00
1F03FE00
3E063000
7C007000
FC007000
F800F000
F000F000
6001F000
00010000
ENDCHAR
STARTCHAR 00BF
ENCODING 191
SWIDTH 450 0
DWIDTH 20 0
BBX 20 33 0 -9
BITMAP
0000C0
0003E0
0007F0
000FF0
000FF0
000FE0
000FC0
000700
000000
000000
000100
001FC0
001FC0
003F80
007F80
00FF80
03FF80
0FFF00
1FFE00
3FE000
3FC000
3F8000
7F0000
7F0040
7F01E0
FF07F0
FFFFE0
FFFFE0
FFFFC0
FFFFC0
7FFF80
3FFF00
007800
ENDCHAR
STARTCHAR 00C0
ENCODING 192
SWIDTH 630 0
DWIDTH 28 0
BBX 26 39 1 -1
BITMAP
0003F800
0001F800
0000F800
0000FC00
00007C00
00003C00
00002000
00000000
00001C00
00003E00
00007E00
0000FE00
0000FE00
0001FE00
0001FE00
0003FE00
0003FE00
0007FE00
000FFE00
000FFE00
001FFE00
003FFF00
003FFF00
007FFF00
007DFF00
00F8FF00
01F0FF00
01E0FF00
03EFFF00
07FFFF00
07FFFF80
0FFFFF80
1FE1FF80
1FC1FF80
3F81FFC0
7F81FFC0
7F01FFC0
FF01FFC0
FC008000
ENDCHAR
STARTCHAR 00C1
ENCODING 193
SWIDTH 630 0
DWIDTH 28 0
BBX 29 39 1 -1
BITMAP
000001F8
000003F0
000007E0
00000FC0
00000F80
00001F00
00000200
00000000
00001C00
00003E00
00007E00
0000FE00
0000FE00
0001FE00
0001FE00
0003FE00
0003FE00
0007FE00
000FFE00
000FFE00
001FFE00
003FFF00
003FFF00
007FFF00
007DFF00
00F8FF00
01F0FF00
01E0FF00
03EFFF00
07FFFF00
07FFFF80
0FFFFF80
1FE1FF80
1FC1FF80
3F81FFC0
7F81FFC0
7F01FFC0
FF01FFC0
FC008000
ENDCHAR
STARTCHAR 00C2
ENCODING 194
SWIDTH 630 0
DWIDTH 28 0
BBX 28 39 1 -1
BITMAP
00000F00
00003F80
00007FC0
0001FFE0
0003FBF0
0003E1E0
00000000
00000000
00001C00
00003E00
00007E00
0000FE00
0000FE00
0001FE00
0001FE00
0003FE00
0003FE00
0007FE00
000FFE00
000FFE00
001FFE00
003FFF00
003FFF00
007FFF00
007DFF00
00F8FF00
01F0FF00
01E0FF00
03EFFF00
07FFFF00
07FFFF80
0FFFFF80
1FE1FF80
1FC1FF80
3F81FFC0
7F81FFC0
7F01FFC0
FF01FFC0
FC008000
ENDCHAR
STARTCHAR 00C3
ENCODING 195
SWIDTH 630 0
DWIDTH 28 0
BBX 29 39 1 -1
BITMAP
000038F8
0000FCF0
0001FFF0
0001FFF0
0001FFE0
0001CFC0
0003C000
00000000
00001C00
00003E00
00007E00
0000FE00
0000FE00
0001FE00
0001FE00
0003FE00
0003FE00
0007FE00
000FFE00
000FFE00
001FFE00
003FFF00
003FFF00
007FFF00
007DFF00
00F8FF00
01F0FF00
01E0FF00
03EFFF00
07FFFF00
07FFFF80
0FFFFF80
1FE1FF80
1FC1FF80
3F81FFC0
7F81FFC0
7F01FFC0
FF01FFC0
FC008000
ENDCHAR
STARTCHAR 00C4
ENCODING 196
SWIDTH 630 0
DWIDTH 28 0
BBX 28 37 1 -1
BITMAP
000060E0
0000F1F0
0001F1E0
0001F1E0
0000E080
00000000
00001C00
00003E00
00007E00
0000FE00
0000FE00
0001FE00
0001FE00
0003FE00
0003FE00
0007FE00
000FFE00
000FFE00
001FFE00
003FFF00
003FFF00
007FFF00
007DFF00
00F8FF00
01F0FF00
01E0FF00
03EFFF00
07FFFF00
07FFFF80
0FFFFF80
1FE1FF80
1FC1FF80
3F81FFC0
7F81FFC0
7F01FFC0
FF01FFC0
FC008000
ENDCHAR
STARTCHAR 00C5
ENCODING 197
SWIDTH 630 0
DWIDTH 28 0
BBX 27 39 1 -1
BITMAP
00003F80
0000FFC0
0001FFE0
0001E1E0
0003E1E0
0003C1E0
0003C3E0
0003E3C0
0003FF80
0001FF00
0000FE00
0000FE00
0000FE00
0001FE00
0001FE00
0003FE00
0003FE00
0007FE00
000FFE00
000FFE00
001FFE00
003FFF00
003FFF00
007FFF00
007DFF00
00F8FF00
01F0FF00
01E0FF00
03EFFF00
07FFFF00
07FFFF80
0FFFFF80
1FE1FF80
1FC1FF80
3F81FFC0
7F81FFC0
7F01FFC0
FF01FFC0
FC008000
ENDCHAR
STARTCHAR 00C6
ENCODING 198
SWIDTH 720 0
DWIDTH 32 0
BBX 33 32 1 -1
BITMAP
000001F800
00003FFF80
00003FFF80
00007FFF00
0000FFFF00
0000FFFE00
0001FFFE00
0001FFFE00
0003FFFE00
0007FFFC00
0007FF0000
000FFF0000
000FFF0000
001FFFF800
003FFFF800
003FFFF800
007FFFF800
00F9FFD000
00F0FF0000
01F0FF0300
03E0FFFF00
03FFFFFF00
07FFFFFF00
0FFFFFFF00
0FFFFFFF00
1FE1FFFF00
1FC1FFFF00
3F81FFFF00
7F81FFF800
7F01FF8000
FF01F80000
E000000000
ENDCHAR
STARTCHAR 00C7
ENCODING 199
SWIDTH 472 0
DWIDTH 21 0
BBX 24 37 3 -7
BITMAP
0007F0
003FFC
00FFFE
01FFFF
07FFFF
07FFFE
0FFFFE
1FFFFC
1FFF10
3FF800
3FF000
3FE000
3FC000
7FC000
7FC000
7FC000
7FE030
FFFFF0
FFFFF0
FFFFF0
7FFFF0
7FFFF0
7FFFE0
7FFFE0
7FFFE0
3FFFC0
3FFF80
3FFF00
07FC00
07E000
07C000
07E000
03F000
01F800
FFF000
FFF000
7FE000
ENDCHAR
STARTCHAR 00C8
ENCODING 200
SWIDTH 495 0
DWIDTH 22 0
BBX 17 39 6 0
BITMAP
038000
1F8000
1FC000
0FC000
07E000
03E000
03E000
000000
07FE00
3FFF80
7FFF80
7FFF00
7FFF00
7FFE00
7FFE00
7FFE00
7FFE00
7FC000
7F0000
7F0000
7F0800
7FF800
7FF800
7FF800
7FF800
7F8000
7F0000
7F0300
7FFF00
7FFF00
FFFF00
FFFF00
FFFF00
FFFF00
FFFF00
FFFF00
FFF800
FF8000
F00000
ENDCHAR
STARTCHAR 00C9
ENCODING 201
SWIDTH 495 0
DWIDTH 22 0
BBX 17 39 6 0
BITMAP
003F00
003E00
007C00
00F800
01F800
01F000
01E000
000000
07FE00
3FFF80
7FFF80
7FFF00
7FFF00
7FFE00
7FFE00
7FFE00
7FFE00
7FC000
7F0000
7F0000
7F0800
7FF800
7FF800
7FF800
7FF800
7F8000
7F0000
7F0300
7FFF00
7FFF00
FFFF00
FFFF00
FFFF00
FFFF00
FFFF00
FFFF00
FFF800
FF8000
F00000
ENDCHAR
STARTCHAR 00CA
ENCODING 202
SWIDTH 495 0
DWIDTH 22 0
BBX 17 39 6 0
BITMAP
00E000
03F000
07FC00
0FFE00
1FFE00
3F3E00
3C0800
000000
07FE00
3FFF80
7FFF80
7FFF00
7FFF00
7FFE00
7FFE00
7FFE00
7FFE00
7FC000
7F0000
7F0000
7F0800
7FF800
7FF800
7FF800
7FF800
7F8000
7F0000
7F0300
7FFF00
7FFF00
FFFF00
FFFF00
FFFF00
FFFF00
FFFF00
FFFF00
FFF800
FF8000
F00000
ENDCHAR
STARTCHAR 00CB
ENCODING 203
SWIDTH 495 0
DWIDTH 22 0
BBX 17 37 6 0
BITMAP
001C00
0E3E00
1E3E00
3E3C00
3E1800
1C0000
07FE00
3FFF80
7FFF80
7FFF00
7FFF00
7FFE00
7FFE00
7FFE00
7FFE00
7FC000
7F0000
7F0000
7F0800
7FF800
7FF800
7FF800
7FF800
7F8000
7F0000
7F0300
7FFF00
7FFF00
FFFF00
FFFF00
FFFF00
FFFF00
FFFF00
FFFF00
FFF800
FF8000
F00000
ENDCHAR
STARTCHAR 00CC
ENCODING 204
SWIDTH 315 0
DWIDTH 14 0
BBX 19 38 1 0
BITMAP
003F00
003F80
001F80
000F80
000FC0
0007C0
000000
000000
003FC0
007FE0
007FE0
007FC0
00FFC0
00FF80
00FF80
01FF80
01FF00
01FF00
03FF00
03FF00
03FE00
03FE00
07FE00
07FE00
07FC00
0FFC00
0FFC00
0FFC00
0FFC00
1FF800
1FF800
1FF800
1FF000
3FF000
3FE000
7FE000
7FC000
F80000
ENDCHAR
STARTCHAR 00CD
ENCODING 205
SWIDTH 315 0
DWIDTH 14 0
BBX 23 38 1 0
BITMAP
00007E
0000FC
0001F8
0001F0
0003E0
0007C0
000080
000000
003FC0
007FE0
007FE0
007FC0
00FFC0
00FF80
00FF80
01FF80
01FF00
01FF00
03FF00
03FF00
03FE00
03FE00
07FE00
07FE00
07FC00
0FFC00
0FFC00
0FFC00
0FFC00
1FF800
1FF800
1FF800
1FF000
3FF000
3FE000
7FE000
7FC000
F80000
ENDCHAR
STARTCHAR 00CE
ENCODING 206
SWIDTH 315 0
DWIDTH 14 0
BBX 22 38 1 0
BITMAP
0003E0
0007F0
001FF8
003FFC
007EFC
007C7C
000020
000000
003FC0
007FE0
007FE0
007FC0
00FFC0
00FF80
00FF80
01FF80
01FF00
01FF00
03FF00
03FF00
03FE00
03FE00
07FE00
07FE00
07FC00
0FFC00
0FFC00
0FFC00
0FFC00
1FF800
1FF800
1FF800
1FF000
3FF000
3FE000
7FE000
7FC000
F80000
ENDCHAR
STARTCHAR 00CF
ENCODING 207
SWIDTH 315 0
DWIDTH 14 0
BBX 22 36 1 0
BITMAP
001C38
003C7C
007C7C
007C78
003830
000000
003FC0
007FE0
007FE0
007FC0
00FFC0
00FF80
00FF80
01FF80
01FF00
01FF00
03FF00
03FF00
03FE00
03FE00
07FE00
07FE00
07FC00
0FFC00
0FFC00
0FFC00
0FFC00
1FF800
1FF800
1FF800
1FF000
3FF000
3FE000
7FE000
7FC000
F80000
ENDCHAR
STARTCHAR 00D0
ENCODING 208
SWIDTH 472 0
DWIDTH 21 0
BBX 22 30 3 0
BITMAP
01FE00
07FF80
07FFE0
07FFF0
0FFFF0
0FFFF8
0FFFF8
0FFFFC
0FF1FC
0FF0FC
0FFC7C
7FFCFC
7FFCFC
7FFCFC
7FFDF8
FFE3F8
FFE7F0
1FEFE0
1FFFE0
1FFFC0
1FFF80
1FFF00
1FFF00
1FFE00
1FFC00
1FF800
1FE000
1F8000
1E0000
180000
ENDCHAR
STARTCHAR 00D1
ENCODING 209
SWIDTH 562 0
DWIDTH 25 0
BBX 29 38 1 0
BITMAP
000070F0
0000F9F0
0001FFE0
0003FFE0
0003FFC0
0003DF80
00038000
00000000
00180060
007F83F8
00FFC7F8
00FF8FF8
00FF8FF8
01FF8FF0
01FF8FF0
03FF9FF0
03FF9FE0
03FF9FE0
07FF9FE0
07FF9FC0
07FFBFC0
0FFFBFC0
0FFFBF80
0FFFBF80
0FFFFF80
1FFFFF80
1FFFFF00
1FF7FF00
3FE7FF00
3FE7FF00
3FE7FE00
3FC7FE00
7FC7FE00
7FC7FC00
7FC7FC00
FF87FC00
FF87F800
F0000000
ENDCHAR
STARTCHAR 00D2
ENCODING 210
SWIDTH 517 0
DWIDTH 23 0
BBX 22 38 4 0
BITMAP
07E000
07F000
03F000
01F000
01F800
00F800
000000
003C00
007E00
00FF80
01FFC0
03FFE0
07FFF0
07FFF0
0FFFF8
1FFFF8
1FFFFC
3FFFFC
3FFFFC
7FC3FC
7F83FC
FF83FC
FF03FC
FF03FC
FF07FC
FF8FFC
FFDFF8
FFFFF8
FFFFF8
FFFFF0
FFFFF0
FFFFE0
FFFFE0
FFFFC0
7FFFC0
3FFF80
1FFE00
07F800
ENDCHAR
STARTCHAR 00D3
ENCODING 211
SWIDTH 517 0
DWIDTH 23 0
BBX 22 38 4 0
BITMAP
0003F0
0007E0
000FC0
001F80
001F00
003E00
000400
003C00
007E00
00FF80
01FFC0
03FFE0
07FFF0
07FFF0
0FFFF8
1FFFF8
1FFFFC
3FFFFC
3FFFFC
7FC3FC
7F83FC
FF83FC
FF03FC
FF03FC
FF07FC
FF8FFC
FFDFF8
FFFFF8
FFFFF8
FFFFF0
FFFFF0
FFFFE0
FFFFE0
FFFFC0
7FFFC0
3FFF80
1FFE00
07F800
ENDCHAR
STARTCHAR 00D4
ENCODING 212
SWIDTH 517 0
DWIDTH 23 0
BBX 22 39 4 0
BITMAP
000800
003E00
007F00
01FF80
03FFC0
07EFC0
0783C0
000000
003C00
007E00
00FF80
01FFC0
03FFE0
07FFF0
07FFF0
0FFFF8
1FFFF8
1FFFFC
3FFFFC
3FFFFC
7FC3FC
7F83FC
FF83FC
FF03FC
FF03FC
FF07FC
FF8FFC
FFDFF8
FFFFF8
FFFFF8
FFFFF0
FFFFF0
FFFFE0
FFFFE0
FFFFC0
7FFFC0
3FFF80
1FFE00
07F800
ENDCHAR
STARTCHAR 00D5
ENCODING 213
SWIDTH 517 0
DWIDTH 23 0
BBX 22 39 4 0
BITMAP
0000E0
00E3E0
01FBC0
03FFC0
07FFC0
07FF80
079E00
070000
003C00
007E00
00FF80
01FFC0
03FFE0
07FFF0
07FFF0
0FFFF8
1FFFF8
1FFFFC
3FFFFC
3FFFFC
7FC3FC
7F83FC
FF83FC
FF03FC
FF03FC
FF07FC
FF8FFC
FFDFF8
FFFFF8
FFFFF8
FFFFF0
FFFFF0
FFFFE0
FFFFE0
FFFFC0
7FFFC0
3FFF80
1FFE00
07F800
ENDCHAR
STARTCHAR 00D6
ENCODING 214
SWIDTH 517 0
DWIDTH 23 0
BBX 22 36 4 0
BITMAP
01C380
03C7C0
03C7C0
07C780
038300
003C00
007E00
00FF80
01FFC0
03FFE0
07FFF0
07FFF0
0FFFF8
1FFFF8
1FFFFC
3FFFFC
3FFFFC
7FC3FC
7F83FC
FF83FC
FF03FC
FF03FC
FF07FC
FF8FFC
FFDFF8
FFFFF8
FFFFF8
FFFFF0
FFFFF0
FFFFE0
FFFFE0
FFFFC0
7FFFC0
3FFF80
1FFE00
07F800
ENDCHAR
STARTCHAR 00D7
ENCODING 215
SWIDTH 427 0
DWIDTH 19 0
BBX 20 18 3 7
BITMAP
000080
0301C0
0F83C0
1FC7E0
3FEFF0
1FFFE0
1FFFC0
0FFF80
07FF00
07FC00
0FFE00
1FFF00
3FFF80
7FFFC0
FF3FC0
7E3F80
3C1E00
380C00
ENDCHAR
STARTCHAR 00D8
ENCODING 216
SWIDTH 517 0
DWIDTH 23 0
BBX 30 32 0 -1
BITMAP
00000080
0003C1FC
0007E3FC
000FFBF8
001FFFF0
003FFFE0
007FFFE0
007FFFC0
00FFFF80
01FFFF80
01FFFFC0
03FFFFC0
03FFFFC0
07F3FFC0
07E7FFC0
0FEFFFC0
0FCFDFC0
0FDF9FC0
0FFF3FC0
0FFE3FC0
0FFE7F80
0FFFFF80
0FFFFF80
0FFFFF00
0FFFFF00
0FFFFE00
0FFFFE00
1FFFFC00
3FFFFC00
7FFFF800
FDFFE000
B87F8000
ENDCHAR
STARTCHAR 00D9
ENCODING 217
SWIDTH 540 0
DWIDTH 24 0
BBX 27 37 3 1
BITMAP
001F8000
000FC000
000FC000
0007E000
0003E000
0003E000
00010000
01000000
01F80FC0
03F81FE0
03F81FC0
07F01FC0
07F01FC0
0FF01FC0
0FE01F80
0FE03F80
1FE03F80
1FC03F80
3FC07F00
3FC07F00
3FC07F00
7FC0FF00
7FC0FF00
7FC1FF00
7FE1FE00
7FFFFE00
7FFFFC00
FFFFFC00
FFFFF800
7FFFF800
7FFFF000
7FFFE000
7FFFC000
3FFF8000
3FFF0000
1FFE0000
07FC0000
ENDCHAR
STARTCHAR 00DA
ENCODING 218
SWIDTH 540 0
DWIDTH 24 0
BBX 27 37 3 1
BITMAP
00000FC0
00001F80
00003F00
00007E00
0000FC00
0000F000
00000000
01000000
01F80FC0
03F81FE0
03F81FC0
07F01FC0
07F01FC0
0FF01FC0
0FE01F80
0FE03F80
1FE03F80
1FC03F80
3FC07F00
3FC07F00
3FC07F00
7FC0FF00
7FC0FF00
7FC1FF00
7FE1FE00
7FFFFE00
7FFFFC00
FFFFFC00
FFFFF800
7FFFF800
7FFFF000
7FFFE000
7FFFC000
3FFF8000
3FFF0000
1FFE0000
07FC0000
ENDCHAR
STARTCHAR 00DB
ENCODING 219
SWIDTH 540 0
DWIDTH 24 0
BBX 27 37 3 1
BITMAP
00007800
0001FC00
0007FE00
000FFF00
001FDF00
001F0F00
00000000
01000000
01F80FC0
03F81FE0
03F81FC0
07F01FC0
07F01FC0
0FF01FC0
0FE01F80
0FE03F80
1FE03F80
1FC03F80
3FC07F00
3FC07F00
3FC07F00
7FC0FF00
7FC0FF00
7FC1FF00
7FE1FE00
7FFFFE00
7FFFFC00
FFFFFC00
FFFFF800
7FFFF800
7FFFF000
7FFFE000
7FFFC000
3FFF8000
3FFF0000
1FFE0000
07FC0000
ENDCHAR
STARTCHAR 00DC
ENCODING 220
SWIDTH 540 0
DWIDTH 24 0
BBX 27 35 3 1
BITMAP
00070600
000F8F00
000F9F00
000F1F00
00060C00
01000000
01F80FC0
03F81FE0
03F81FC0
07F01FC0
07F01FC0
0FF01FC0
0FE01F80
0FE03F80
1FE03F80
1FC03F80
3FC07F00
3FC07F00
3FC07F00
7FC0FF00
7FC0FF00
7FC1FF00
7FE1FE00
7FFFFE00
7FFFFC00
FFFFFC00
FFFFF800
7FFFF800
7FFFF000
7FFFE000
7FFFC000
3FFF8000
3FFF0000
1FFE0000
07FC0000
ENDCHAR
STARTCHAR 00DD
ENCODING 221
SWIDTH 607 0
DWIDTH 27 0
BBX 27 38 6 0
BITMAP
00007E00
0000FC00
0001F800
0003F000
0003E000
0007C000
00008000
00000020
00001FE0
07001FC0
7F803F80
FF807F80
7F807F00
7FC0FE00
7FC1FE00
7FC1FC00
3FC3F800
3FC7F800
3FEFF000
1FEFE000
1FFFE000
1FFFC000
0FFF8000
0FFF0000
0FFF0000
0FFE0000
07FC0000
07FC0000
07F80000
03F80000
03F80000
03F80000
07F00000
07F00000
07F00000
07F00000
07F00000
07C00000
ENDCHAR
STARTCHAR 00DE
ENCODING 222
SWIDTH 495 0
DWIDTH 22 0
BBX 22 31 2 0
BITMAP
03E000
07F800
07F800
07F800
0FF400
0FFFC0
0FFFF0
0FFFF8
0FFFF8
0FFFFC
0FFFFC
1FE1FC
1FE0FC
1FE07C
1FE0FC
1FE0FC
1FC0FC
1FC1FC
3FC3FC
3FC7FC
3FFFFC
3FFFF8
3FFFF0
7FFFE0
7FFF80
7FC000
7FC000
7FC000
7F8000
FF8000
7F8000
ENDCHAR
STARTCHAR 00DF
ENCODING 223
SWIDTH 562 0
DWIDTH 25 0
BBX 24 34 2 -3
BITMAP
003F80
007FE0
00FFF0
03FFF8
07FFF8
07FFF8
0FF3F8
0FC1F8
1FC1F8
1FC1F8
1FC1F0
1F83F0
1F87E0
1F8FC0
1F8F80
3F8FFC
3F8FFE
3F8FFF
3F8FFF
3F81FF
3F00FF
3F007F
3F007F
7F00FF
7F01FF
7F07FE
7F1FFE
7E1FFC
7E1FF8
7E3FF0
7E3F80
FE0000
FC0000
780000
ENDCHAR
STARTCHAR 00E0
ENCODING 224
SWIDTH 630 0
DWIDTH 28 0
BBX 26 39 1 -1
BITMAP
0003F800
0001F800
0000F800
0000FC00
00007C00
00003C00
00002000
00000000
00001C00
00003E00
00007E00
0000FE00
0000FE00
0001FE00
0001FE00
0003FE00
0003FE00
0007FE00
000FFE00
000FFE00
001FFE00
003FFF00
003FFF00
007FFF00
007DFF00
00F8FF00
01F0FF00
01E0FF00
03EFFF00
07FFFF00
07FFFF80
0FFFFF80
1FE1FF80
1FC1FF80
3F81FFC0
7F81FFC0
7F01FFC0
FF01FFC0
FC008000
ENDCHAR
STARTCHAR 00E1
ENCODING 225
SWIDTH 630 0
DWIDTH 28 0
BBX 29 39 1 -1
BITMAP
000001F8
000003F0
000007E0
00000FC0
00000F80
00001F00
00000200
00000000
00001C00
00003E00
00007E00
0000FE00
0000FE00
0001FE00
0001FE00
0003FE00
0003FE00
0007FE00
000FFE00
000FFE00
001FFE00
003FFF00
003FFF00
007FFF00
007DFF00
00F8FF00
01F0FF00
01E0FF00
03EFFF00
07FFFF00
07FFFF80
0FFFFF80
1FE1FF80
1FC1FF80
3F81FFC0
7F81FFC0
7F01FFC0
FF01FFC0
FC008000
ENDCHAR
STARTCHAR 00E2
ENCODING 226
SWIDTH 630 0
DWIDTH 28 0
BBX 28 39 1 -1
BITMAP
00000F00
00003F80
00007FC0
0001FFE0
0003FBF0
0003E1E0
00000000
00000000
00001C00
00003E00
00007E00
0000FE00
0000FE00
0001FE00
0001FE00
0003FE00
0003FE00
0007FE00
000FFE00
000FFE00
001FFE00
003FFF00
003FFF00
007FFF00
007DFF00
00F8FF00
01F0FF00
01E0FF00
03EFFF00
07FFFF00
07FFFF80
0FFFFF80
1FE1FF80
1FC1FF80
3F81FFC0
7F81FFC0
7F01FFC0
FF01FFC0
FC008000
ENDCHAR
STARTCHAR 00E3
ENCODING 227
SWIDTH 630 0
DWIDTH 28 0
BBX 29 39 1 -1
BITMAP
000038F8
0000FCF0
0001FFF0
0001FFF0
0001FFE0
0001CFC0
0003C000
00000000
00001C00
00003E00
00007E00
0000FE00
0000FE00
0001FE00
0001FE00
0003FE00
0003FE00
0007FE00
000FFE00
000FFE00
001FFE00
003FFF00
003FFF00
007FFF00
007DFF00
00F8FF00
01F0FF00
01E0FF00
03EFFF00
07FFFF00
07FFFF80
0FFFFF80
1FE1FF80
1FC1FF80
3F81FFC0
7F81FFC0
7F01FFC0
FF01FFC0
FC008000
ENDCHAR
STARTCHAR 00E4
ENCODING 228
SWIDTH 630 0
DWIDTH 28 0
BBX 28 37 1 -1
BITMAP
000060E0
0000F1F0
0001F1E0
0001F1E0
0000E080
00000000
00001C00
00003E00
00007E00
0000FE00
0000FE00
0001FE00
0001FE00
0003FE00
0003FE00
0007FE00
000FFE00
000FFE00
001FFE00
003FFF00
003FFF00
007FFF00
007DFF00
00F8FF00
01F0FF00
01E0FF00
03EFFF00
07FFFF00
07FFFF80
0FFFFF80
1FE1FF80
1FC1FF80
3F81FFC0
7F81FFC0
7F01FFC0
FF01FFC0
FC008000
ENDCHAR
STARTCHAR 00E5
ENCODING 229
SWIDTH 630 0
DWIDTH 28 0
BBX 27 39 1 -1
BITMAP
00003F80
0000FFC0
0001FFE0
0001E1E0
0003E1E0
0003C1E0
0003C3E0
0003E3C0
0003FF80
0001FF00
0000FE00
0000FE00
0000FE00
0001FE00
0001FE00
0003FE00
0003FE00
0007FE00
000FFE00
000FFE00
001FFE00
003FFF00
003FFF00
007FFF00
007DFF00
00F8FF00
01F0FF00
01E0FF00
03EFFF00
07FFFF00
07FFFF80
0FFFFF80
1FE1FF80
1FC1FF80
3F81FFC0
7F81FFC0
7F01FFC0
FF01FFC0
FC008000
ENDCHAR
STARTCHAR 00E6
ENCODING 230
SWIDTH 720 0
DWIDTH 32 0
BBX 33 32 1 -1
BITMAP
000001F800
00003FFF80
00003FFF80
00007FFF00
0000FFFF00
0000FFFE00
0001FFFE00
0001FFFE00
0003FFFE00
0007FFFC00
0007FF0000
000FFF0000
000FFF0000
001FFFF800
003FFFF800
003FFFF800
007FFFF800
00F9FFD000
00F0FF0000
01F0FF0300
03E0FFFF00
03FFFFFF00
07FFFFFF00
0FFFFFFF00
0FFFFFFF00
1FE1FFFF00
1FC1FFFF00
3F81FFFF00
7F81FFF800
7F01FF8000
FF01F80000
E000000000
ENDCHAR
STARTCHAR 00E7
ENCODING 231
SWIDTH 472 0
DWIDTH 21 0
BBX 24 37 3 -7
BITMAP
0007F0
003FFC
00FFFE
01FFFF
07FFFF
07FFFE
0FFFFE
1FFFFC
1FFF10
3FF800
3FF000
3FE000
3FC000
7FC000
7FC000
7FC000
7FE030
FFFFF0
FFFFF0
FFFFF0
7FFFF0
7FFFF0
7FFFE0
7FFFE0
7FFFE0
3FFFC0
3FFF80
3FFF00
07FC00
07E000
07C000
07E000
03F000
01F800
FFF000
FFF000
7FE000
ENDCHAR
STARTCHAR 00E8
ENCODING 232
SWIDTH 495 0
DWIDTH 22 0
BBX 17 39 6 0
BITMAP
038000
1F8000
1FC000
0FC000
07E000
03E000
03E000
000000
07FE00
3FFF80
7FFF80
7FFF00
7FFF00
7FFE00
7FFE00
7FFE00
7FFE00
7FC000
7F0000
7F0000
7F0800
7FF800
7FF800
7FF800
7FF800
7F8000
7F0000
7F0300
7FFF00
7FFF00
FFFF00
FFFF00
FFFF00
FFFF00
FFFF00
FFFF00
FFF800
FF8000
F00000
ENDCHAR
STARTCHAR 00E9
ENCODING 233
SWIDTH 495 0
DWIDTH 22 0
BBX 17 39 6 0
BITMAP
003F00
003E00
007C00
00F800
01F800
01F000
01E000
000000
07FE00
3FFF80
7FFF80
7FFF00
7FFF00
7FFE00
7FFE00
7FFE00
7FFE00
7FC000
7F0000
7F0000
7F0800
7FF800
7FF800
7FF800
7FF800
7F8000
7F0000
7F0300
7FFF00
7FFF00
FFFF00
FFFF00
FFFF00
FFFF00
FFFF00
FFFF00
FFF800
FF8000
F00000
ENDCHAR
STARTCHAR 00EA
ENCODING 234
SWIDTH 495 0
DWIDTH 22 0
BBX 17 39 6 0
BITMAP
00E000
03F000
07FC00
0FFE00
1FFE00
3F3E00
3C0800
000000
07FE00
3FFF80
7FFF80
7FFF00
7FFF00
7FFE00
7FFE00
7FFE00
7FFE00
7FC000
7F0000
7F0000
7F0800
7FF800
7FF800
7FF800
7FF800
7F8000
7F0000
7F0300
7FFF00
7FFF00
FFFF00
FFFF00
FFFF00
FFFF00
FFFF00
FFFF00
FFF800
FF8000
F00000
ENDCHAR
STARTCHAR 00EB
ENCODING 235
SWIDTH 495 0
DWIDTH 22 0
BBX 17 37 6 0
BITMAP
001C00
0E3E00
1E3E00
3E3C00
3E1800
1C0000
07FE00
3FFF80
7FFF80
7FFF00
7FFF00
7FFE00
7FFE00
7FFE00
7FFE00
7FC000
7F0000
7F0000
7F0800
7FF800
7FF800
7FF800
7FF800
7F8000
7F0000
7F0300
7FFF00
7FFF00
FFFF00
FFFF00
FFFF00
FFFF00
FFFF00
FFFF00
FFF800
FF8000
F00000
ENDCHAR
STARTCHAR 00EC
ENCODING 236
SWIDTH 315 0
DWIDTH 14 0
BBX 19 38 1 0
BITMAP
003F00
003F80
001F80
000F80
000FC0
0007C0
000000
000000
003FC0
007FE0
007FE0
007FC0
00FFC0
00FF80
00FF80
01FF80
01FF00
01FF00
03FF00
03FF00
03FE00
03FE00
07FE00
07FE00
07FC00
0FFC00
0FFC00
0FFC00
0FFC00
1FF800
1FF800
1FF800
1FF000
3FF000
3FE000
7FE000
7FC000
F80000
ENDCHAR
STARTCHAR 00ED
ENCODING 237
SWIDTH 315 0
DWIDTH 14 0
BBX 23 38 1 0
BITMAP
00007E
0000FC
0001F8
0001F0
0003E0
0007C0
000080
000000
003FC0
007FE0
007FE0
007FC0
00FFC0
00FF80
00FF80
01FF80
01FF00
01FF00
03FF00
03FF00
03FE00
03FE00
07FE00
07FE00
07FC00
0FFC00
0FFC00
0FFC00
0FFC00
1FF800
1FF800
1FF800
1FF000
3FF000
3FE000
7FE000
7FC000
F80000
ENDCHAR
STARTCHAR 00EE
ENCODING 238
SWIDTH 315 0
DWIDTH 14 0
BBX 22 38 1 0
BITMAP
0003E0
0007F0
001FF8
003FFC
007EFC
007C7C
000020
000000
003FC0
007FE0
007FE0
007FC0
00FFC0
00FF80
00FF80
01FF80
01FF00
01FF00
03FF00
03FF00
03FE00
03FE00
07FE00
07FE00
07FC00
0FFC00
0FFC00
0FFC00
0FFC00
1FF800
1FF800
1FF800
1FF000
3FF000
3FE000
7FE000
7FC000
F80000
ENDCHAR
STARTCHAR 00EF
ENCODING 239
SWIDTH 315 0
DWIDTH 14 0
BBX 22 36 1 0
BITMAP
001C38
003C7C
007C7C
007C78
003830
000000
003FC0
007FE0
007FE0
007FC0
00FFC0
00FF80
00FF80
01FF80
01FF00
01FF00
03FF00
03FF00
03FE00
03FE00
07FE00
07FE00
07FC00
0FFC00
0FFC00
0FFC00
0FFC00
1FF800
1FF800
1FF800
1FF000
3FF000
3FE000
7FE000
7FC000
F80000
ENDCHAR
STARTCHAR 00F0
ENCODING 240
SWIDTH 472 0
DWIDTH 21 0
BBX 22 30 3 0
BITMAP
01FE00
07FF80
07FFE0
07FFF0
0FFFF0
0FFFF8
0FFFF8
0FFFFC
0FF1FC
0FF0FC
0FFC7C
7FFCFC
7FFCFC
7FFCFC
7FFDF8
FFE3F8
FFE7F0
1FEFE0
1FFFE0
1FFFC0
1FFF80
1FFF00
1FFF00
1FFE00
1FFC00
1FF800
1FE000
1F8000
1E0000
180000
ENDCHAR
STARTCHAR 00F1
ENCODING 241
SWIDTH 562 0
DWIDTH 25 0
BBX 29 38 1 0
BITMAP
000070F0
0000F9F0
0001FFE0
0003FFE0
0003FFC0
0003DF80
00038000
00000000
00180060
007F83F8
00FFC7F8
00FF8FF8
00FF8FF8
01FF8FF0
01FF8FF0
03FF9FF0
03FF9FE0
03FF9FE0
07FF9FE0
07FF9FC0
07FFBFC0
0FFFBFC0
0FFFBF80
0FFFBF80
0FFFFF80
1FFFFF80
1FFFFF00
1FF7FF00
3FE7FF00
3FE7FF00
3FE7FE00
3FC7FE00
7FC7FE00
7FC7FC00
7FC7FC00
FF87FC00
FF87F800
F0000000
ENDCHAR
STARTCHAR 00F2
ENCODING 242
SWIDTH 517 0
DWIDTH 23 0
BBX 22 38 4 0
BITMAP
07E000
07F000
03F000
01F000
01F800
00F800
000000
003C00
007E00
00FF80
01FFC0
03FFE0
07FFF0
07FFF0
0FFFF8
1FFFF8
1FFFFC
3FFFFC
3FFFFC
7FC3FC
7F83FC
FF83FC
FF03FC
FF03FC
FF07FC
FF8FFC
FFDFF8
FFFFF8
FFFFF8
FFFFF0
FFFFF0
FFFFE0
FFFFE0
FFFFC0
7FFFC0
3FFF80
1FFE00
07F800
ENDCHAR
STARTCHAR 00F3
ENCODING 243
SWIDTH 517 0
DWIDTH 23 0
BBX 22 38 4 0
BITMAP
0003F0
0007E0
000FC0
001F80
001F00
003E00
000400
003C00
007E00
00FF80
01FFC0
03FFE0
07FFF0
07FFF0
0FFFF8
1FFFF8
1FFFFC
3FFFFC
3FFFFC
7FC3FC
7F83FC
FF83FC
FF03FC
FF03FC
FF07FC
FF8FFC
FFDFF8
FFFFF8
FFFFF8
FFFFF0
FFFFF0
FFFFE0
FFFFE0
FFFFC0
7FFFC0
3FFF80
1FFE00
07F800
ENDCHAR
STARTCHAR 00F4
ENCODING 244
SWIDTH 517 0
DWIDTH 23 0
BBX 22 39 4 0
BITMAP
000800
003E00
007F00
01FF80
03FFC0
07EFC0
0783C0
000000
003C00
007E00
00FF80
01FFC0
03FFE0
07FFF0
07FFF0
0FFFF8
1FFFF8
1FFFFC
3FFFFC
3FFFFC
7FC3FC
7F83FC
FF83FC
FF03FC
FF03FC
FF07FC
FF8FFC
FFDFF8
FFFFF8
FFFFF8
FFFFF0
FFFFF0
FFFFE0
FFFFE0
FFFFC0
7FFFC0
3FFF80
1FFE00
07F800
ENDCHAR
STARTCHAR 00F5
ENCODING 245
SWIDTH 517 0
DWIDTH 23 0
BBX 22 39 4 0
BITMAP
0000E0
00E3E0
01FBC0
03FFC0
07FFC0
07FF80
079E00
070000
003C00
007E00
00FF80
01FFC0
03FFE0
07FFF0
07FFF0
0FFFF8
1FFFF8
1FFFFC
3FFFFC
3FFFFC
7FC3FC
7F83FC
FF83FC
FF03FC
FF03FC
FF07FC
FF8FFC
FFDFF8
FFFFF8
FFFFF8
FFFFF0
FFFFF0
FFFFE0
FFFFE0
FFFFC0
7FFFC0
3FFF80
1FFE00
07F800
ENDCHAR
STARTCHAR 00F6
ENCODING 246
SWIDTH 517 0
DWIDTH 23 0
BBX 22 36 4 0
BITMAP
01C380
03C7C0
03C7C0
07C780
038300
003C00
007E00
00FF80
01FFC0
03FFE0
07FFF0
07FFF0
0FFFF8
1FFFF8
1FFFFC
3FFFFC
3FFFFC
7FC3FC
7F83FC
FF83FC
FF03FC
FF03FC
FF07FC
FF8FFC
FFDFF8
FFFFF8
FFFFF8
FFFFF0
FFFFF0
FFFFE0
FFFFE0
FFFFC0
7FFFC0
3FFF80
1FFE00
07F800
ENDCHAR
STARTCHAR 00F7
ENCODING 247
SWIDTH 472 0
DWIDTH 21 0
BBX 20 23 4 4
BITMAP
003E00
007F00
00FE00
00FE00
00FE00
00FC00
003800
000000
7FFFF0
7FFFF0
FFFFF0
FFFFF0
FFFFF0
FFFF60
000000
000000
01E000
03F000
07F000
07F000
0FE000
0FE000
07C000
ENDCHAR
STARTCHAR 00F8
ENCODING 248
SWIDTH 517 0
DWIDTH 23 0
BBX 30 32 0 -1
BITMAP
00000080
0003C1FC
0007E3FC
000FFBF8
001FFFF0
003FFFE0
007FFFE0
007FFFC0
00FFFF80
01FFFF80
01FFFFC0
03FFFFC0
03FFFFC0
07F3FFC0
07E7FFC0
0FEFFFC0
0FCFDFC0
0FDF9FC0
0FFF3FC0
0FFE3FC0
0FFE7F80
0FFFFF80
0FFFFF80
0FFFFF00
0FFFFF00
0FFFFE00
0FFFFE00
1FFFFC00
3FFFFC00
7FFFF800
FDFFE000
B87F8000
ENDCHAR
STARTCHAR 00F9
ENCODING 249
SWIDTH 540 0
DWIDTH 24 0
BBX 27 37 3 1
BITMAP
001F8000
000FC000
000FC000
0007E000
0003E000
0003E000
00010000
01000000
01F80FC0
03F81FE0
03F81FC0
07F01FC0
07F01FC0
0FF01FC0
0FE01F80
0FE03F80
1FE03F80
1FC03F80
3FC07F00
3FC07F00
3FC07F00
7FC0FF00
7FC0FF00
7FC1FF00
7FE1FE00
7FFFFE00
7FFFFC00
FFFFFC00
FFFFF800
7FFFF800
7FFFF000
7FFFE000
7FFFC000
3FFF8000
3FFF0000
1FFE0000
07FC0000
ENDCHAR
STARTCHAR 00FA
ENCODING 250
SWIDTH 540 0
DWIDTH 24 0
BBX 27 37 3 1
BITMAP
00000FC0
00001F80
00003F00
00007E00
0000FC00
0000F000
00000000
01000000
01F80FC0
03F81FE0
03F81FC0
07F01FC0
07F01FC0
0FF01FC0
0FE01F80
0FE03F80
1FE03F80
1FC03F80
3FC07F00
3FC07F00
3FC07F00
7FC0FF00
7FC0FF00
7FC1FF00
7FE1FE00
7FFFFE00
7FFFFC00
FFFFFC00
FFFFF800
7FFFF800
7FFFF000
7FFFE000
7FFFC000
3FFF8000
3FFF0000
1FFE0000
07FC0000
ENDCHAR
STARTCHAR 00FB
ENCODING 251
SWIDTH 540 0
DWIDTH 24 0
BBX 27 37 3 1
BITMAP
00007800
0001FC00
0007FE00
000FFF00
001FDF00
001F0F00
00000000
01000000
01F80FC0
03F81FE0
03F81FC0
07F01FC0
07F01FC0
0FF01FC0
0FE01F80
0FE03F80
1FE03F80
1FC03F80
3FC07F00
3FC07F00
3FC07F00
7FC0FF00
7FC0FF00
7FC1FF00
7FE1FE00
7FFFFE00
7FFFFC00
FFFFFC00
FFFFF800
7FFFF800
7FFFF000
7FFFE000
7FFFC000
3FFF8000
3FFF0000
1FFE0000
07FC0000
ENDCHAR
STARTCHAR 00FC
ENCODING 252
SWIDTH 540 0
DWIDTH 24 0
BBX 27 35 3 1
BITMAP
00070600
000F8F00
000F9F00
000F1F00
00060C00
01000000
01F80FC0
03F81FE0
03F81FC0
07F01FC0
07F01FC0
0FF01FC0
0FE01F80
0FE03F80
1FE03F80
1FC03F80
3FC07F00
3FC07F00
3FC07F00
7FC0FF00
7FC0FF00
7FC1FF00
7FE1FE00
7FFFFE00
7FFFFC00
FFFFFC00
FFFFF800
7FFFF800
7FFFF000
7FFFE000
7FFFC000
3FFF8000
3FFF0000
1FFE0000
07FC0000
ENDCHAR
STARTCHAR 00FD
ENCODING 253
SWIDTH 607 0
DWIDTH 27 0
BBX 27 38 6 0
BITMAP
00007E00
0000FC00
0001F800
0003F000
0003E000
0007C000
00008000
00000020
00001FE0
07001FC0
7F803F80
FF807F80
7F807F00
7FC0FE00
7FC1FE00
7FC1FC00
3FC3F800
3FC7F800
3FEFF000
1FEFE000
1FFFE000
1FFFC000
0FFF8000
0FFF0000
0FFF0000
0FFE0000
07FC0000
07FC0000
07F80000
03F80000
03F80000
03F80000
07F00000
07F00000
07F00000
07F00000
07F00000
07C00000
ENDCHAR
STARTCHAR 00FE
ENCODING 254
SWIDTH 495 0
DWIDTH 22 0
BBX 22 31 2 0
BITMAP
03E000
07F800
07F800
07F800
0FF400
0FFFC0
0FFFF0
0FFFF8
0FFFF8
0FFFFC
0FFFFC
1FE1FC
1FE0FC
1FE07C
1FE0FC
1FE0FC
1FC0FC
1FC1FC
3FC3FC
3FC7FC
3FFFFC
3FFFF8
3FFFF0
7FFFE0
7FFF80
7FC000
7FC000
7FC000
7F8000
FF8000
7F8000
ENDCHAR
STARTCHAR 00FF
ENCODING 255
SWIDTH 607 0
DWIDTH 27 0
BBX 27 36 6 0
BITMAP
00387800
007C7800
007CF800
0078F000
00302000
00000020
00001FE0
07001FC0
7F803F80
FF807F80
7F807F00
7FC0FE00
7FC1FE00
7FC1FC00
3FC3F800
3FC7F800
3FEFF000
1FEFE000
1FFFE000
1FFFC000
0FFF8000
0FFF0000
0FFF0000
0FFE0000
07FC0000
07FC0000
07F80000
03F80000
03F80000
03F80000
07F00000
07F00000
07F00000
07F00000
07F00000
07C00000
ENDCHAR
STARTCHAR 0100
ENCODING 256
SWIDTH 630 0
DWIDTH 28 0
BBX 28 37 1 -1
BITMAP
0000FFF0
0001FFF0
0001FFF0
0001FFF0
00000000
00000000
00001C00
00003E00
00007E00
0000FE00
0000FE00
0001FE00
0001FE00
0003FE00
0003FE00
0007FE00
000FFE00
000FFE00
001FFE00
003FFF00
003FFF00
007FFF00
007DFF00
00F8FF00
01F0FF00
01E0FF00
03EFFF00
07FFFF00
07FFFF80
0FFFFF80
1FE1FF80
1FC1FF80
3F81FFC0
7F81FFC0
7F01FFC0
FF01FFC0
FC008000
ENDCHAR
STARTCHAR 0101
ENCODING 257
SWIDTH 630 0
DWIDTH 28 0
BBX 28 37 1 -1
BITMAP
0000FFF0
0001FFF0
0001FFF0
0001FFF0
00000000
00000000
00001C00
00003E00
00007E00
0000FE00
0000FE00
0001FE00
0001FE00
0003FE00
0003FE00
0007FE00
000FFE00
000FFE00
001FFE00
003FFF00
003FFF00
007FFF00
007DFF00
00F8FF00
01F0FF00
01E0FF00
03EFFF00
07FFFF00
07FFFF80
0FFFFF80
1FE1FF80
1FC1FF80
3F81FFC0
7F81FFC0
7F01FFC0
FF01FFC0
FC008000
ENDCHAR
STARTCHAR 0102
ENCODING 258
SWIDTH 630 0
DWIDTH 28 0
BBX 28 39 1 -1
BITMAP
0001E0F0
0001E1F0
0001FFE0
0001FFE0
0000FF80
00007F00
00001800
00000000
00001C00
00003E00
00007E00
0000FE00
0000FE00
0001FE00
0001FE00
0003FE00
0003FE00
0007FE00
000FFE00
000FFE00
001FFE00
003FFF00
003FFF00
007FFF00
007DFF00
00F8FF00
01F0FF00
01E0FF00
03EFFF00
07FFFF00
07FFFF80
0FFFFF80
1FE1FF80
1FC1FF80
3F81FFC0
7F81FFC0
7F01FFC0
FF01FFC0
FC008000
ENDCHAR
STARTCHAR 0103
ENCODING 259
SWIDTH 630 0
DWIDTH 28 0
BBX 28 39 1 -1
BITMAP
0001E0F0
0001E1F0
0001FFE0
0001FFE0
0000FF80
00007F00
00001800
00000000
00001C00
00003E00
00007E00
0000FE00
0000FE00
0001FE00
0001FE00
0003FE00
0003FE00
0007FE00
000FFE00
000FFE00
001FFE00
003FFF00
003FFF00
007FFF00
007DFF00
00F8FF00
01F0FF00
01E0FF00
03EFFF00
07FFFF00
07FFFF80
0FFFFF80
1FE1FF80
1FC1FF80
3F81FFC0
7F81FFC0
7F01FFC0
FF01FFC0
FC008000
ENDCHAR
STARTCHAR 0104
ENCODING 260
SWIDTH 630 0
DWIDTH 28 0
BBX 26 37 1 -7
BITMAP
00001C00
00003E00
00007E00
0000FE00
0000FE00
0001FE00
0001FE00
0003FE00
0003FE00
0007FE00
000FFE00
000FFE00
001FFE00
003FFF00
003FFF00
007FFF00
007DFF00
00F8FF00
01F0FF00
01E0FF00
03EFFF00
07FFFF00
07FFFF80
0FFFFF80
1FE1FF80
1FC1FF80
3F81FFC0
7F81FFC0
7F01FFC0
FF01FFC0
FC03C000
00078000
00078000
000F8300
000FFF00
000FFE00
0007FE00
ENDCHAR
STARTCHAR 0105
ENCODING 261
SWIDTH 630 0
DWIDTH 28 0
BBX 26 37 1 -7
BITMAP
00001C00
00003E00
00007E00
0000FE00
0000FE00
0001FE00
0001FE00
0003FE00
0003FE00
0007FE00
000FFE00
000FFE00
001FFE00
003FFF00
003FFF00
007FFF00
007DFF00
00F8FF00
01F0FF00
01E0FF00
03EFFF00
07FFFF00
07FFFF80
0FFFFF80
1FE1FF80
1FC1FF80
3F81FFC0
7F81FFC0
7F01FFC0
FF01FFC0
FC03C000
00078000
00078000
000F8300
000FFF00
000FFE00
0007FE00
ENDCHAR
STARTCHAR 0106
ENCODING 262
SWIDTH 472 0
DWIDTH 21 0
BBX 26 38 3 0
BITMAP
00001FC0
00001F80
00003F00
00007C00
0000F800
0000F000
00000000
00000000
0007F000
003FFC00
00FFFE00
01FFFF00
07FFFF00
07FFFE00
0FFFFE00
1FFFFC00
1FFF1000
3FF80000
3FF00000
3FE00000
3FC00000
7FC00000
7FC00000
7FC00000
7FE03000
FFFFF000
FFFFF000
FFFFF000
7FFFF000
7FFFE000
7FFFE000
7FFFE000
7FFFE000
3FFFC000
3FFF8000
3FFF0000
07FC0000
00200000
ENDCHAR
STARTCHAR 0107
ENCODING 263
SWIDTH 472 0
DWIDTH 21 0
BBX 26 38 3 0
BITMAP
00001FC0
00001F80
00003F00
00007C00
0000F800
0000F000
00000000
00000000
0007F000
003FFC00
00FFFE00
01FFFF00
07FFFF00
07FFFE00
0FFFFE00
1FFFFC00
1FFF1000
3FF80000
3FF00000
3FE00000
3FC00000
7FC00000
7FC00000
7FC00000
7FE03000
FFFFF000
FFFFF000
FFFFF000
7FFFF000
7FFFE000
7FFFE000
7FFFE000
7FFFE000
3FFFC000
3FFF8000
3FFF0000
07FC0000
00200000
ENDCHAR
STARTCHAR 0108
ENCODING 264
SWIDTH 472 0
DWIDTH 21 0
BBX 24 38 3 0
BITMAP
0000F0
0003FC
0007FE
000FFE
001FBF
001F1F
000008
000000
0007F0
003FFC
00FFFE
01FFFF
07FFFF
07FFFE
0FFFFE
1FFFFC
1FFF10
3FF800
3FF000
3FE000
3FC000
7FC000
7FC000
7FC000
7FE030
FFFFF0
FFFFF0
FFFFF0
7FFFF0
7FFFE0
7FFFE0
7FFFE0
7FFFE0
3FFFC0
3FFF80
3FFF00
07FC00
002000
ENDCHAR
STARTCHAR 0109
ENCODING 265
SWIDTH 472 0
DWIDTH 21 0
BBX 24 38 3 0
BITMAP
0000F0
0003FC
0007FE
000FFE
001FBF
001F1F
000008
000000
0007F0
003FFC
00FFFE
01FFFF
07FFFF
07FFFE
0FFFFE
1FFFFC
1FFF10
3FF800
3FF000
3FE000
3FC000
7FC000
7FC000
7FC000
7FE030
FFFFF0
FFFFF0
FFFFF0
7FFFF0
7FFFE0
7FFFE0
7FFFE0
7FFFE0
3FFFC0
3FFF80
3FFF00
07FC00
002000
ENDCHAR
STARTCHAR 010A
ENCODING 266
SWIDTH 472 0
DWIDTH 21 0
BBX 24 36 3 0
BITMAP
0000E0
0001E0
0001E0
0003E0
0001C0
000000
0007F0
003FFC
00FFFE
01FFFF
07FFFF
07FFFE
0FFFFE
1FFFFC
1FFF10
3FF800
3FF000
3FE000
3FC000
7FC000
7FC000
7FC000
7FE030
FFFFF0
FFFFF0
FFFFF0
7FFFF0
7FFFE0
7FFFE0
7FFFE0
7FFFE0
3FFFC0
3FFF80
3FFF00
07FC00
002000
ENDCHAR
STARTCHAR 010B
ENCODING 267
SWIDTH 472 0
DWIDTH 21 0
BBX 24 36 3 0
BITMAP
0000E0
0001E0
0001E0
0003E0
0001C0
000000
0007F0
003FFC
00FFFE
01FFFF
07FFFF
07FFFE
0FFFFE
1FFFFC
1FFF10
3FF800
3FF000
3FE000
3FC000
7FC000
7FC000
7FC000
7FE030
FFFFF0
FFFFF0
FFFFF0
7FFFF0
7FFFE0
7FFFE0
7FFFE0
7FFFE0
3FFFC0
3FFF80
3FFF00
07FC00
002000
ENDCHAR
STARTCHAR 010C
ENCODING 268
SWIDTH 472 0
DWIDTH 21 0
BBX 25 38 3 0
BITMAP
000F0F80
001F9F80
000FFF00
0007FE00
0003F800
0001F000
00008000
00000000
0007F000
003FFC00
00FFFE00
01FFFF00
07FFFF00
07FFFE00
0FFFFE00
1FFFFC00
1FFF1000
3FF80000
3FF00000
3FE00000
3FC00000
7FC00000
7FC00000
7FC00000
7FE03000
FFFFF000
FFFFF000
FFFFF000
7FFFF000
7FFFE000
7FFFE000
7FFFE000
7FFFE000
3FFFC000
3FFF8000
3FFF0000
07FC0000
00200000
ENDCHAR
STARTCHAR 010D
ENCODING 269
SWIDTH 472 0
DWIDTH 21 0
BBX 25 38 3 0
BITMAP
000F0F80
001F9F80
000FFF00
0007FE00
0003F800
0001F000
00008000
00000000
0007F000
003FFC00
00FFFE00
01FFFF00
07FFFF00
07FFFE00
0FFFFE00
1FFFFC00
1FFF1000
3FF80000
3FF00000
3FE00000
3FC00000
7FC00000
7FC00000
7FC00000
7FE03000
FFFFF000
FFFFF000
FFFFF000
7FFFF000
7FFFE000
7FFFE000
7FFFE000
7FFFE000
3FFFC000
3FFF8000
3FFF0000
07FC0000
00200000
ENDCHAR
STARTCHAR 010E
ENCODING 270
SWIDTH 450 0
DWIDTH 20 0
BBX 19 39 5 0
BITMAP
000780
0F0F80
1FBF00
0FFE00
07FC00
03F800
01E000
000000
000000
1FF000
3FFC00
3FFE00
7FFF00
7FFF80
7FFF80
7FFFC0
7FFFC0
FF8FC0
FF07E0
FF07E0
FF07E0
FF07E0
FF0FC0
FF0FC0
FE1F80
FE3F80
FEFF00
FFFE00
FFFE00
FFFC00
FFF800
FFF000
FFE000
FFC000
FF8000
FF0000
FC0000
F00000
800000
ENDCHAR
STARTCHAR 010F
ENCODING 271
SWIDTH 450 0
DWIDTH 20 0
BBX 19 39 5 0
BITMAP
000780
0F0F80
1FBF00
0FFE00
07FC00
03F800
01E000
000000
000000
1FF000
3FFC00
3FFE00
7FFF00
7FFF80
7FFF80
7FFFC0
7FFFC0
FF8FC0
FF07E0
FF07E0
FF07E0
FF07E0
FF0FC0
FF0FC0
FE1F80
FE3F80
FEFF00
FFFE00
FFFE00
FFFC00
FFF800
FFF000
FFE000
FFC000
FF8000
FF0000
FC0000
F00000
800000
ENDCHAR
STARTCHAR 0110
ENCODING 272
SWIDTH 472 0
DWIDTH 21 0
BBX 22 30 3 0
BITMAP
01FE00
07FF80
07FFE0
07FFF0
0FFFF0
0FFFF8
0FFFF8
0FFFFC
0FF1FC
0FF0FC
0FFC7C
7FFCFC
7FFCFC
7FFCFC
7FFDF8
FFE3F8
FFE7F0
1FEFE0
1FFFE0
1FFFC0
1FFF80
1FFF00
1FFF00
1FFE00
1FFC00
1FF800
1FE000
1F8000
1E0000
180000
ENDCHAR
STARTCHAR 0111
ENCODING 273
SWIDTH 472 0
DWIDTH 21 0
BBX 22 30 3 0
BITMAP
01FE00
07FF80
07FFE0
07FFF0
0FFFF0
0FFFF8
0FFFF8
0FFFFC
0FF1FC
0FF0FC
0FFC7C
7FFCFC
7FFCFC
7FFCFC
7FFDF8
FFE3F8
FFE7F0
1FEFE0
1FFFE0
1FFFC0
1FFF80
1FFF00
1FFF00
1FFE00
1FFC00
1FF800
1FE000
1F8000
1E0000
180000
ENDCHAR
STARTCHAR 0112
ENCODING 274
SWIDTH 495 0
DWIDTH 22 0
BBX 17 36 6 0
BITMAP
07FE00
3FFE00
3FFE00
3FE000
300000
07FE00
3FFF80
7FFF80
7FFF00
7FFF00
7FFE00
7FFE00
7FFE00
7FFE00
7FC000
7F0000
7F0000
7F0800
7FF800
7FF800
7FF800
7FF800
7F8000
7F0000
7F0300
7FFF00
7FFF00
FFFF00
FFFF00
FFFF00
FFFF00
FFFF00
FFFF00
FFF800
FF8000
F00000
ENDCHAR
STARTCHAR 0113
ENCODING 275
SWIDTH 495 0
DWIDTH 22 0
BBX 17 36 6 0
BITMAP
07FE00
3FFE00
3FFE00
3FE000
300000
07FE00
3FFF80
7FFF80
7FFF00
7FFF00
7FFE00
7FFE00
7FFE00
7FFE00
7FC000
7F0000
7F0000
7F0800
7FF800
7FF800
7FF800
7FF800
7F8000
7F0000
7F0300
7FFF00
7FFF00
FFFF00
FFFF00
FFFF00
FFFF00
FFFF00
FFFF00
FFF800
FF8000
F00000
ENDCHAR
STARTCHAR 0114
ENCODING 276
SWIDTH 495 0
DWIDTH 22 0
BBX 17 39 6 0
BITMAP
000F00
1C0F00
1E3E00
1FFE00
1FFC00
0FF800
07E000
000000
07FE00
3FFF80
7FFF80
7FFF00
7FFF00
7FFE00
7FFE00
7FFE00
7FFE00
7FC000
7F0000
7F0000
7F0800
7FF800
7FF800
7FF800
7FF800
7F8000
7F0000
7F0300
7FFF00
7FFF00
FFFF00
FFFF00
FFFF00
FFFF00
FFFF00
FFFF00
FFF800
FF8000
F00000
ENDCHAR
STARTCHAR 0115
ENCODING 277
SWIDTH 495 0
DWIDTH 22 0
BBX 17 39 6 0
BITMAP
000F00
1C0F00
1E3E00
1FFE00
1FFC00
0FF800
07E000
000000
07FE00
3FFF80
7FFF80
7FFF00
7FFF00
7FFE00
7FFE00
7FFE00
7FFE00
7FC000
7F0000
7F0000
7F0800
7FF800
7FF800
7FF800
7FF800
7F8000
7F0000
7F0300
7FFF00
7FFF00
FFFF00
FFFF00
FFFF00
FFFF00
FFFF00
FFFF00
FFF800
FF8000
F00000
ENDCHAR
STARTCHAR 0116
ENCODING 278
SWIDTH 495 0
DWIDTH 22 0
BBX 17 37 6 0
BITMAP
00C000
01E000
03E000
03E000
03C000
000000
07FE00
3FFF80
7FFF80
7FFF00
7FFF00
7FFE00
7FFE00
7FFE00
7FFE00
7FC000
7F0000
7F0000
7F0800
7FF800
7FF800
7FF800
7FF800
7F8000
7F0000
7F0300
7FFF00
7FFF00
FFFF00
FFFF00
FFFF00
FFFF00
FFFF00
FFFF00
FFF800
FF8000
F00000
ENDCHAR
STARTCHAR 0117
ENCODING 279
SWIDTH 495 0
DWIDTH 22 0
BBX 17 37 6 0
BITMAP
00C000
01E000
03E000
03E000
03C000
000000
07FE00
3FFF80
7FFF80
7FFF00
7FFF00
7FFE00
7FFE00
7FFE00
7FFE00
7FC000
7F0000
7F0000
7F0800
7FF800
7FF800
7FF800
7FF800
7F8000
7F0000
7F0300
7FFF00
7FFF00
FFFF00
FFFF00
FFFF00
FFFF00
FFFF00
FFFF00
FFF800
FF8000
F00000
ENDCHAR
STARTCHAR 0118
ENCODING 280
SWIDTH 495 0
DWIDTH 22 0
BBX 17 38 6 -7
BITMAP
07FE00
3FFF80
7FFF80
7FFF00
7FFF00
7FFE00
7FFE00
7FFE00
7FFE00
7FC000
7F0000
7F0000
7F0800
7FF800
7FF800
7FF800
7FF800
7F8000
7F0000
7F0300
7FFF00
7FFF00
FFFF00
FFFF00
FFFF00
FFFF00
FFFF00
FFFF00
FFF800
FF8000
F70000
0F0000
0F0000
1E0E00
1FFE00
1FFC00
1FFC00
030000
ENDCHAR
STARTCHAR 0119
ENCODING 281
SWIDTH 495 0
DWIDTH 22 0
BBX 17 38 6 -7
BITMAP
07FE00
3FFF80
7FFF80
7FFF00
7FFF00
7FFE00
7FFE00
7FFE00
7FFE00
7FC000
7F0000
7F0000
7F0800
7FF800
7FF800
7FF800
7FF800
7F8000
7F0000
7F0300
7FFF00
7FFF00
FFFF00
FFFF00
FFFF00
FFFF00
FFFF00
FFFF00
FFF800
FF8000
F70000
0F0000
0F0000
1E0E00
1FFE00
1FFC00
1FFC00
030000
ENDCHAR
STARTCHAR 011A
ENCODING 282
SWIDTH 495 0
DWIDTH 22 0
BBX 17 39 6 0
BITMAP
000F00
1E1F00
3F7E00
1FFC00
0FF800
07F000
03C000
000000
07FE00
3FFF80
7FFF80
7FFF00
7FFF00
7FFE00
7FFE00
7FFE00
7FFE00
7FC000
7F0000
7F0000
7F0800
7FF800
7FF800
7FF800
7FF800
7F8000
7F0000
7F0300
7FFF00
7FFF00
FFFF00
FFFF00
FFFF00
FFFF00
FFFF00
FFFF00
FFF800
FF8000
F00000
ENDCHAR
STARTCHAR 011B
ENCODING 283
SWIDTH 495 0
DWIDTH 22 0
BBX 17 39 6 0
BITMAP
000F00
1E1F00
3F7E00
1FFC00
0FF800
07F000
03C000
000000
07FE00
3FFF80
7FFF80
7FFF00
7FFF00
7FFE00
7FFE00
7FFE00
7FFE00
7FC000
7F0000
7F0000
7F0800
7FF800
7FF800
7FF800
7FF800
7F8000
7F0000
7F0300
7FFF00
7FFF00
FFFF00
FFFF00
FFFF00
FFFF00
FFFF00
FFFF00
FFF800
FF8000
F00000
ENDCHAR
STARTCHAR 011C
ENCODING 284
SWIDTH 495 0
DWIDTH 22 0
BBX 24 38 2 0
BITMAP
0000F0
0003F8
0007FC
000FFE
001FBF
001F1F
000008
000200
0007FC
001FFE
003FFF
007FFF
00FFFF
00FFFF
01FF3E
03F800
03F000
07E000
07E000
0FC000
0FC03E
1F83FE
1F87FE
1F87FE
3F07FC
3F07FC
7F07FC
7F87FC
7FDFF8
7FFFF8
FFFFF8
FFFFF8
FFFFE0
7FFFC0
7FFF00
3FFC00
1FE000
080000
ENDCHAR
STARTCHAR 011D
ENCODING 285
SWIDTH 495 0
DWIDTH 22 0
BBX 24 38 2 0
BITMAP
0000F0
0003F8
0007FC
000FFE
001FBF
001F1F
000008
000200
0007FC
001FFE
003FFF
007FFF
00FFFF
00FFFF
01FF3E
03F800
03F000
07E000
07E000
0FC000
0FC03E
1F83FE
1F87FE
1F87FE
3F07FC
3F07FC
7F07FC
7F87FC
7FDFF8
7FFFF8
FFFFF8
FFFFF8
FFFFE0
7FFFC0
7FFF00
3FFC00
1FE000
080000
ENDCHAR
STARTCHAR 011E
ENCODING 286
SWIDTH 495 0
DWIDTH 22 0
BBX 25 38 2 0
BITMAP
000E0780
000F0F00
000FFF00
000FFE00
000FFC00
0007F800
0001C000
00020000
0007FC00
001FFE00
003FFF00
007FFF00
00FFFF00
00FFFF00
01FF3E00
03F80000
03F00000
07E00000
07E00000
0FC00000
0FC03E00
1F83FE00
1F87FE00
1F87FE00
3F07FC00
3F07FC00
7F07FC00
7F87FC00
7FDFF800
7FFFF800
FFFFF800
FFFFF800
FFFFE000
7FFFC000
7FFF0000
3FFC0000
1FE00000
08000000
ENDCHAR
STARTCHAR 011F
ENCODING 287
SWIDTH 495 0
DWIDTH 22 0
BBX 25 38 2 0
BITMAP
000E0780
000F0F00
000FFF00
000FFE00
000FFC00
0007F800
0001C000
00020000
0007FC00
001FFE00
003FFF00
007FFF00
00FFFF00
00FFFF00
01FF3E00
03F80000
03F00000
07E00000
07E00000
0FC00000
0FC03E00
1F83FE00
1F87FE00
1F87FE00
3F07FC00
3F07FC00
7F07FC00
7F87FC00
7FDFF800
7FFFF800
FFFFF800
FFFFF800
FFFFE000
7FFFC000
7FFF0000
3FFC0000
1FE00000
08000000
ENDCHAR
STARTCHAR 0120
ENCODING 288
SWIDTH 495 0
DWIDTH 22 0
BBX 24 36 2 0
BITMAP
0000E0
0001E0
0003E0
0003E0
0001C0
000200
0007FC
001FFE
003FFF
007FFF
00FFFF
00FFFF
01FF3E
03F800
03F000
07E000
07E000
0FC000
0FC03E
1F83FE
1F87FE
1F87FE
3F07FC
3F07FC
7F07FC
7F87FC
7FDFF8
7FFFF8
FFFFF8
FFFFF8
FFFFE0
7FFFC0
7FFF00
3FFC00
1FE000
080000
ENDCHAR
STARTCHAR 0121
ENCODING 289
SWIDTH 495 0
DWIDTH 22 0
BBX 24 36 2 0
BITMAP
0000E0
0001E0
0003E0
0003E0
0001C0
000200
0007FC
001FFE
003FFF
007FFF
00FFFF
00FFFF
01FF3E
03F800
03F000
07E000
07E000
0FC000
0FC03E
1F83FE
1F87FE
1F87FE
3F07FC
3F07FC
7F07FC
7F87FC
7FDFF8
7FFFF8
FFFFF8
FFFFF8
FFFFE0
7FFFC0
7FFF00
3FFC00
1FE000
080000
ENDCHAR
STARTCHAR 0122
ENCODING 290
SWIDTH 495 0
DWIDTH 22 0
BBX 24 38 2 -7
BITMAP
000200
0007FC
001FFE
003FFF
007FFF
00FFFF
00FFFF
01FF3E
03F800
03F000
07E000
07E000
0FC000
0FC03E
1F83FE
1F87FE
1F87FE
3F07FC
3F07FC
7F07FC
7F87FC
7FDFF8
7FFFF8
FFFFF8
FFFFF8
FFFFE0
7FFFC0
7FFF00
3FFC00
1FE000
080000
000000
1F8000
1F8000
1F8000
3F0000
3E0000
3C0000
ENDCHAR
STARTCHAR 0123
ENCODING 291
SWIDTH 495 0
DWIDTH 22 0
BBX 24 38 2 -7
BITMAP
000200
0007FC
001FFE
003FFF
007FFF
00FFFF
00FFFF
01FF3E
03F800
03F000
07E000
07E000
0FC000
0FC03E
1F83FE
1F87FE
1F87FE
3F07FC
3F07FC
7F07FC
7F87FC
7FDFF8
7FFFF8
FFFFF8
FFFFF8
FFFFE0
7FFFC0
7FFF00
3FFC00
1FE000
080000
000000
1F8000
1F8000
1F8000
3F0000
3E0000
3C0000
ENDCHAR
STARTCHAR 0124
ENCODING 292
SWIDTH 562 0
DWIDTH 25 0
BBX 29 37 1 1
BITMAP
00000780
00001FC0
00007FE0
0000FFF0
0001FDF0
0001F0F0
00000000
00000000
000FC000
007FC3F8
00FF83F8
00FF87F8
00FF87F8
00FF87F0
00FF0FF0
01FF0FF0
01FF1FE0
01FF1FE0
03FF1FE0
03FFFFE0
03FFFFC0
07FFFFC0
07FFFFC0
07FFFF80
0FFFFFC0
0FFFFFC0
0FFFFF80
0FFFFF80
1FF8FF80
1FF0FF00
1FF1FF00
3FF1FF00
3FF1FE00
3FE3FE00
7FE1FE00
7FE3FC00
FFC3E000
ENDCHAR
STARTCHAR 0125
ENCODING 293
SWIDTH 562 0
DWIDTH 25 0
BBX 29 37 1 1
BITMAP
00000780
00001FC0
00007FE0
0000FFF0
0001FDF0
0001F0F0
00000000
00000000
000FC000
007FC3F8
00FF83F8
00FF87F8
00FF87F8
00FF87F0
00FF0FF0
01FF0FF0
01FF1FE0
01FF1FE0
03FF1FE0
03FFFFE0
03FFFFC0
07FFFFC0
07FFFFC0
07FFFF80
0FFFFFC0
0FFFFFC0
0FFFFF80
0FFFFF80
1FF8FF80
1FF0FF00
1FF1FF00
3FF1FF00
3FF1FE00
3FE3FE00
7FE1FE00
7FE3FC00
FFC3E000
ENDCHAR
STARTCHAR 0126
ENCODING 294
SWIDTH 585 0
DWIDTH 26 0
BBX 30 29 1 1
BITMAP
000FC000
007FC3F8
00FF83F8
03FFFFFC
07FFFFFC
07FFFFFC
07FFFFFC
07FFFFF8
0FFFFFF8
01FF1FE0
03FF1FE0
03FFFFE0
03FFFFC0
07FFFFC0
07FFFFC0
07FFFF80
0FFFFFC0
0FFFFFC0
0FFFFF80
1FFFFF80
1FF8FF80
1FF0FF00
1FF1FF00
3FF1FF00
3FF1FE00
3FE3FE00
7FE1FE00
7FE3FC00
FFC3E000
ENDCHAR
STARTCHAR 0127
ENCODING 295
SWIDTH 585 0
DWIDTH 26 0
BBX 30 29 1 1
BITMAP
000FC000
007FC3F8
00FF83F8
03FFFFFC
07FFFFFC
07FFFFFC
07FFFFFC
07FFFFF8
0FFFFFF8
01FF1FE0
03FF1FE0
03FFFFE0
03FFFFC0
07FFFFC0
07FFFFC0
07FFFF80
0FFFFFC0
0FFFFFC0
0FFFFF80
1FFFFF80
1FF8FF80
1FF0FF00
1FF1FF00
3FF1FF00
3FF1FE00
3FE3FE00
7FE1FE00
7FE3FC00
FFC3E000
ENDCHAR
STARTCHAR 0128
ENCODING 296
SWIDTH 315 0
DWIDTH 14 0
BBX 23 38 1 0
BITMAP
000E1E
001F3E
003FFE
007FFC
007FF8
007BF0
007000
000000
003FC0
007FE0
007FE0
007FC0
00FFC0
00FF80
00FF80
01FF80
01FF00
01FF00
03FF00
03FF00
03FE00
03FE00
07FE00
07FE00
07FC00
0FFC00
0FFC00
0FFC00
0FFC00
1FF800
1FF800
1FF800
1FF000
3FF000
3FE000
7FE000
7FC000
F80000
ENDCHAR
STARTCHAR 0129
ENCODING 297
SWIDTH 315 0
DWIDTH 14 0
BBX 23 38 1 0
BITMAP
000E1E
001F3E
003FFE
007FFC
007FF8
007BF0
007000
000000
003FC0
007FE0
007FE0
007FC0
00FFC0
00FF80
00FF80
01FF80
01FF00
01FF00
03FF00
03FF00
03FE00
03FE00
07FE00
07FE00
07FC00
0FFC00
0FFC00
0FFC00
0FFC00
1FF800
1FF800
1FF800
1FF000
3FF000
3FE000
7FE000
7FC000
F80000
ENDCHAR
STARTCHAR 012A
ENCODING 298
SWIDTH 315 0
DWIDTH 14 0
BBX 23 36 1 0
BITMAP
003FFE
007FFC
007FFC
007FFC
000000
000000
003FC0
007FE0
007FE0
007FC0
00FFC0
00FF80
00FF80
01FF80
01FF00
01FF00
03FF00
03FF00
03FE00
03FE00
07FE00
07FE00
07FC00
0FFC00
0FFC00
0FFC00
0FFC00
1FF800
1FF800
1FF800
1FF000
3FF000
3FE000
7FE000
7FC000
F80000
ENDCHAR
STARTCHAR 012B
ENCODING 299
SWIDTH 315 0
DWIDTH 14 0
BBX 23 36 1 0
BITMAP
003FFE
007FFC
007FFC
007FFC
000000
000000
003FC0
007FE0
007FE0
007FC0
00FFC0
00FF80
00FF80
01FF80
01FF00
01FF00
03FF00
03FF00
03FE00
03FE00
07FE00
07FE00
07FC00
0FFC00
0FFC00
0FFC00
0FFC00
1FF800
1FF800
1FF800
1FF000
3FF000
3FE000
7FE000
7FC000
F80000
ENDCHAR
STARTCHAR 012C
ENCODING 300
SWIDTH 315 0
DWIDTH 14 0
BBX 23 38 1 0
BITMAP
003C1E
003C3E
003FFC
003FF8
001FF0
000FE0
000300
000000
003FC0
007FE0
007FE0
007FC0
00FFC0
00FF80
00FF80
01FF80
01FF00
01FF00
03FF00
03FF00
03FE00
03FE00
07FE00
07FE00
07FC00
0FFC00
0FFC00
0FFC00
0FFC00
1FF800
1FF800
1FF800
1FF000
3FF000
3FE000
7FE000
7FC000
F80000
ENDCHAR
STARTCHAR 012D
ENCODING 301
SWIDTH 315 0
DWIDTH 14 0
BBX 23 38 1 0
BITMAP
003C1E
003C3E
003FFC
003FF8
001FF0
000FE0
000300
000000
003FC0
007FE0
007FE0
007FC0
00FFC0
00FF80
00FF80
01FF80
01FF00
01FF00
03FF00
03FF00
03FE00
03FE00
07FE00
07FE00
07FC00
0FFC00
0FFC00
0FFC00
0FFC00
1FF800
1FF800
1FF800
1FF000
3FF000
3FE000
7FE000
7FC000
F80000
ENDCHAR
STARTCHAR 012E
ENCODING 302
SWIDTH 315 0
DWIDTH 14 0
BBX 19 37 1 -7
BITMAP
003FC0
007FE0
007FE0
007FC0
00FFC0
00FF80
00FF80
01FF80
01FF00
01FF00
03FF00
03FF00
03FE00
07FE00
07FE00
07FE00
07FC00
0FFC00
0FFC00
0FFC00
0FFC00
1FF800
1FF800
1FF800
1FF000
3FF000
3FE000
7FE000
7FC000
FE0000
1C0000
3C0000
780000
783000
7FF000
7FF000
7FF000
ENDCHAR
STARTCHAR 012F
ENCODING 303
SWIDTH 315 0
DWIDTH 14 0
BBX 19 37 1 -7
BITMAP
003FC0
007FE0
007FE0
007FC0
00FFC0
00FF80
00FF80
01FF80
01FF00
01FF00
03FF00
03FF00
03FE00
07FE00
07FE00
07FE00
07FC00
0FFC00
0FFC00
0FFC00
0FFC00
1FF800
1FF800
1FF800
1FF000
3FF000
3FE000
7FE000
7FC000
FE0000
1C0000
3C0000
780000
783000
7FF000
7FF000
7FF000
ENDCHAR
STARTCHAR 0130
ENCODING 304
SWIDTH 315 0
DWIDTH 14 0
BBX 19 36 1 0
BITMAP
0003C0
0003C0
0007C0
000780
000300
000000
003FC0
007FE0
007FE0
007FC0
00FFC0
00FF80
00FF80
01FF80
01FF00
01FF00
03FF00
03FF00
03FE00
03FE00
07FE00
07FE00
07FC00
0FFC00
0FFC00
0FFC00
0FFC00
1FF800
1FF800
1FF800
1FF000
3FF000
3FE000
7FE000
7FC000
F80000
ENDCHAR
STARTCHAR 0131
ENCODING 305
SWIDTH 315 0
DWIDTH 14 0
BBX 19 36 1 0
BITMAP
0003C0
0003C0
0007C0
000780
000300
000000
003FC0
007FE0
007FE0
007FC0
00FFC0
00FF80
00FF80
01FF80
01FF00
01FF00
03FF00
03FF00
03FE00
03FE00
07FE00
07FE00
07FC00
0FFC00
0FFC00
0FFC00
0FFC00
1FF800
1FF800
1FF800
1FF000
3FF000
3FE000
7FE000
7FC000
F80000
ENDCHAR
STARTCHAR 0132
ENCODING 306
SWIDTH 607 0
DWIDTH 27 0
BBX 31 30 1 0
BITMAP
007E01FE
00FF81FE
00FF01FE
00FE03FC
00FE03FC
01FE07FC
01FE07FC
01FC07FC
03FC07F8
03FC0FF8
03F80FF8
03F80FF8
07F80FF8
07F80FF8
07F01FF8
07F00FF0
0FF00FF0
0FF00FF0
0FF00FF0
1FE00FE0
1FE78FE0
1FEFCFE0
1FEFDFC0
1FFFDF80
3FDFFF80
3FCFFF00
3F8FFE00
7F8FFC00
7F07F800
F001F000
ENDCHAR
STARTCHAR 0133
ENCODING 307
SWIDTH 607 0
DWIDTH 27 0
BBX 31 30 1 0
BITMAP
007E01FE
00FF81FE
00FF01FE
00FE03FC
00FE03FC
01FE07FC
01FE07FC
01FC07FC
03FC07F8
03FC0FF8
03F80FF8
03F80FF8
07F80FF8
07F80FF8
07F01FF8
07F00FF0
0FF00FF0
0FF00FF0
0FF00FF0
1FE00FE0
1FE78FE0
1FEFCFE0
1FEFDFC0
1FFFDF80
3FDFFF80
3FCFFF00
3F8FFE00
7F8FFC00
7F07F800
F001F000
ENDCHAR
STARTCHAR 0134
ENCODING 308
SWIDTH 450 0
DWIDTH 20 0
BBX 26 39 2 0
BITMAP
00001800
00007C00
0000FF00
0003FF80
0007FFC0
000FCF80
000F8700
00040000
00000000
0003FE00
0007FE00
0007FE00
0007FE00
000FFE00
000FFE00
001FFC00
001FFC00
001FFC00
003FFC00
003FFC00
003FFC00
003FF800
003FF800
003FF800
003FF800
003FF800
003FF000
003FF000
003FF000
3E3FE000
7F3FE000
FF3FC000
FFBF8000
FFFF8000
FFFF0000
7FFE0000
7FFC0000
1FF80000
07E00000
ENDCHAR
STARTCHAR 0135
ENCODING 309
SWIDTH 450 0
DWIDTH 20 0
BBX 26 39 2 0
BITMAP
00001800
00007C00
0000FF00
0003FF80
0007FFC0
000FCF80
000F8700
00040000
00000000
0003FE00
0007FE00
0007FE00
0007FE00
000FFE00
000FFE00
001FFC00
001FFC00
001FFC00
003FFC00
003FFC00
003FFC00
003FF800
003FF800
003FF800
003FF800
003FF800
003FF000
003FF000
003FF000
3E3FE000
7F3FE000
FF3FC000
FFBF8000
FFFF8000
FFFF0000
7FFE0000
7FFC0000
1FF80000
07E00000
ENDCHAR
STARTCHAR 0136
ENCODING 310
SWIDTH 540 0
DWIDTH 24 0
BBX 29 38 1 -7
BITMAP
00000080
03FFC180
01FFC3C0
03FFC7F8
03FF8FF0
03FF9FE0
03FFBFC0
07FFBF80
07FF7F00
07FFFE00
07FFFC00
0FFFFC00
0FFFF800
0FFFF000
1FFFE000
1FFFE000
1FFF8000
1FFFC000
3FFFE000
3FFFF000
3FFFF000
3FFFF800
7FFBF800
7FFBFC00
7FF9FC00
7FF1FE00
7FF1FE00
7FF0FE00
FFF0FE00
FFF07000
01C0C000
00000000
007E0000
00FE0000
00FC0000
00FC0000
01F80000
01F00000
ENDCHAR
STARTCHAR 0137
ENCODING 311
SWIDTH 540 0
DWIDTH 24 0
BBX 29 38 1 -7
BITMAP
00000080
03FFC180
01FFC3C0
03FFC7F8
03FF8FF0
03FF9FE0
03FFBFC0
07FFBF80
07FF7F00
07FFFE00
07FFFC00
0FFFFC00
0FFFF800
0FFFF000
1FFFE000
1FFFE000
1FFF8000
1FFFC000
3FFFE000
3FFFF000
3FFFF000
3FFFF800
7FFBF800
7FFBFC00
7FF9FC00
7FF1FE00
7FF1FE00
7FF0FE00
FFF0FE00
FFF07000
01C0C000
00000000
007E0000
00FE0000
00FC0000
00FC0000
01F80000
01F00000
ENDCHAR
STARTCHAR 0138
ENCODING 312
SWIDTH 517 0
DWIDTH 23 0
BBX 26 25 1 -1
BITMAP
00010600
07FF0F00
07FF1FC0
07FE3FC0
0FFE7F80
0FFEFF00
0FFFFE00
0FFFF800
1FFFF000
1FFFE000
1FFFE000
1FFFC000
3FFF8000
3FFF8000
3FFFC000
3FFFC000
7FFFE000
7FFFF000
7FF7F800
7FF3F800
7FE3FC00
FFE1FC00
FFE1FC00
FFE0C000
00008000
ENDCHAR
STARTCHAR 0139
ENCODING 313
SWIDTH 495 0
DWIDTH 22 0
BBX 25 39 1 -1
BITMAP
00001F80
00003F00
00007E00
0000FC00
0000F800
0001F000
00002000
00000000
000FF800
003FF800
007FF800
007FF000
007FF000
00FFF000
00FFE000
00FFE000
01FFE000
01FFC000
01FFC000
01FF8000
03FF8000
03FF8000
07FF0000
07FF0000
07FF0000
0FFE0000
0FFE0000
0FFC0000
1FFC0000
1FFFFC00
1FFFFC00
3FFFFC00
3FFFFC00
3FFFF800
3FFFF800
7FFFF800
7FFFC000
7FC00000
C0000000
ENDCHAR
STARTCHAR 013A
ENCODING 314
SWIDTH 495 0
DWIDTH 22 0
BBX 25 39 1 -1
BITMAP
00001F80
00003F00
00007E00
0000FC00
0000F800
0001F000
00002000
00000000
000FF800
003FF800
007FF800
007FF000
007FF000
00FFF000
00FFE000
00FFE000
01FFE000
01FFC000
01FFC000
01FF8000
03FF8000
03FF8000
07FF0000
07FF0000
07FF0000
0FFE0000
0FFE0000
0FFC0000
1FFC0000
1FFFFC00
1FFFFC00
3FFFFC00
3FFFFC00
3FFFF800
3FFFF800
7FFFF800
7FFFC000
7FC00000
C0000000
ENDCHAR
STARTCHAR 013B
ENCODING 315
SWIDTH 495 0
DWIDTH 22 0
BBX 22 37 1 -7
BITMAP
000FF8
003FF8
007FF8
007FF0
007FF0
00FFF0
00FFE0
00FFE0
01FFE0
01FFC0
01FFC0
01FF80
03FF80
03FF80
07FF00
07FF00
07FF00
0FFE00
0FFE00
0FFC00
1FFC00
1FFFFC
1FFFFC
3FFFFC
3FFFFC
3FFFF8
3FFFF8
7FFFF8
7FFFC0
7FC000
C00000
01F800
03F800
03F000
03E000
07C000
078000
ENDCHAR
STARTCHAR 013C
ENCODING 316
SWIDTH 495 0
DWIDTH 22 0
BBX 22 37 1 -7
BITMAP
000FF8
003FF8
007FF8
007FF0
007FF0
00FFF0
00FFE0
00FFE0
01FFE0
01FFC0
01FFC0
01FF80
03FF80
03FF80
07FF00
07FF00
07FF00
0FFE00
0FFE00
0FFC00
1FFC00
1FFFFC
1FFFFC
3FFFFC
3FFFFC
3FFFF8
3FFFF8
7FFFF8
7FFFC0
7FC000
C00000
01F800
03F800
03F000
03E000
07C000
078000
ENDCHAR
STARTCHAR 013D
ENCODING 317
SWIDTH 495 0
DWIDTH 22 0
BBX 28 33 1 -1
BITMAP
000000E0
000001F0
000FF9E0
003FFBE0
007FFBE0
007FF3E0
007FF3C0
00FFF7C0
00FFE780
00FFE700
01FFE200
01FFC000
01FFC000
01FF8000
03FF8000
03FF8000
07FF0000
07FF0000
07FF0000
0FFE0000
0FFE0000
0FFC0000
1FFC0000
1FFFFC00
1FFFFC00
3FFFFC00
3FFFFC00
3FFFF800
3FFFF800
7FFFF800
7FFFC000
7FC00000
C0000000
ENDCHAR
STARTCHAR 013E
ENCODING 318
SWIDTH 495 0
DWIDTH 22 0
BBX 28 33 1 -1
BITMAP
000000E0
000001F0
000FF9E0
003FFBE0
007FFBE0
007FF3E0
007FF3C0
00FFF7C0
00FFE780
00FFE700
01FFE200
01FFC000
01FFC000
01FF8000
03FF8000
03FF8000
07FF0000
07FF0000
07FF0000
0FFE0000
0FFE0000
0FFC0000
1FFC0000
1FFFFC00
1FFFFC00
3FFFFC00
3FFFFC00
3FFFF800
3FFFF800
7FFFF800
7FFFC000
7FC00000
C0000000
ENDCHAR
STARTCHAR 013F
ENCODING 319
SWIDTH 495 0
DWIDTH 22 0
BBX 22 31 1 -1
BITMAP
000FF8
003FF8
007FF8
007FF0
007FF0
00FFF0
00FFE0
00FFE0
01FFE0
01FFC0
01FFC0
01FF80
03FF98
03FFBC
07FF7C
07FF7C
07FF38
0FFE00
0FFE00
0FFC00
1FFC00
1FFFFC
1FFFFC
3FFFFC
3FFFFC
3FFFF8
3FFFF8
7FFFF8
7FFFC0
7FC000
C00000
ENDCHAR
STARTCHAR 0140
ENCODING 320
SWIDTH 495 0
DWIDTH 22 0
BBX 22 31 1 -1
BITMAP
000FF8
003FF8
007FF8
007FF0
007FF0
00FFF0
00FFE0
00FFE0
01FFE0
01FFC0
01FFC0
01FF80
03FF98
03FFBC
07FF7C
07FF7C
07FF38
0FFE00
0FFE00
0FFC00
1FFC00
1FFFFC
1FFFFC
3FFFFC
3FFFFC
3FFFF8
3FFFF8
7FFFF8
7FFFC0
7FC000
C00000
ENDCHAR
STARTCHAR 0141
ENCODING 321
SWIDTH 540 0
DWIDTH 24 0
BBX 26 31 2 -1
BITMAP
0007FC00
003FFC00
003FF800
007FF800
007FF000
007FF780
00FFFFC0
00FFFFC0
00FFFFC0
00FFFF80
00FFFF00
01FFFC00
01FFF800
03FFE000
03FFC000
07FF0000
0FFF0000
3FFF0000
7FFE0000
FFFE0000
FFFE0000
FFFFFE00
FFFFFC00
FFFFFC00
3FFFFC00
3FFFFC00
3FFFFC00
3FFFFC00
3FFFC800
7FC44000
C0000000
ENDCHAR
STARTCHAR 0142
ENCODING 322
SWIDTH 540 0
DWIDTH 24 0
BBX 26 31 2 -1
BITMAP
0007FC00
003FFC00
003FF800
007FF800
007FF000
007FF780
00FFFFC0
00FFFFC0
00FFFFC0
00FFFF80
00FFFF00
01FFFC00
01FFF800
03FFE000
03FFC000
07FF0000
0FFF0000
3FFF0000
7FFE0000
FFFE0000
FFFE0000
FFFFFE00
FFFFFC00
FFFFFC00
3FFFFC00
3FFFFC00
3FFFFC00
3FFFFC00
3FFFC800
7FC44000
C0000000
ENDCHAR
STARTCHAR 0143
ENCODING 323
SWIDTH 562 0
DWIDTH 25 0
BBX 29 38 1 0
BITMAP
000001F8
000003F0
000007E0
00000FC0
00001F80
00001E00
00000000
00000000
00180060
007F83F8
00FFC7F8
00FF8FF8
00FF8FF8
01FF8FF0
01FF8FF0
03FF9FF0
03FF9FE0
03FF9FE0
07FF9FE0
07FF9FC0
07FFBFC0
0FFFBFC0
0FFFBF80
0FFFBF80
0FFFFF80
1FFFFF80
1FFFFF00
1FF7FF00
3FE7FF00
3FE7FF00
3FE7FE00
3FC7FE00
7FC7FE00
7FC7FC00
7FC7FC00
FF87FC00
FF87F800
F0000000
ENDCHAR
STARTCHAR 0144
ENCODING 324
SWIDTH 562 0
DWIDTH 25 0
BBX 29 38 1 0
BITMAP
000001F8
000003F0
000007E0
00000FC0
00001F80
00001E00
00000000
00000000
00180060
007F83F8
00FFC7F8
00FF8FF8
00FF8FF8
01FF8FF0
01FF8FF0
03FF9FF0
03FF9FE0
03FF9FE0
07FF9FE0
07FF9FC0
07FFBFC0
0FFFBFC0
0FFFBF80
0FFFBF80
0FFFFF80
1FFFFF80
1FFFFF00
1FF7FF00
3FE7FF00
3FE7FF00
3FE7FE00
3FC7FE00
7FC7FE00
7FC7FC00
7FC7FC00
FF87FC00
FF87F800
F0000000
ENDCHAR
STARTCHAR 0145
ENCODING 325
SWIDTH 562 0
DWIDTH 25 0
BBX 29 37 1 -7
BITMAP
00180060
007F83F8
00FFC7F8
00FF8FF8
00FF8FF8
01FF8FF0
01FF8FF0
03FF9FF0
03FF9FE0
03FF9FE0
07FF9FE0
07FF9FC0
07FFBFC0
0FFFBFC0
0FFFBF80
0FFFBF80
0FFFFF80
1FFFFF80
1FFFFF00
1FF7FF00
3FE7FF00
3FE7FF00
3FE7FE00
3FC7FE00
7FC7FE00
7FC7FC00
7FC7FC00
FF87FC00
FF87F800
F0000000
00000000
01F80000
03F80000
03F00000
03E00000
07C00000
07800000
ENDCHAR
STARTCHAR 0146
ENCODING 326
SWIDTH 562 0
DWIDTH 25 0
BBX 29 37 1 -7
BITMAP
00180060
007F83F8
00FFC7F8
00FF8FF8
00FF8FF8
01FF8FF0
01FF8FF0
03FF9FF0
03FF9FE0
03FF9FE0
07FF9FE0
07FF9FC0
07FFBFC0
0FFFBFC0
0FFFBF80
0FFFBF80
0FFFFF80
1FFFFF80
1FFFFF00
1FF7FF00
3FE7FF00
3FE7FF00
3FE7FE00
3FC7FE00
7FC7FE00
7FC7FC00
7FC7FC00
FF87FC00
FF87F800
F0000000
00000000
01F80000
03F80000
03F00000
03E00000
07C00000
07800000
ENDCHAR
STARTCHAR 0147
ENCODING 327
SWIDTH 562 0
DWIDTH 25 0
BBX 29 38 1 0
BITMAP
0001E0E0
0001F3F0
0001FFE0
0000FFC0
0000FF80
00007F00
00001C00
00000000
00180060
007F83F8
00FFC7F8
00FF8FF8
00FF8FF8
01FF8FF0
01FF8FF0
03FF9FF0
03FF9FE0
03FF9FE0
07FF9FE0
07FF9FC0
07FFBFC0
0FFFBFC0
0FFFBF80
0FFFBF80
0FFFFF80
1FFFFF80
1FFFFF00
1FF7FF00
3FE7FF00
3FE7FF00
3FE7FE00
3FC7FE00
7FC7FE00
7FC7FC00
7FC7FC00
FF87FC00
FF87F800
F0000000
ENDCHAR
STARTCHAR 0148
ENCODING 328
SWIDTH 562 0
DWIDTH 25 0
BBX 29 38 1 0
BITMAP
0001E0E0
0001F3F0
0001FFE0
0000FFC0
0000FF80
00007F00
00001C00
00000000
00180060
007F83F8
00FFC7F8
00FF8FF8
00FF8FF8
01FF8FF0
01FF8FF0
03FF9FF0
03FF9FE0
03FF9FE0
07FF9FE0
07FF9FC0
07FFBFC0
0FFFBFC0
0FFFBF80
0FFFBF80
0FFFFF80
1FFFFF80
1FFFFF00
1FF7FF00
3FE7FF00
3FE7FF00
3FE7FE00
3FC7FE00
7FC7FE00
7FC7FC00
7FC7FC00
FF87FC00
FF87F800
F0000000
ENDCHAR
STARTCHAR 0149
ENCODING 329
SWIDTH 630 0
DWIDTH 28 0
BBX 28 32 5 0
BITMAP
0F800000
1F800000
1F8C00E0
1FBFC7F0
3FFFC7F0
3F7F8FF0
3F7F8FF0
7FFF8FF0
7EFF8FE0
7EFF9FE0
FDFF9FE0
FDFF9FC0
F9FF9FC0
FBFFBFC0
73FFBF80
23FFBF80
07FFBF80
07FFBF00
07FFFF00
07FFFF00
0FF7FF00
0FF7FE00
0FF7FE00
0FE7FE00
1FE7FC00
1FE7FC00
1FE3FC00
3FC3FC00
3FC7FC00
3FC7F800
3FC7F800
38000000
ENDCHAR
STARTCHAR 014A
ENCODING 330
SWIDTH 540 0
DWIDTH 24 0
BBX 25 36 2 -5
BITMAP
03E0E000
07E7FC00
07EFFE00
07FFFF00
0FFFFF00
0FFFFF80
0FFFFF80
0FFFFF80
0FFFFF80
1FFFFF80
1FF0FF80
1FE07F80
1FE07F80
1FC07F80
3FC07F80
3FC07F80
3F807F80
3F807F00
3F807F00
3F007F00
7F00FF00
7F00FE00
7F00FE00
7F00FE00
7E01FC00
7E01FC00
7E01FC00
FE03F800
FE03F800
FC07F800
001FF000
00FFF000
00FFE000
00FFC000
00FF8000
00FE0000
ENDCHAR
STARTCHAR 014B
ENCODING 331
SWIDTH 540 0
DWIDTH 24 0
BBX 25 36 2 -5
BITMAP
03E0E000
07E7FC00
07EFFE00
07FFFF00
0FFFFF00
0FFFFF80
0FFFFF80
0FFFFF80
0FFFFF80
1FFFFF80
1FF0FF80
1FE07F80
1FE07F80
1FC07F80
3FC07F80
3FC07F80
3F807F80
3F807F00
3F807F00
3F007F00
7F00FF00
7F00FE00
7F00FE00
7F00FE00
7E01FC00
7E01FC00
7E01FC00
FE03F800
FE03F800
FC07F800
001FF000
00FFF000
00FFE000
00FFC000
00FF8000
00FE0000
ENDCHAR
STARTCHAR 014C
ENCODING 332
SWIDTH 517 0
DWIDTH 23 0
BBX 22 36 4 0
BITMAP
03FFE0
07FFC0
07FFC0
07FFC0
000000
003C00
007E00
00FF80
01FFC0
03FFE0
07FFF0
07FFF0
0FFFF8
1FFFF8
1FFFFC
3FFFFC
3FFFFC
7FC3FC
7F83FC
FF83FC
FF03FC
FF03FC
FF07FC
FF8FFC
FFDFF8
FFFFF8
FFFFF8
FFFFF0
FFFFF0
FFFFE0
FFFFE0
FFFFC0
7FFFC0
3FFF80
1FFE00
07F800
ENDCHAR
STARTCHAR 014D
ENCODING 333
SWIDTH 517 0
DWIDTH 23 0
BBX 22 36 4 0
BITMAP
03FFE0
07FFC0
07FFC0
07FFC0
000000
003C00
007E00
00FF80
01FFC0
03FFE0
07FFF0
07FFF0
0FFFF8
1FFFF8
1FFFFC
3FFFFC
3FFFFC
7FC3FC
7F83FC
FF83FC
FF03FC
FF03FC
FF07FC
FF8FFC
FFDFF8
FFFFF8
FFFFF8
FFFFF0
FFFFF0
FFFFE0
FFFFE0
FFFFC0
7FFFC0
3FFF80
1FFE00
07F800
ENDCHAR
STARTCHAR 014E
ENCODING 334
SWIDTH 517 0
DWIDTH 23 0
BBX 22 38 4 0
BITMAP
03C1E0
03C3E0
03FFC0
03FF80
01FF00
00FE00
000000
003C00
007E00
00FF80
01FFC0
03FFE0
07FFF0
07FFF0
0FFFF8
1FFFF8
1FFFFC
3FFFFC
3FFFFC
7FC3FC
7F83FC
FF83FC
FF03FC
FF03FC
FF07FC
FF8FFC
FFDFF8
FFFFF8
FFFFF8
FFFFF0
FFFFF0
FFFFE0
FFFFE0
FFFFC0
7FFFC0
3FFF80
1FFE00
07F800
ENDCHAR
STARTCHAR 014F
ENCODING 335
SWIDTH 517 0
DWIDTH 23 0
BBX 22 38 4 0
BITMAP
03C1E0
03C3E0
03FFC0
03FF80
01FF00
00FE00
000000
003C00
007E00
00FF80
01FFC0
03FFE0
07FFF0
07FFF0
0FFFF8
1FFFF8
1FFFFC
3FFFFC
3FFFFC
7FC3FC
7F83FC
FF83FC
FF03FC
FF03FC
FF07FC
FF8FFC
FFDFF8
FFFFF8
FFFFF8
FFFFF0
FFFFF0
FFFFE0
FFFFE0
FFFFC0
7FFFC0
3FFF80
1FFE00
07F800
ENDCHAR
STARTCHAR 0150
ENCODING 336
SWIDTH 517 0
DWIDTH 23 0
BBX 23 38 4 0
BITMAP
007F7E
007EFE
00FCF8
01F9F0
03E3E0
03C3C0
000080
003C00
007E00
00FF80
01FFC0
03FFE0
07FFF0
07FFF0
0FFFF8
1FFFF8
1FFFFC
3FFFFC
3FFFFC
7FC3FC
7F83FC
FF83FC
FF03FC
FF03FC
FF07FC
FF8FFC
FFDFF8
FFFFF8
FFFFF8
FFFFF0
FFFFF0
FFFFE0
FFFFE0
FFFFC0
7FFFC0
3FFF80
1FFE00
07F800
ENDCHAR
STARTCHAR 0151
ENCODING 337
SWIDTH 517 0
DWIDTH 23 0
BBX 23 38 4 0
BITMAP
007F7E
007EFE
00FCF8
01F9F0
03E3E0
03C3C0
000080
003C00
007E00
00FF80
01FFC0
03FFE0
07FFF0
07FFF0
0FFFF8
1FFFF8
1FFFFC
3FFFFC
3FFFFC
7FC3FC
7F83FC
FF83FC
FF03FC
FF03FC
FF07FC
FF8FFC
FFDFF8
FFFFF8
FFFFF8
FFFFF0
FFFFF0
FFFFE0
FFFFE0
FFFFC0
7FFFC0
3FFF80
1FFE00
07F800
ENDCHAR
STARTCHAR 0152
ENCODING 338
SWIDTH 720 0
DWIDTH 32 0
BBX 31 32 3 -1
BITMAP
000077E0
0001FFFE
0007FFFE
001FFFFC
007FFFFC
00FFFFF8
01FFFFF8
03FFFFF8
07FFFFF8
07FFFFF0
0FFFFC00
1FFFFC00
1FE1FC00
3FC1FFE0
3FC1FFE0
7FC1FFE0
7F81FFE0
7F81FF40
FFC3FC00
FFC7FC0C
FFFFFFFC
FFFFFFFC
FFFFFFFC
FFFFFFFC
FFFFFFFC
FFFFFFFC
FFFFFFFC
7FFFFFFC
7FFFFFE0
3FFFFE00
1FFBE000
03C00000
ENDCHAR
STARTCHAR 0153
ENCODING 339
SWIDTH 720 0
DWIDTH 32 0
BBX 31 32 3 -1
BITMAP
000077E0
0001FFFE
0007FFFE
001FFFFC
007FFFFC
00FFFFF8
01FFFFF8
03FFFFF8
07FFFFF8
07FFFFF0
0FFFFC00
1FFFFC00
1FE1FC00
3FC1FFE0
3FC1FFE0
7FC1FFE0
7F81FFE0
7F81FF40
FFC3FC00
FFC7FC0C
FFFFFFFC
FFFFFFFC
FFFFFFFC
FFFFFFFC
FFFFFFFC
FFFFFFFC
FFFFFFFC
7FFFFFFC
7FFFFFE0
3FFFFE00
1FFBE000
03C00000
ENDCHAR
STARTCHAR 0154
ENCODING 340
SWIDTH 585 0
DWIDTH 26 0
BBX 23 39 3 -1
BITMAP
0007E0
000FC0
001F80
003F00
003E00
007C00
000800
000600
007FC0
07FFF0
0FFFFC
1FFFFE
1FFDFE
1FF83E
1FF83E
1FF83E
1FF83E
3FF83E
3FF87E
3FFCFC
3FFBFC
3FFFF8
3FFFF0
3FFFC0
3FFFC0
3FFFC0
7FFFE0
7FFFE0
7FF7F0
7FF7F0
7FE7F0
FFE3F8
FFE3F8
FFE3FC
FFE3FC
FFE1FC
FFE1FE
7FC1F0
7E0000
ENDCHAR
STARTCHAR 0155
ENCODING 341
SWIDTH 585 0
DWIDTH 26 0
BBX 23 39 3 -1
BITMAP
0007E0
000FC0
001F80
003F00
003E00
007C00
000800
000600
007FC0
07FFF0
0FFFFC
1FFFFE
1FFDFE
1FF83E
1FF83E
1FF83E
1FF83E
3FF83E
3FF87E
3FFCFC
3FFBFC
3FFFF8
3FFFF0
3FFFC0
3FFFC0
3FFFC0
7FFFE0
7FFFE0
7FF7F0
7FF7F0
7FE7F0
FFE3F8
FFE3F8
FFE3FC
FFE3FC
FFE1FC
FFE1FE
7FC1F0
7E0000
ENDCHAR
STARTCHAR 0156
ENCODING 342
SWIDTH 585 0
DWIDTH 26 0
BBX 23 38 3 -7
BITMAP
000600
007FC0
07FFF0
0FFFFC
1FFFFE
1FFDFE
1FF83E
1FF83E
1FF83E
1FF83E
3FF83E
3FF87E
3FFCFC
3FFBFC
3FFFF8
3FFFF0
3FFFC0
3FFFC0
3FFFC0
7FFFE0
7FFFE0
7FF7F0
7FF7F0
7FE7F0
FFE3F8
FFE3F8
FFE3FC
FFE3FC
FFE1FC
FFE1FE
7FC1F0
7E0000
00FC00
00FC00
00FC00
00F800
01F000
01E000
ENDCHAR
STARTCHAR 0157
ENCODING 343
SWIDTH 585 0
DWIDTH 26 0
BBX 23 38 3 -7
BITMAP
000600
007FC0
07FFF0
0FFFFC
1FFFFE
1FFDFE
1FF83E
1FF83E
1FF83E
1FF83E
3FF83E
3FF87E
3FFCFC
3FFBFC
3FFFF8
3FFFF0
3FFFC0
3FFFC0
3FFFC0
7FFFE0
7FFFE0
7FF7F0
7FF7F0
7FE7F0
FFE3F8
FFE3F8
FFE3FC
FFE3FC
FFE1FC
FFE1FE
7FC1F0
7E0000
00FC00
00FC00
00FC00
00F800
01F000
01E000
ENDCHAR
STARTCHAR 0158
ENCODING 344
SWIDTH 585 0
DWIDTH 26 0
BBX 23 40 3 -1
BITMAP
0000C0
03C3E0
07E7C0
07FF80
03FF00
01FE00
007C00
003000
000600
007FC0
07FFF0
0FFFFC
1FFFFE
1FFDFE
1FF83E
1FF83E
1FF83E
1FF83E
3FF83E
3FF87E
3FFCFC
3FFBFC
3FFFF8
3FFFF0
3FFFC0
3FFFC0
3FFFC0
7FFFE0
7FFFE0
7FF7F0
7FF7F0
7FE7F0
FFE3F8
FFE3F8
FFE3FC
FFE3FC
FFE1FC
FFE1FE
7FC1F0
7E0000
ENDCHAR
STARTCHAR 0159
ENCODING 345
SWIDTH 585 0
DWIDTH 26 0
BBX 23 40 3 -1
BITMAP
0000C0
03C3E0
07E7C0
07FF80
03FF00
01FE00
007C00
003000
000600
007FC0
07FFF0
0FFFFC
1FFFFE
1FFDFE
1FF83E
1FF83E
1FF83E
1FF83E
3FF83E
3FF87E
3FFCFC
3FFBFC
3FFFF8
3FFFF0
3FFFC0
3FFFC0
3FFFC0
7FFFE0
7FFFE0
7FF7F0
7FF7F0
7FE7F0
FFE3F8
FFE3F8
FFE3FC
FFE3FC
FFE1FC
FFE1FE
7FC1F0
7E0000
ENDCHAR
STARTCHAR 015A
ENCODING 346
SWIDTH 495 0
DWIDTH 22 0
BBX 26 38 2 0
BITMAP
00001F80
00003F00
00007E00
00007C00
0000F800
0001F000
00002000
0001F000
001FFFC0
007FFF80
00FFFF80
00FFFF00
01FFFE00
03FFFE00
03FFFC00
07FFF800
07FFF800
0FFFF000
0FFFF000
0FF02000
0FF80000
07FE0000
07FF8000
07FFE000
03FFF000
007FF000
000FF000
0007F000
0007F800
700FF800
7FFFF000
FFFFF000
FFFFF000
FFFFE000
FFFFC000
7FFF0000
3FFE0000
1FF80000
ENDCHAR
STARTCHAR 015B
ENCODING 347
SWIDTH 495 0
DWIDTH 22 0
BBX 26 38 2 0
BITMAP
00001F80
00003F00
00007E00
00007C00
0000F800
0001F000
00002000
0001F000
001FFFC0
007FFF80
00FFFF80
00FFFF00
01FFFE00
03FFFE00
03FFFC00
07FFF800
07FFF800
0FFFF000
0FFFF000
0FF02000
0FF80000
07FE0000
07FF8000
07FFE000
03FFF000
007FF000
000FF000
0007F000
0007F800
700FF800
7FFFF000
FFFFF000
FFFFF000
FFFFE000
FFFFC000
7FFF0000
3FFE0000
1FF80000
ENDCHAR
STARTCHAR 015C
ENCODING 348
SWIDTH 495 0
DWIDTH 22 0
BBX 26 38 2 0
BITMAP
00007800
0001FC00
0007FE00
000FFF00
001F9F00
001F0F00
00000000
0001F000
001FFFC0
007FFF80
00FFFF80
00FFFF00
01FFFE00
03FFFE00
03FFFC00
07FFF800
07FFF800
0FFFF000
0FFFF000
0FF02000
0FF80000
07FE0000
07FF8000
07FFE000
03FFF000
007FF000
000FF000
0007F000
0007F800
700FF800
7FFFF000
FFFFF000
FFFFF000
FFFFE000
FFFFC000
7FFF0000
3FFE0000
1FF80000
ENDCHAR
STARTCHAR 015D
ENCODING 349
SWIDTH 495 0
DWIDTH 22 0
BBX 26 38 2 0
BITMAP
00007800
0001FC00
0007FE00
000FFF00
001F9F00
001F0F00
00000000
0001F000
001FFFC0
007FFF80
00FFFF80
00FFFF00
01FFFE00
03FFFE00
03FFFC00
07FFF800
07FFF800
0FFFF000
0FFFF000
0FF02000
0FF80000
07FE0000
07FF8000
07FFE000
03FFF000
007FF000
000FF000
0007F000
0007F800
700FF800
7FFFF000
FFFFF000
FFFFF000
FFFFE000
FFFFC000
7FFF0000
3FFE0000
1FF80000
ENDCHAR
STARTCHAR 015E
ENCODING 350
SWIDTH 495 0
DWIDTH 22 0
BBX 26 38 2 -7
BITMAP
0001F000
001FFFC0
007FFF80
00FFFF80
00FFFF00
01FFFE00
03FFFE00
03FFFC00
07FFF800
07FFF800
0FFFF000
0FFFF000
0FF03000
0FF80000
07FE0000
07FF8000
07FFE000
03FFF000
007FF000
000FF000
0007F000
0007F800
700FF800
7FFFF000
FFFFF000
FFFFF000
FFFFE000
FFFFC000
7FFF0000
3FFE0000
1FF80000
03E00000
03F00000
01F80000
00FC0000
7FF80000
7FF80000
3FF00000
ENDCHAR
STARTCHAR 015F
ENCODING 351
SWIDTH 495 0
DWIDTH 22 0
BBX 26 38 2 -7
BITMAP
0001F000
001FFFC0
007FFF80
00FFFF80
00FFFF00
01FFFE00
03FFFE00
03FFFC00
07FFF800
07FFF800
0FFFF000
0FFFF000
0FF03000
0FF80000
07FE0000
07FF8000
07FFE000
03FFF000
007FF000
000FF000
0007F000
0007F800
700FF800
7FFFF000
FFFFF000
FFFFF000
FFFFE000
FFFFC000
7FFF0000
3FFE0000
1FF80000
03E00000
03F00000
01F80000
00FC0000
7FF80000
7FF80000
3FF00000
ENDCHAR
STARTCHAR 0160
ENCODING 352
SWIDTH 495 0
DWIDTH 22 0
BBX 26 38 2 0
BITMAP
000F0F80
000F9F80
000FFF00
0007FE00
0003FC00
0001F000
0000C000
0001F000
001FFFC0
007FFF80
00FFFF80
00FFFF00
01FFFE00
03FFFE00
03FFFC00
07FFF800
07FFF800
0FFFF000
0FFFF000
0FF02000
0FF80000
07FE0000
07FF8000
07FFE000
03FFF000
007FF000
000FF000
0007F000
0007F800
700FF800
7FFFF000
FFFFF000
FFFFF000
FFFFE000
FFFFC000
7FFF0000
3FFE0000
1FF80000
ENDCHAR
STARTCHAR 0161
ENCODING 353
SWIDTH 495 0
DWIDTH 22 0
BBX 26 38 2 0
BITMAP
000F0F80
000F9F80
000FFF00
0007FE00
0003FC00
0001F000
0000C000
0001F000
001FFFC0
007FFF80
00FFFF80
00FFFF00
01FFFE00
03FFFE00
03FFFC00
07FFF800
07FFF800
0FFFF000
0FFFF000
0FF02000
0FF80000
07FE0000
07FF8000
07FFE000
03FFF000
007FF000
000FF000
0007F000
0007F800
700FF800
7FFFF000
FFFFF000
FFFFF000
FFFFE000
FFFFC000
7FFF0000
3FFE0000
1FF80000
ENDCHAR
STARTCHAR 0162
ENCODING 354
SWIDTH 562 0
DWIDTH 25 0
BBX 25 37 5 -7
BITMAP
07FFFE00
3FFFFF80
3FFFFF80
3FFFFF80
3FFFFF80
7FFFFF80
7FFFFF80
7FFFFF80
FFFFF000
FE7F8000
C07F0000
007F0000
007E0000
00FE0000
00FE0000
00FE0000
00FC0000
01FC0000
01FC0000
01FC0000
01F80000
01F80000
03F80000
03F80000
03F80000
03F00000
07F00000
07F00000
07F00000
07E00000
03E00000
03F00000
01F80000
107C0000
3FFC0000
7FF80000
3FF00000
ENDCHAR
STARTCHAR 0163
ENCODING 355
SWIDTH 562 0
DWIDTH 25 0
BBX 25 37 5 -7
BITMAP
07FFFE00
3FFFFF80
3FFFFF80
3FFFFF80
3FFFFF80
7FFFFF80
7FFFFF80
7FFFFF80
FFFFF000
FE7F8000
C07F0000
007F0000
007E0000
00FE0000
00FE0000
00FE0000
00FC0000
01FC0000
01FC0000
01FC0000
01F80000
01F80000
03F80000
03F80000
03F80000
03F00000
07F00000
07F00000
07F00000
07E00000
03E00000
03F00000
01F80000
107C0000
3FFC0000
7FF80000
3FF00000
ENDCHAR
STARTCHAR 0164
ENCODING 356
SWIDTH 562 0
DWIDTH 25 0
BBX 25 38 5 0
BITMAP
003C3E00
007E7E00
003FFC00
003FF000
001FE000
00078000
00030000
00000000
07FFFE00
3FFFFF80
3FFFFF80
3FFFFF80
3FFFFF80
7FFFFF80
7FFFFF80
7FFFFF80
FFFFF000
FE7F8000
C07F0000
007F0000
007E0000
00FE0000
00FE0000
00FE0000
00FC0000
01FC0000
01FC0000
01FC0000
01F80000
01F80000
03F80000
03F80000
03F80000
03F00000
07F00000
07F00000
07F00000
07E00000
ENDCHAR
STARTCHAR 0165
ENCODING 357
SWIDTH 562 0
DWIDTH 25 0
BBX 25 38 5 0
BITMAP
003C3E00
007E7E00
003FFC00
003FF000
001FE000
00078000
00030000
00000000
07FFFE00
3FFFFF80
3FFFFF80
3FFFFF80
3FFFFF80
7FFFFF80
7FFFFF80
7FFFFF80
FFFFF000
FE7F8000
C07F0000
007F0000
007E0000
00FE0000
00FE0000
00FE0000
00FC0000
01FC0000
01FC0000
01FC0000
01F80000
01F80000
03F80000
03F80000
03F80000
03F00000
07F00000
07F00000
07F00000
07E00000
ENDCHAR
STARTCHAR 0166
ENCODING 358
SWIDTH 562 0
DWIDTH 25 0
BBX 25 30 5 0
BITMAP
07FFFE00
3FFFFF80
3FFFFF80
3FFFFF80
3FFFFF80
7FFFFF80
7FFFFF80
7FFFFF80
FFFFF000
FE7F8000
C07F0000
007F0000
007E0000
00FFF000
3FFFF800
3FFFF800
3FFFF000
3FFFF000
7FFFF000
01FC0000
01F80000
03F80000
03F80000
03F80000
03F80000
03F00000
07F00000
07F00000
07F00000
07E00000
ENDCHAR
STARTCHAR 0167
ENCODING 359
SWIDTH 562 0
DWIDTH 25 0
BBX 25 30 5 0
BITMAP
07FFFE00
3FFFFF80
3FFFFF80
3FFFFF80
3FFFFF80
7FFFFF80
7FFFFF80
7FFFFF80
FFFFF000
FE7F8000
C07F0000
007F0000
007E0000
00FFF000
3FFFF800
3FFFF800
3FFFF000
3FFFF000
7FFFF000
01FC0000
01F80000
03F80000
03F80000
03F80000
03F80000
03F00000
07F00000
07F00000
07F00000
07E00000
ENDCHAR
STARTCHAR 0168
ENCODING 360
SWIDTH 540 0
DWIDTH 24 0
BBX 27 37 3 1
BITMAP
0001C7C0
0007E7C0
0007FF80
000FFF80
000FFF00
000E7E00
000E0000
01000000
01F80FC0
03F81FE0
03F81FC0
07F01FC0
07F01FC0
0FF01FC0
0FE01F80
0FE03F80
1FE03F80
1FC03F80
3FC07F00
3FC07F00
3FC07F00
7FC0FF00
7FC0FF00
7FC1FF00
7FE1FE00
7FFFFE00
7FFFFC00
FFFFFC00
FFFFF800
7FFFF800
7FFFF000
7FFFE000
7FFFC000
3FFF8000
3FFF0000
1FFE0000
07FC0000
ENDCHAR
STARTCHAR 0169
ENCODING 361
SWIDTH 540 0
DWIDTH 24 0
BBX 27 37 3 1
BITMAP
0001C7C0
0007E7C0
0007FF80
000FFF80
000FFF00
000E7E00
000E0000
01000000
01F80FC0
03F81FE0
03F81FC0
07F01FC0
07F01FC0
0FF01FC0
0FE01F80
0FE03F80
1FE03F80
1FC03F80
3FC07F00
3FC07F00
3FC07F00
7FC0FF00
7FC0FF00
7FC1FF00
7FE1FE00
7FFFFE00
7FFFFC00
FFFFFC00
FFFFF800
7FFFF800
7FFFF000
7FFFE000
7FFFC000
3FFF8000
3FFF0000
1FFE0000
07FC0000
ENDCHAR
STARTCHAR 016A
ENCODING 362
SWIDTH 540 0
DWIDTH 24 0
BBX 27 35 3 1
BITMAP
000FFF80
000FFF80
001FFF00
001FFF00
00000000
01000000
01F80FC0
03F81FE0
03F81FC0
07F01FC0
07F01FC0
0FF01FC0
0FE01F80
0FE03F80
1FE03F80
1FC03F80
3FC07F00
3FC07F00
3FC07F00
7FC0FF00
7FC0FF00
7FC1FF00
7FE1FE00
7FFFFE00
7FFFFC00
FFFFFC00
FFFFF800
7FFFF800
7FFFF000
7FFFE000
7FFFC000
3FFF8000
3FFF0000
1FFE0000
07FC0000
ENDCHAR
STARTCHAR 016B
ENCODING 363
SWIDTH 540 0
DWIDTH 24 0
BBX 27 35 3 1
BITMAP
000FFF80
000FFF80
001FFF00
001FFF00
00000000
01000000
01F80FC0
03F81FE0
03F81FC0
07F01FC0
07F01FC0
0FF01FC0
0FE01F80
0FE03F80
1FE03F80
1FC03F80
3FC07F00
3FC07F00
3FC07F00
7FC0FF00
7FC0FF00
7FC1FF00
7FE1FE00
7FFFFE00
7FFFFC00
FFFFFC00
FFFFF800
7FFFF800
7FFFF000
7FFFE000
7FFFC000
3FFF8000
3FFF0000
1FFE0000
07FC0000
ENDCHAR
STARTCHAR 016C
ENCODING 364
SWIDTH 540 0
DWIDTH 24 0
BBX 27 37 3 1
BITMAP
000783C0
000783C0
0007FF80
0007FF00
0003FE00
0001FC00
00003000
01000000
01F80FC0
03F81FE0
03F81FC0
07F01FC0
07F01FC0
0FF01FC0
0FE01F80
0FE03F80
1FE03F80
1FC03F80
3FC07F00
3FC07F00
3FC07F00
7FC0FF00
7FC0FF00
7FC1FF00
7FE1FE00
7FFFFE00
7FFFFC00
FFFFFC00
FFFFF800
7FFFF800
7FFFF000
7FFFE000
7FFFC000
3FFF8000
3FFF0000
1FFE0000
07FC0000
ENDCHAR
STARTCHAR 016D
ENCODING 365
SWIDTH 540 0
DWIDTH 24 0
BBX 27 37 3 1
BITMAP
000783C0
000783C0
0007FF80
0007FF00
0003FE00
0001FC00
00003000
01000000
01F80FC0
03F81FE0
03F81FC0
07F01FC0
07F01FC0
0FF01FC0
0FE01F80
0FE03F80
1FE03F80
1FC03F80
3FC07F00
3FC07F00
3FC07F00
7FC0FF00
7FC0FF00
7FC1FF00
7FE1FE00
7FFFFE00
7FFFFC00
FFFFFC00
FFFFF800
7FFFF800
7FFFF000
7FFFE000
7FFFC000
3FFF8000
3FFF0000
1FFE0000
07FC0000
ENDCHAR
STARTCHAR 016E
ENCODING 366
SWIDTH 540 0
DWIDTH 24 0
BBX 27 40 3 1
BITMAP
00001000
0000FE00
0003FF00
0007DF80
000F0F80
000F0F80
001F0F80
001F1F00
000FFE00
0007FC00
0103F000
01F80FC0
03F81FE0
03F81FC0
07F01FC0
07F01FC0
0FF01FC0
0FE01F80
0FE03F80
1FE03F80
1FC03F80
3FC07F00
3FC07F00
3FC07F00
7FC0FF00
7FC0FF00
7FC1FF00
7FE1FE00
7FFFFE00
7FFFFC00
FFFFFC00
FFFFF800
7FFFF800
7FFFF000
7FFFE000
7FFFC000
3FFF8000
3FFF0000
1FFE0000
07FC0000
ENDCHAR
STARTCHAR 016F
ENCODING 367
SWIDTH 540 0
DWIDTH 24 0
BBX 27 40 3 1
BITMAP
00001000
0000FE00
0003FF00
0007DF80
000F0F80
000F0F80
001F0F80
001F1F00
000FFE00
0007FC00
0103F000
01F80FC0
03F81FE0
03F81FC0
07F01FC0
07F01FC0
0FF01FC0
0FE01F80
0FE03F80
1FE03F80
1FC03F80
3FC07F00
3FC07F00
3FC07F00
7FC0FF00
7FC0FF00
7FC1FF00
7FE1FE00
7FFFFE00
7FFFFC00
FFFFFC00
FFFFF800
7FFFF800
7FFFF000
7FFFE000
7FFFC000
3FFF8000
3FFF0000
1FFE0000
07FC0000
ENDCHAR
STARTCHAR 0170
ENCODING 368
SWIDTH 540 0
DWIDTH 24 0
BBX 29 37 3 1
BITMAP
0001FDF8
0001FBF8
0003F3E0
0007E7C0
000F8F80
000F0F00
00000200
01000000
01F80FC0
03F81FE0
03F81FC0
07F01FC0
07F01FC0
0FF01FC0
0FE01F80
0FE03F80
1FE03F80
1FC03F80
3FC07F00
3FC07F00
3FC07F00
7FC0FF00
7FC0FF00
7FC1FF00
7FE1FE00
7FFFFE00
7FFFFC00
FFFFFC00
FFFFF800
7FFFF800
7FFFF000
7FFFE000
7FFFC000
3FFF8000
3FFF0000
1FFE0000
07FC0000
ENDCHAR
STARTCHAR 0171
ENCODING 369
SWIDTH 540 0
DWIDTH 24 0
BBX 29 37 3 1
BITMAP
0001FDF8
0001FBF8
0003F3E0
0007E7C0
000F8F80
000F0F00
00000200
01000000
01F80FC0
03F81FE0
03F81FC0
07F01FC0
07F01FC0
0FF01FC0
0FE01F80
0FE03F80
1FE03F80
1FC03F80
3FC07F00
3FC07F00
3FC07F00
7FC0FF00
7FC0FF00
7FC1FF00
7FE1FE00
7FFFFE00
7FFFFC00
FFFFFC00
FFFFF800
7FFFF800
7FFFF000
7FFFE000
7FFFC000
3FFF8000
3FFF0000
1FFE0000
07FC0000
ENDCHAR
STARTCHAR 0172
ENCODING 370
SWIDTH 540 0
DWIDTH 24 0
BBX 27 38 3 -7
BITMAP
01000000
01F80FC0
03F81FE0
03F81FC0
07F01FC0
07F01FC0
0FF01FC0
0FE01F80
0FE03F80
1FE03F80
1FC03F80
3FC07F00
3FC07F00
3FC07F00
7FC0FF00
7FC0FF00
7FC1FF00
7FE1FE00
7FFFFE00
7FFFFC00
FFFFFC00
FFFFF800
7FFFF800
7FFFF000
7FFFE000
7FFFC000
3FFF8000
3FFF0000
1FFE0000
07FC0000
03C00000
07800000
0F000000
0F000000
1F0E0000
1FFE0000
1FFC0000
0FFC0000
ENDCHAR
STARTCHAR 0173
ENCODING 371
SWIDTH 540 0
DWIDTH 24 0
BBX 27 38 3 -7
BITMAP
01000000
01F80FC0
03F81FE0
03F81FC0
07F01FC0
07F01FC0
0FF01FC0
0FE01F80
0FE03F80
1FE03F80
1FC03F80
3FC07F00
3FC07F00
3FC07F00
7FC0FF00
7FC0FF00
7FC1FF00
7FE1FE00
7FFFFE00
7FFFFC00
FFFFFC00
FFFFF800
7FFFF800
7FFFF000
7FFFE000
7FFFC000
3FFF8000
3FFF0000
1FFE0000
07FC0000
03C00000
07800000
0F000000
0F000000
1F0E0000
1FFE0000
1FFC0000
0FFC0000
ENDCHAR
STARTCHAR 0174
ENCODING 372
SWIDTH 720 0
DWIDTH 32 0
BBX 32 39 6 0
BITMAP
00006000
0001F000
0003FC00
0007FE00
000FFF00
001F3F00
003E0C00
00180000
00000040
3F00007A
7F81C0FF
7F81C1FE
FF81C1FC
FF83C3FC
FFC3C3F8
FFC3C7F8
FFC7C7F0
FFC7CFF0
7FC7EFF0
7FEFFFF0
7FEFFFE0
7FFFFFE0
7FFFFFC0
3FFFFFC0
3FFFFF80
3FFFFF80
3FFFFF80
1FFFFF00
1FF9FF00
1FF9FE00
0FF1FE00
0FE1FE00
0FE1FE00
0FC1FC00
07C1FC00
0781F800
0781F800
03000000
03000000
ENDCHAR
STARTCHAR 0175
ENCODING 373
SWIDTH 720 0
DWIDTH 32 0
BBX 32 39 6 0
BITMAP
00006000
0001F000
0003FC00
0007FE00
000FFF00
001F3F00
003E0C00
00180000
00000040
3F00007A
7F81C0FF
7F81C1FE
FF81C1FC
FF83C3FC
FFC3C3F8
FFC3C7F8
FFC7C7F0
FFC7CFF0
7FC7EFF0
7FEFFFF0
7FEFFFE0
7FFFFFE0
7FFFFFC0
3FFFFFC0
3FFFFF80
3FFFFF80
3FFFFF80
1FFFFF00
1FF9FF00
1FF9FE00
0FF1FE00
0FE1FE00
0FE1FE00
0FC1FC00
07C1FC00
0781F800
0781F800
03000000
03000000
ENDCHAR
STARTCHAR 0176
ENCODING 374
SWIDTH 607 0
DWIDTH 27 0
BBX 27 39 6 0
BITMAP
00030000
0007C000
001FE000
003FF000
007FF800
00FCF800
01F06000
00400000
00000020
00001FE0
07001FC0
7F803F80
FF807F80
7F807F00
7FC0FE00
7FC1FE00
7FC1FC00
3FC3F800
3FC7F800
3FEFF000
1FEFE000
1FFFE000
1FFFC000
0FFF8000
0FFF0000
0FFF0000
0FFE0000
07FC0000
07FC0000
07F80000
03F80000
03F80000
03F80000
07F00000
07F00000
07F00000
07F00000
07F00000
07C00000
ENDCHAR
STARTCHAR 0177
ENCODING 375
SWIDTH 607 0
DWIDTH 27 0
BBX 27 39 6 0
BITMAP
00030000
0007C000
001FE000
003FF000
007FF800
00FCF800
01F06000
00400000
00000020
00001FE0
07001FC0
7F803F80
FF807F80
7F807F00
7FC0FE00
7FC1FE00
7FC1FC00
3FC3F800
3FC7F800
3FEFF000
1FEFE000
1FFFE000
1FFFC000
0FFF8000
0FFF0000
0FFF0000
0FFE0000
07FC0000
07FC0000
07F80000
03F80000
03F80000
03F80000
07F00000
07F00000
07F00000
07F00000
07F00000
07C00000
ENDCHAR
STARTCHAR 0178
ENCODING 376
SWIDTH 607 0
DWIDTH 27 0
BBX 27 36 6 0
BITMAP
00387800
007C7800
007CF800
0078F000
00302000
00000020
00001FE0
07001FC0
7F803F80
FF807F80
7F807F00
7FC0FE00
7FC1FE00
7FC1FC00
3FC3F800
3FC7F800
3FEFF000
1FEFE000
1FFFE000
1FFFC000
0FFF8000
0FFF0000
0FFF0000
0FFE0000
07FC0000
07FC0000
07F80000
03F80000
03F80000
03F80000
07F00000
07F00000
07F00000
07F00000
07F00000
07C00000
ENDCHAR
STARTCHAR 0179
ENCODING 377
SWIDTH 585 0
DWIDTH 26 0
BBX 24 38 5 0
BITMAP
0001FC
0001F8
0003F0
0007E0
000F80
000F00
000000
0007C0
00FFFF
0FFFFE
1FFFFC
3FFFF8
3FFFF0
7FFFE0
7FFFE0
FE1FC0
003F80
003F80
007F00
007E00
00FE00
00FC00
01FC00
03F800
03F800
07F800
07F000
0FF000
0FE000
1FC000
1FFFFE
3FFFFC
7FFFFC
7FFFF8
7FFFF0
0FFFE0
03FFC0
003C00
ENDCHAR
STARTCHAR 017A
ENCODING 378
SWIDTH 585 0
DWIDTH 26 0
BBX 24 38 5 0
BITMAP
0001FC
0001F8
0003F0
0007E0
000F80
000F00
000000
0007C0
00FFFF
0FFFFE
1FFFFC
3FFFF8
3FFFF0
7FFFE0
7FFFE0
FE1FC0
003F80
003F80
007F00
007E00
00FE00
00FC00
01FC00
03F800
03F800
07F800
07F000
0FF000
0FE000
1FC000
1FFFFE
3FFFFC
7FFFFC
7FFFF8
7FFFF0
0FFFE0
03FFC0
003C00
ENDCHAR
STARTCHAR 017B
ENCODING 379
SWIDTH 585 0
DWIDTH 26 0
BBX 24 36 5 0
BITMAP
000F00
000F00
001F00
001E00
000C00
0007C0
00FFFF
0FFFFE
1FFFFC
3FFFF8
3FFFF0
7FFFE0
7FFFE0
FE1FC0
003F80
003F80
007F00
007E00
00FE00
00FC00
01FC00
03F800
03F800
07F800
07F000
0FF000
0FE000
1FC000
1FFFFE
3FFFFC
7FFFFC
7FFFF8
7FFFF0
0FFFE0
03FFC0
003C00
ENDCHAR
STARTCHAR 017C
ENCODING 380
SWIDTH 585 0
DWIDTH 26 0
BBX 24 36 5 0
BITMAP
000F00
000F00
001F00
001E00
000C00
0007C0
00FFFF
0FFFFE
1FFFFC
3FFFF8
3FFFF0
7FFFE0
7FFFE0
FE1FC0
003F80
003F80
007F00
007E00
00FE00
00FC00
01FC00
03F800
03F800
07F800
07F000
0FF000
0FE000
1FC000
1FFFFE
3FFFFC
7FFFFC
7FFFF8
7FFFF0
0FFFE0
03FFC0
003C00
ENDCHAR
STARTCHAR 017D
ENCODING 381
SWIDTH 585 0
DWIDTH 26 0
BBX 24 38 5 0
BITMAP
00F878
00FDF8
007FF0
007FE0
003FC0
001F00
000C00
0007C0
00FFFF
0FFFFE
1FFFFC
3FFFF8
3FFFF0
7FFFE0
7FFFE0
FE1FC0
003F80
003F80
007F00
007E00
00FE00
00FC00
01FC00
03F800
03F800
07F800
07F000
0FF000
0FE000
1FC000
1FFFFE
3FFFFC
7FFFFC
7FFFF8
7FFFF0
0FFFE0
03FFC0
003C00
ENDCHAR
STARTCHAR 017E
ENCODING 382
SWIDTH 585 0
DWIDTH 26 0
BBX 24 38 5 0
BITMAP
00F878
00FDF8
007FF0
007FE0
003FC0
001F00
000C00
0007C0
00FFFF
0FFFFE
1FFFFC
3FFFF8
3FFFF0
7FFFE0
7FFFE0
FE1FC0
003F80
003F80
007F00
007E00
00FE00
00FC00
01FC00
03F800
03F800
07F800
07F000
0FF000
0FE000
1FC000
1FFFFE
3FFFFC
7FFFFC
7FFFF8
7FFFF0
0FFFE0
03FFC0
003C00
ENDCHAR
STARTCHAR 017F
ENCODING 383
SWIDTH 427 0
DWIDTH 19 0
BBX 22 37 2 -6
BITMAP
000FC0
003FF8
00FFFC
01FFFC
03FFFC
07FFFC
0FF8FC
0FF078
1FE000
1FE000
1FE000
1FC000
1FC000
1FC000
1FC000
1FC000
1FC000
3F8000
3F8000
3F8000
3F8000
3F8000
3F8000
3F0000
3F0000
7F0000
7F0000
7F0000
7F0000
FE0000
FE0000
FE0000
FE0000
FE0000
FE0000
FC0000
FC0000
ENDCHAR
STARTCHAR 0180
ENCODING 384
SWIDTH 517 0
DWIDTH 23 0
BBX 22 31 2 0
BITMAP
003000
01FFC0
07FFF0
07FFF8
0FFFF8
0FFFF8
0FFFFC
0FF3FC
0FF1FC
0FE0F8
0FE0F8
0FE1F0
0FF3F0
0FFFE0
0FFF80
0FFFE0
0FFFF8
0FFFF8
1FFFFC
1FFDFC
3FFDFC
7FFDFC
7FFDFC
FFFBFC
FFF7F8
1FFFF8
1FFFF0
1FFFC0
3FFF80
3FFE00
0F0000
ENDCHAR
STARTCHAR 0181
ENCODING 385
SWIDTH 675 0
DWIDTH 30 0
BBX 26 31 5 0
BITMAP
00070000
01FFFC00
07FFFF00
0FFFFF80
1FFFFF80
3FFFFF80
3FFFFFC0
7FFF3FC0
7FFF1F80
FCFE0F80
F8FE0F80
F8FE1F00
F8FF3F00
F8FFFE00
FCFFF800
FCFFFE00
FCFFFF80
7DFFFF80
7DFFFFC0
39FE1FC0
01FE1FC0
01FE1FC0
01FE3FC0
01FE7FC0
01FEFF80
01FFFF80
01FFFF00
01FFFC00
03FFF800
03FFC000
00E00000
ENDCHAR
STARTCHAR 0186
ENCODING 390
SWIDTH 472 0
DWIDTH 21 0
BBX 23 30 2 0
BITMAP
007F00
01FFE0
03FFF8
0FFFF8
0FFFFC
0FFFFE
0FFFFE
0FFFFE
023FFE
0007FE
0007FE
0003FE
0003FE
0003FE
0003FC
0007FC
380FFC
3FFFFC
3FFFF8
7FFFF8
7FFFF0
7FFFF0
7FFFE0
7FFFE0
FFFFC0
7FFF80
3FFF80
3FFF00
0FF800
020000
ENDCHAR
STARTCHAR 0187
ENCODING 391
SWIDTH 472 0
DWIDTH 21 0
BBX 26 38 3 0
BITMAP
00001FC0
00003FC0
0000FFC0
0001FFC0
0003FF80
0003FF00
0003FC00
0007F800
0007F800
003FFC00
00FFFE00
01FFFF00
07FFFF00
07FFFE00
0FFFFE00
1FFFFC00
1FFF1000
3FF80000
3FF00000
3FE00000
3FC00000
7FC00000
7FC00000
7FC00000
7FE03000
FFFFF000
FFFFF000
FFFFF000
7FFFF000
7FFFF000
7FFFE000
7FFFE000
7FFFE000
3FFFC000
3FFF8000
3FFF0000
07FC0000
00200000
ENDCHAR
STARTCHAR 0188
ENCODING 392
SWIDTH 472 0
DWIDTH 21 0
BBX 26 38 3 0
BITMAP
00001FC0
00003FC0
0000FFC0
0001FFC0
0003FF80
0003FF00
0003FC00
0007F800
0007F800
003FFC00
00FFFE00
01FFFF00
07FFFF00
07FFFE00
0FFFFE00
1FFFFC00
1FFF1000
3FF80000
3FF00000
3FE00000
3FC00000
7FC00000
7FC00000
7FC00000
7FE03000
FFFFF000
FFFFF000
FFFFF000
7FFFF000
7FFFF000
7FFFE000
7FFFE000
7FFFE000
3FFFC000
3FFF8000
3FFF0000
07FC0000
00200000
ENDCHAR
STARTCHAR 0189
ENCODING 393
SWIDTH 472 0
DWIDTH 21 0
BBX 22 30 3 0
BITMAP
01FE00
07FF80
07FFE0
07FFF0
0FFFF0
0FFFF8
0FFFF8
0FFFFC
0FF1FC
0FF0FC
0FFC7C
7FFCFC
7FFCFC
7FFCFC
7FFDF8
FFE3F8
FFE7F0
1FEFE0
1FFFE0
1FFFC0
1FFF80
1FFF00
1FFF00
1FFE00
1FFC00
1FF800
1FE000
1F8000
1E0000
180000
ENDCHAR
STARTCHAR 018A
ENCODING 394
SWIDTH 630 0
DWIDTH 28 0
BBX 27 30 5 0
BITMAP
00FFE000
07FFFC00
0FFFFE00
1FFFFF00
3FFFFF80
3FFFFF80
7FFFFFC0
7FFFFFC0
FCFF9FC0
F8FF07C0
F8FF07E0
F8FF07E0
F8FF0FC0
FCFE0FC0
FCFE1FC0
FCFE3F80
7DFE7F00
7DFEFF00
39FFFE00
01FFFC00
01FFFC00
01FFF800
01FFF000
01FFE000
01FFC000
01FF8000
01FF0000
00FC0000
00E00000
00800000
ENDCHAR
STARTCHAR 018F
ENCODING 399
SWIDTH 472 0
DWIDTH 21 0
BBX 21 31 3 0
BITMAP
000180
00FFC0
03FFE0
07FFE0
0FFFF0
1FFFF0
1FFFF0
0F9FF8
0003F8
0001F8
0001F8
0001F8
1FFFF8
3FFFF8
7FFFF8
7FFFF8
7FFFF8
7FFFF8
7F87F0
7F07F0
7F0FF0
FFFFF0
FFFFF0
FFFFF0
FFFFE0
FFFFE0
7FFFC0
3FFF80
1FFF00
0FFC00
004800
ENDCHAR
STARTCHAR 0190
ENCODING 400
SWIDTH 472 0
DWIDTH 21 0
BBX 21 31 4 0
BITMAP
007F00
01FFE0
03FFF0
07FFF0
0FFFF8
1FFFF8
3FF010
3FE000
7FC000
7F8000
7F8000
3F8000
3FC000
3FFF00
3FFF00
1FFF00
1FFF00
3FFC00
3FC000
7F8000
7F0000
FF0000
FF0000
FF01E0
FFFFE0
FFFFC0
FFFFC0
7FFF80
7FFF00
3FFE00
07F000
ENDCHAR
STARTCHAR 0191
ENCODING 401
SWIDTH 495 0
DWIDTH 22 0
BBX 31 37 -4 -6
BITMAP
00001FFE
0007FFFE
001FFFFE
001FFFFE
003FFFFE
003FFFFE
003FFFDE
003FE000
003FC000
007FC000
007F8000
007F9800
007FFC00
007FFC00
00FFF800
00FFF800
00FFF800
00FFD800
01FE0000
01FE0000
01FE0000
01FE0000
01FE0000
03FC0000
03FC0000
03FC0000
03FC0000
07FC0000
07F80000
07F80000
0FF80000
7FF00000
7FF00000
7FE00000
FF800000
FF000000
F8000000
ENDCHAR
STARTCHAR 0192
ENCODING 402
SWIDTH 495 0
DWIDTH 22 0
BBX 31 37 -4 -6
BITMAP
00001FFE
0007FFFE
001FFFFE
001FFFFE
003FFFFE
003FFFFE
003FFFDE
003FE000
003FC000
007FC000
007F8000
007F9800
007FFC00
007FFC00
00FFF800
00FFF800
00FFF800
00FFD800
01FE0000
01FE0000
01FE0000
01FE0000
01FE0000
03FC0000
03FC0000
03FC0000
03FC0000
07FC0000
07F80000
07F80000
0FF80000
7FF00000
7FF00000
7FE00000
FF800000
FF000000
F8000000
ENDCHAR
STARTCHAR 0193
ENCODING 403
SWIDTH 495 0
DWIDTH 22 0
BBX 28 38 2 0
BITMAP
000007F0
00001FF0
00003FE0
00007FE0
0000FFE0
0000FFC0
0001FF00
0003FE00
0007FE00
001FFE00
003FFF00
007FFF00
00FFFF00
00FFFF00
01FF3E00
03F80000
03F00000
07E00000
07E00000
0FC00000
0FC03E00
1F83FE00
1F87FE00
1F87FE00
3F07FC00
3F07FC00
7F07FC00
7F87FC00
7FDFF800
7FFFF800
FFFFF800
FFFFF800
FFFFE000
7FFFC000
7FFF0000
3FFC0000
1FE00000
08000000
ENDCHAR
STARTCHAR 0194
ENCODING 404
SWIDTH 607 0
DWIDTH 27 0
BBX 25 36 7 -6
BITMAP
FE000000
FE003800
FE007F80
FE007F80
FE00FF00
FE01FF00
FE01FE00
7E03FC00
7F03FC00
7F07F800
7F07F000
7F0FF000
3F1FE000
3F9FC000
3FBFC000
1FBF8000
1FFF0000
1FFF0000
0FFE0000
0FFC0000
0FF80000
0FF00000
1FF80000
3FF80000
7FFC0000
7CF80000
F8F80000
F8F80000
F0F80000
F0F00000
F9F00000
FFE00000
FFC00000
7F800000
3F000000
08000000
ENDCHAR
STARTCHAR 0197
ENCODING 407
SWIDTH 360 0
DWIDTH 16 0
BBX 19 30 2 0
BITMAP
003FC0
007FE0
007FC0
007FC0
00FF80
00FF80
01FF80
01FF00
01FF00
03FF00
03FF00
03FE00
07FF80
3FFF80
3FFF80
3FFF80
3FFF00
7FFF00
0FFC00
0FF800
1FF800
1FF800
1FF800
1FF800
3FF000
3FE000
3FE000
7FE000
FFC000
F80000
ENDCHAR
STARTCHAR 0198
ENCODING 408
SWIDTH 607 0
DWIDTH 27 0
BBX 30 31 1 0
BITMAP
000000E0
03FFC1F0
01FFC3F8
03FFC7FC
03FF8FFC
03FF9FFC
03FFBFFC
07FFBEFC
07FF7E7C
07FFFC7C
07FFF8F8
0FFFF8F8
0FFFF3F0
0FFFE3F0
1FFFE7E0
1FFFC7C0
1FFF8780
1FFFC000
3FFFE000
3FFFF000
3FFFF000
3FFFF800
7FFBF800
7FFBFC00
7FF9FC00
7FF1FE00
7FF1FE00
7FF0FE00
FFF0FE00
FFF07000
01C0C000
ENDCHAR
STARTCHAR 0199
ENCODING 409
SWIDTH 607 0
DWIDTH 27 0
BBX 30 31 1 0
BITMAP
000000E0
03FFC1F0
01FFC3F8
03FFC7FC
03FF8FFC
03FF9FFC
03FFBFFC
07FFBEFC
07FF7E7C
07FFFC7C
07FFF8F8
0FFFF8F8
0FFFF3F0
0FFFE3F0
1FFFE7E0
1FFFC7C0
1FFF8780
1FFFC000
3FFFE000
3FFFF000
3FFFF000
3FFFF800
7FFBF800
7FFBFC00
7FF9FC00
7FF1FE00
7FF1FE00
7FF0FE00
FFF0FE00
FFF07000
01C0C000
ENDCHAR
STARTCHAR 019D
ENCODING 413
SWIDTH 562 0
DWIDTH 25 0
BBX 34 36 -4 -6
BITMAP
0000C00300
0003FC1FC0
0007FE3FC0
0007FC7FC0
0007FC7FC0
000FFC7F80
000FFC7F80
001FFCFF80
001FFCFF00
001FFCFF00
003FFCFF00
003FFCFE00
003FFDFE00
007FFDFE00
007FFDFC00
007FFDFC00
007FFFFC00
00FFFFFC00
00FFFFF800
00FF3FF800
01FF3FF800
01FF3FF800
01FF3FF000
01FE3FF000
03FE3FF000
03FC3FE000
03FC3FE000
07FC3FE000
07F83FC000
0FF8000000
7FF0000000
7FF0000000
7FE0000000
FF80000000
FF00000000
F800000000
ENDCHAR
STARTCHAR 01A0
ENCODING 416
SWIDTH 540 0
DWIDTH 24 0
BBX 26 32 4 0
BITMAP
000001C0
003C07C0
007E03C0
00FF83C0
01FFC3C0
03FFE3C0
07FFF380
07FFF380
0FFFFF80
1FFFFF00
1FFFFF00
3FFFFE00
3FFFFC00
7FC3FC00
7F83FC00
FF83FC00
FF03FC00
FF03FC00
FF07FC00
FF8FFC00
FFDFF800
FFFFF800
FFFFF800
FFFFF000
FFFFF000
FFFFE000
FFFFE000
FFFFC000
7FFFC000
3FFF8000
1FFE0000
07F80000
ENDCHAR
STARTCHAR 01A1
ENCODING 417
SWIDTH 540 0
DWIDTH 24 0
BBX 26 32 4 0
BITMAP
000001C0
003C07C0
007E03C0
00FF83C0
01FFC3C0
03FFE3C0
07FFF380
07FFF380
0FFFFF80
1FFFFF00
1FFFFF00
3FFFFE00
3FFFFC00
7FC3FC00
7F83FC00
FF83FC00
FF03FC00
FF03FC00
FF07FC00
FF8FFC00
FFDFF800
FFFFF800
FFFFF800
FFFFF000
FFFFF000
FFFFE000
FFFFE000
FFFFC000
7FFFC000
3FFF8000
1FFE0000
07F80000
ENDCHAR
STARTCHAR 01AF
ENCODING 431
SWIDTH 607 0
DWIDTH 27 0
BBX 29 32 4 0
BITMAP
00000070
000000F8
008038F8
1FC1F8F0
1FC1FCF0
1F80FCF0
3F01FCF0
3F01FCE0
3F01FFE0
3F01FFE0
3F01FFC0
7F01FFC0
7F01FF00
7F03FE00
7F03F800
FF03F800
FF07F800
FF07F800
FF0FF800
FF7FF000
FFFFF000
FFFFF000
FFFFE000
FFFFE000
FFFFC000
7FFFC000
7FFF8000
3FFF0000
3FFF0000
1FFE0000
1FF80000
01C00000
ENDCHAR
STARTCHAR 01B0
ENCODING 432
SWIDTH 607 0
DWIDTH 27 0
BBX 29 32 4 0
BITMAP
00000070
000000F8
008038F8
1FC1F8F0
1FC1FCF0
1F80FCF0
3F01FCF0
3F01FCE0
3F01FFE0
3F01FFE0
3F01FFC0
7F01FFC0
7F01FF00
7F03FE00
7F03F800
FF03F800
FF07F800
FF07F800
FF0FF800
FF7FF000
FFFFF000
FFFFF000
FFFFE000
FFFFE000
FFFFC000
7FFFC000
7FFF8000
3FFF0000
3FFF0000
1FFE0000
1FF80000
01C00000
ENDCHAR
STARTCHAR 01B1
ENCODING 433
SWIDTH 607 0
DWIDTH 27 0
BBX 30 31 3 0
BITMAP
0FFE0FFC
0FFE1FFC
0FFE1FFC
0FFE1FF8
1FFE1FF8
1FFC3FF8
1FFC1FF0
03F81F80
07F01FC0
07E00FC0
0FE00FC0
0FC00FC0
1F8007E0
3F800FE0
3F800FE0
3F000FE0
7F001FC0
7F001FC0
7F003FC0
7F803F80
FF807F80
FFC1FF80
FFFFFF00
FFFFFE00
7FFFFE00
7FFFFC00
7FFFF800
7FFFF000
3FFFE000
1FFF8000
0FFC0000
ENDCHAR
STARTCHAR 01B2
ENCODING 434
SWIDTH 562 0
DWIDTH 25 0
BBX 23 30 5 1
BITMAP
0003C0
3F0FE0
3F1FF0
3F0FF8
7F07F8
7F07FC
7F03FC
7F01FC
7F01FE
7F01FE
FF01FE
FF01FE
FF01FE
FF01FE
FF01FE
FF03FE
FF03FC
FF07FC
FF8FFC
FFFFF8
FFFFF8
FFFFF8
FFFFF0
FFFFF0
7FFFE0
7FFFC0
3FFF80
1FFF80
1FFE00
0FF800
ENDCHAR
STARTCHAR 01B3
ENCODING 435
SWIDTH 675 0
DWIDTH 30 0
BBX 28 30 6 0
BITMAP
00000FC0
07003FE0
7F803FE0
FF807FF0
7F80FFF0
7FC0FFF0
7FC1FFF0
7FC3FFF0
3FC3F9F0
3FC7F9F0
3FEFF3E0
1FEFE3E0
1FFFE7C0
1FFFCFC0
0FFF9F80
0FFF1F80
0FFF1F00
0FFE1E00
07FC0000
07FC0000
07F80000
03F80000
03F80000
03F80000
07F00000
07F00000
07F00000
07F00000
07F00000
07C00000
ENDCHAR
STARTCHAR 01B4
ENCODING 436
SWIDTH 675 0
DWIDTH 30 0
BBX 28 30 6 0
BITMAP
00000FC0
07003FE0
7F803FE0
FF807FF0
7F80FFF0
7FC0FFF0
7FC1FFF0
7FC3FFF0
3FC3F9F0
3FC7F9F0
3FEFF3E0
1FEFE3E0
1FFFE7C0
1FFFCFC0
0FFF9F80
0FFF1F80
0FFF1F00
0FFE1E00
07FC0000
07FC0000
07F80000
03F80000
03F80000
03F80000
07F00000
07F00000
07F00000
07F00000
07F00000
07C00000
ENDCHAR
STARTCHAR 01B5
ENCODING 437
SWIDTH 585 0
DWIDTH 26 0
BBX 24 31 5 0
BITMAP
0007C0
00FFFF
0FFFFE
1FFFFC
3FFFF8
3FFFF0
7FFFE0
7FFFE0
FE1FC0
003F80
003F80
007F00
007FF8
7FFFF8
7FFFF8
7FFFF8
7FFFF8
FFFFF0
7FF800
07F000
0FF000
0FE000
1FC000
1FFFFE
3FFFFC
7FFFFC
7FFFF8
7FFFF0
0FFFE0
03FFC0
003C00
ENDCHAR
STARTCHAR 01B6
ENCODING 438
SWIDTH 585 0
DWIDTH 26 0
BBX 24 31 5 0
BITMAP
0007C0
00FFFF
0FFFFE
1FFFFC
3FFFF8
3FFFF0
7FFFE0
7FFFE0
FE1FC0
003F80
003F80
007F00
007FF8
7FFFF8
7FFFF8
7FFFF8
7FFFF8
FFFFF0
7FF800
07F000
0FF000
0FE000
1FC000
1FFFFE
3FFFFC
7FFFFC
7FFFF8
7FFFF0
0FFFE0
03FFC0
003C00
ENDCHAR
STARTCHAR 01B7
ENCODING 439
SWIDTH 495 0
DWIDTH 22 0
BBX 23 31 2 -1
BITMAP
01FFFC
03FFFE
03FFFE
03FFFE
01FFFC
0000F8
0003F0
0007E0
001FC0
003F80
00FFC0
01FFF0
03FFF8
07FFF8
07FFF8
01C7F8
0001F8
0000F8
0000FC
0000FC
0000FC
F001F8
FF03F8
FFFFF0
FFFFF0
FFFFE0
FFFFC0
7FFF80
1FFF00
0FFC00
00E000
ENDCHAR
STARTCHAR 01BB
ENCODING 443
SWIDTH 495 0
DWIDTH 22 0
BBX 22 31 3 0
BITMAP
001C00
007F00
01FFC0
03FFE0
07FFF0
1FFFF0
1FFFF0
1FFFE0
0F87E0
0707E0
0407E0
000FC0
0FFFFC
0FFFFC
0FFFFC
1FFFFC
1FFFC0
1FFC00
00FC7C
01FFF8
03FFF8
07FFF8
07FFF0
0FFFF0
1FFFE0
3FFFE0
FFFFC0
FFFFC0
FFFF00
3FF000
010000
ENDCHAR
STARTCHAR 01C0
ENCODING 448
SWIDTH 180 0
DWIDTH 8 0
BBX 13 30 1 0
BITMAP
03F8
03F0
03F0
03F0
07F0
07F0
07E0
07E0
07E0
0FE0
0FE0
0FC0
0FC0
1FC0
1FC0
1FC0
1F80
1F80
3F80
3F80
3F80
3F00
7F00
7F00
7F00
7E00
7E00
7E00
7E00
FC00
ENDCHAR
STARTCHAR 01C1
ENCODING 449
SWIDTH 292 0
DWIDTH 13 0
BBX 18 31 1 0
BITMAP
0001C0
03E7C0
03E7C0
03E7C0
03EFC0
07EFC0
07CF80
07CF80
07CF80
0FDF80
0FDF00
0F9F00
0F9F00
0F9F00
1FBF00
1FBE00
1F3E00
1F3E00
3F7E00
3F7E00
3F7C00
3E7C00
3E7C00
7EFC00
7EF800
7CF800
7CF800
7CF800
7DF000
F9F000
F8B000
ENDCHAR
STARTCHAR 01C2
ENCODING 450
SWIDTH 315 0
DWIDTH 14 0
BBX 17 30 2 0
BITMAP
007E00
00FE00
00FC00
00FC00
01FC00
01FC00
01FC00
0FFF80
1FFF00
1FFF00
1FFF00
1FFF00
3FF000
03F000
07F000
07F000
07F000
07E000
3FFC00
7FFC00
7FFC00
7FFC00
FFF800
FFF800
1FC000
1FC000
1F8000
1F8000
1F8000
3F8000
ENDCHAR
STARTCHAR 01C3
ENCODING 451
SWIDTH 202 0
DWIDTH 9 0
BBX 13 31 2 0
BITMAP
03F8
07F8
07F8
07F8
07F0
0FF0
0FF0
0FF0
0FF0
0FE0
1FE0
1FE0
1FC0
1FC0
1FC0
3F80
3F80
3F80
3F80
3F00
1800
0000
0000
1C00
7E00
FE00
FE00
FE00
FE00
FC00
7000
ENDCHAR
STARTCHAR 01CA
ENCODING 458
SWIDTH 720 0
DWIDTH 32 0
BBX 37 30 1 0
BITMAP
00201803F8
00FC7E03F8
00FCFE07F0
01FCFC07F0
01F8FC07F0
01F8FC0FF0
03F9FC0FF0
03F9F80FE0
03F9F81FE0
07F9F81FE0
07F9F01FE0
07FBF01FE0
0FFBF01FE0
0FFBE03FE0
0FFBE03FC0
0FFFE03FC0
1FFFE03FC0
1FBFC03FC0
1FBFC03F80
3FBFC03F80
3FBFCF3F80
3F3F9F3F00
3F3F9FBF00
7F3F9FBE00
7F3F9FFE00
7E3F1FFC00
7E3F1FFC00
FE7F1FF800
FE7E0FF000
E00003C000
ENDCHAR
STARTCHAR 01CB
ENCODING 459
SWIDTH 720 0
DWIDTH 32 0
BBX 37 30 1 0
BITMAP
00201803F8
00FC7E03F8
00FCFE07F0
01FCFC07F0
01F8FC07F0
01F8FC0FF0
03F9FC0FF0
03F9F80FE0
03F9F81FE0
07F9F81FE0
07F9F01FE0
07FBF01FE0
0FFBF01FE0
0FFBE03FE0
0FFBE03FC0
0FFFE03FC0
1FFFE03FC0
1FBFC03FC0
1FBFC03F80
3FBFC03F80
3FBFCF3F80
3F3F9F3F00
3F3F9FBF00
7F3F9FBE00
7F3F9FFE00
7E3F1FFC00
7E3F1FFC00
FE7F1FF800
FE7E0FF000
E00003C000
ENDCHAR
STARTCHAR 01CC
ENCODING 460
SWIDTH 720 0
DWIDTH 32 0
BBX 37 30 1 0
BITMAP
00201803F8
00FC7E03F8
00FCFE07F0
01FCFC07F0
01F8FC07F0
01F8FC0FF0
03F9FC0FF0
03F9F80FE0
03F9F81FE0
07F9F81FE0
07F9F01FE0
07FBF01FE0
0FFBF01FE0
0FFBE03FE0
0FFBE03FC0
0FFFE03FC0
1FFFE03FC0
1FBFC03FC0
1FBFC03F80
3FBFC03F80
3FBFCF3F80
3F3F9F3F00
3F3F9FBF00
7F3F9FBE00
7F3F9FFE00
7E3F1FFC00
7E3F1FFC00
FE7F1FF800
FE7E0FF000
E00003C000
ENDCHAR
STARTCHAR 01CD
ENCODING 461
SWIDTH 630 0
DWIDTH 28 0
BBX 28 39 1 -1
BITMAP
0001F0F0
0001F3F0
0001FFE0
0000FFC0
00007F80
00003E00
00001800
00000000
00001C00
00003E00
00007E00
0000FE00
0000FE00
0001FE00
0001FE00
0003FE00
0003FE00
0007FE00
000FFE00
000FFE00
001FFE00
003FFF00
003FFF00
007FFF00
007DFF00
00F8FF00
01F0FF00
01E0FF00
03EFFF00
07FFFF00
07FFFF80
0FFFFF80
1FE1FF80
1FC1FF80
3F81FFC0
7F81FFC0
7F01FFC0
FF01FFC0
FC008000
ENDCHAR
STARTCHAR 01CE
ENCODING 462
SWIDTH 630 0
DWIDTH 28 0
BBX 28 39 1 -1
BITMAP
0001F0F0
0001F3F0
0001FFE0
0000FFC0
00007F80
00003E00
00001800
00000000
00001C00
00003E00
00007E00
0000FE00
0000FE00
0001FE00
0001FE00
0003FE00
0003FE00
0007FE00
000FFE00
000FFE00
001FFE00
003FFF00
003FFF00
007FFF00
007DFF00
00F8FF00
01F0FF00
01E0FF00
03EFFF00
07FFFF00
07FFFF80
0FFFFF80
1FE1FF80
1FC1FF80
3F81FFC0
7F81FFC0
7F01FFC0
FF01FFC0
FC008000
ENDCHAR
STARTCHAR 01CF
ENCODING 463
SWIDTH 315 0
DWIDTH 14 0
BBX 23 38 1 0
BITMAP
003C3E
003E7E
003FFC
001FF8
000FF0
0007C0
000300
000000
003FC0
007FE0
007FE0
007FC0
00FFC0
00FF80
00FF80
01FF80
01FF00
01FF00
03FF00
03FF00
03FE00
03FE00
07FE00
07FE00
07FC00
0FFC00
0FFC00
0FFC00
0FFC00
1FF800
1FF800
1FF800
1FF000
3FF000
3FE000
7FE000
7FC000
F80000
ENDCHAR
STARTCHAR 01D0
ENCODING 464
SWIDTH 315 0
DWIDTH 14 0
BBX 23 38 1 0
BITMAP
003C3E
003E7E
003FFC
001FF8
000FF0
0007C0
000300
000000
003FC0
007FE0
007FE0
007FC0
00FFC0
00FF80
00FF80
01FF80
01FF00
01FF00
03FF00
03FF00
03FE00
03FE00
07FE00
07FE00
07FC00
0FFC00
0FFC00
0FFC00
0FFC00
1FF800
1FF800
1FF800
1FF000
3FF000
3FE000
7FE000
7FC000
F80000
ENDCHAR
STARTCHAR 01D1
ENCODING 465
SWIDTH 517 0
DWIDTH 23 0
BBX 22 39 4 0
BITMAP
000100
07C3C0
07E7C0
03FF80
03FF00
01FC00
007800
000000
003C00
007E00
00FF80
01FFC0
03FFE0
07FFF0
07FFF0
0FFFF8
1FFFF8
1FFFFC
3FFFFC
3FFFFC
7FC3FC
7F83FC
FF83FC
FF03FC
FF03FC
FF07FC
FF8FFC
FFDFF8
FFFFF8
FFFFF8
FFFFF0
FFFFF0
FFFFE0
FFFFE0
FFFFC0
7FFFC0
3FFF80
1FFE00
07F800
ENDCHAR
STARTCHAR 01D2
ENCODING 466
SWIDTH 517 0
DWIDTH 23 0
BBX 22 39 4 0
BITMAP
000100
07C3C0
07E7C0
03FF80
03FF00
01FC00
007800
000000
003C00
007E00
00FF80
01FFC0
03FFE0
07FFF0
07FFF0
0FFFF8
1FFFF8
1FFFFC
3FFFFC
3FFFFC
7FC3FC
7F83FC
FF83FC
FF03FC
FF03FC
FF07FC
FF8FFC
FFDFF8
FFFFF8
FFFFF8
FFFFF0
FFFFF0
FFFFE0
FFFFE0
FFFFC0
7FFFC0
3FFF80
1FFE00
07F800
ENDCHAR
STARTCHAR 01D3
ENCODING 467
SWIDTH 540 0
DWIDTH 24 0
BBX 27 37 3 1
BITMAP
000787C0
000FCFC0
0007FF80
0003FF00
0001FC00
0000F800
00004000
01000000
01F80FC0
03F81FE0
03F81FC0
07F01FC0
07F01FC0
0FF01FC0
0FE01F80
0FE03F80
1FE03F80
1FC03F80
3FC07F00
3FC07F00
3FC07F00
7FC0FF00
7FC0FF00
7FC1FF00
7FE1FE00
7FFFFE00
7FFFFC00
FFFFFC00
FFFFF800
7FFFF800
7FFFF000
7FFFE000
7FFFC000
3FFF8000
3FFF0000
1FFE0000
07FC0000
ENDCHAR
STARTCHAR 01D4
ENCODING 468
SWIDTH 540 0
DWIDTH 24 0
BBX 27 37 3 1
BITMAP
000787C0
000FCFC0
0007FF80
0003FF00
0001FC00
0000F800
00004000
01000000
01F80FC0
03F81FE0
03F81FC0
07F01FC0
07F01FC0
0FF01FC0
0FE01F80
0FE03F80
1FE03F80
1FC03F80
3FC07F00
3FC07F00
3FC07F00
7FC0FF00
7FC0FF00
7FC1FF00
7FE1FE00
7FFFFE00
7FFFFC00
FFFFFC00
FFFFF800
7FFFF800
7FFFF000
7FFFE000
7FFFC000
3FFF8000
3FFF0000
1FFE0000
07FC0000
ENDCHAR
STARTCHAR 01D5
ENCODING 469
SWIDTH 540 0
DWIDTH 24 0
BBX 27 39 3 1
BITMAP
0007FFC0
0007FFC0
000FFFC0
00000000
00000000
000F0F00
000F1F00
000F1F00
000E1E00
01000000
01F80FC0
03F81FE0
03F81FC0
07F01FC0
07F01FC0
0FF01FC0
0FE01F80
0FE03F80
1FE03F80
1FC03F80
3FC07F00
3FC07F00
3FC07F00
7FC0FF00
7FC0FF00
7FC1FF00
7FE1FE00
7FFFFE00
7FFFFC00
FFFFFC00
FFFFF800
7FFFF800
7FFFF000
7FFFE000
7FFFC000
3FFF8000
3FFF0000
1FFE0000
07FC0000
ENDCHAR
STARTCHAR 01D6
ENCODING 470
SWIDTH 540 0
DWIDTH 24 0
BBX 27 39 3 1
BITMAP
0007FFC0
0007FFC0
000FFFC0
00000000
00000000
000F0F00
000F1F00
000F1F00
000E1E00
01000000
01F80FC0
03F81FE0
03F81FC0
07F01FC0
07F01FC0
0FF01FC0
0FE01F80
0FE03F80
1FE03F80
1FC03F80
3FC07F00
3FC07F00
3FC07F00
7FC0FF00
7FC0FF00
7FC1FF00
7FE1FE00
7FFFFE00
7FFFFC00
FFFFFC00
FFFFF800
7FFFF800
7FFFF000
7FFFE000
7FFFC000
3FFF8000
3FFF0000
1FFE0000
07FC0000
ENDCHAR
STARTCHAR 01D7
ENCODING 471
SWIDTH 540 0
DWIDTH 24 0
BBX 27 39 3 1
BITMAP
00000FC0
00001F80
00003E00
00007C00
00000000
000F0F00
000F1F00
000F1F00
000E1E00
01000000
01F80FC0
03F81FE0
03F81FC0
07F01FC0
07F01FC0
0FF01FC0
0FE01F80
0FE03F80
1FE03F80
1FC03F80
3FC07F00
3FC07F00
3FC07F00
7FC0FF00
7FC0FF00
7FC1FF00
7FE1FE00
7FFFFE00
7FFFFC00
FFFFFC00
FFFFF800
7FFFF800
7FFFF000
7FFFE000
7FFFC000
3FFF8000
3FFF0000
1FFE0000
07FC0000
ENDCHAR
STARTCHAR 01D8
ENCODING 472
SWIDTH 540 0
DWIDTH 24 0
BBX 27 39 3 1
BITMAP
00000FC0
00001F80
00003E00
00007C00
00000000
000F0F00
000F1F00
000F1F00
000E1E00
01000000
01F80FC0
03F81FE0
03F81FC0
07F01FC0
07F01FC0
0FF01FC0
0FE01F80
0FE03F80
1FE03F80
1FC03F80
3FC07F00
3FC07F00
3FC07F00
7FC0FF00
7FC0FF00
7FC1FF00
7FE1FE00
7FFFFE00
7FFFFC00
FFFFFC00
FFFFF800
7FFFF800
7FFFF000
7FFFE000
7FFFC000
3FFF8000
3FFF0000
1FFE0000
07FC0000
ENDCHAR
STARTCHAR 01D9
ENCODING 473
SWIDTH 540 0
DWIDTH 24 0
BBX 27 39 3 1
BITMAP
0007C7C0
0007FFC0
0003FF00
0000FC00
00007000
000F0F00
000F1F00
000F1F00
000E1E00
01000000
01F80FC0
03F81FE0
03F81FC0
07F01FC0
07F01FC0
0FF01FC0
0FE01F80
0FE03F80
1FE03F80
1FC03F80
3FC07F00
3FC07F00
3FC07F00
7FC0FF00
7FC0FF00
7FC1FF00
7FE1FE00
7FFFFE00
7FFFFC00
FFFFFC00
FFFFF800
7FFFF800
7FFFF000
7FFFE000
7FFFC000
3FFF8000
3FFF0000
1FFE0000
07FC0000
ENDCHAR
STARTCHAR 01DA
ENCODING 474
SWIDTH 540 0
DWIDTH 24 0
BBX 27 39 3 1
BITMAP
0007C7C0
0007FFC0
0003FF00
0000FC00
00007000
000F0F00
000F1F00
000F1F00
000E1E00
01000000
01F80FC0
03F81FE0
03F81FC0
07F01FC0
07F01FC0
0FF01FC0
0FE01F80
0FE03F80
1FE03F80
1FC03F80
3FC07F00
3FC07F00
3FC07F00
7FC0FF00
7FC0FF00
7FC1FF00
7FE1FE00
7FFFFE00
7FFFFC00
FFFFFC00
FFFFF800
7FFFF800
7FFFF000
7FFFE000
7FFFC000
3FFF8000
3FFF0000
1FFE0000
07FC0000
ENDCHAR
STARTCHAR 01DB
ENCODING 475
SWIDTH 540 0
DWIDTH 24 0
BBX 27 39 3 1
BITMAP
0007E000
0003E000
0001F000
0000F800
00000000
000F0F00
000F1F00
000F1F00
000E1E00
01000000
01F80FC0
03F81FE0
03F81FC0
07F01FC0
07F01FC0
0FF01FC0
0FE01F80
0FE03F80
1FE03F80
1FC03F80
3FC07F00
3FC07F00
3FC07F00
7FC0FF00
7FC0FF00
7FC1FF00
7FE1FE00
7FFFFE00
7FFFFC00
FFFFFC00
FFFFF800
7FFFF800
7FFFF000
7FFFE000
7FFFC000
3FFF8000
3FFF0000
1FFE0000
07FC0000
ENDCHAR
STARTCHAR 01DC
ENCODING 476
SWIDTH 540 0
DWIDTH 24 0
BBX 27 39 3 1
BITMAP
0007E000
0003E000
0001F000
0000F800
00000000
000F0F00
000F1F00
000F1F00
000E1E00
01000000
01F80FC0
03F81FE0
03F81FC0
07F01FC0
07F01FC0
0FF01FC0
0FE01F80
0FE03F80
1FE03F80
1FC03F80
3FC07F00
3FC07F00
3FC07F00
7FC0FF00
7FC0FF00
7FC1FF00
7FE1FE00
7FFFFE00
7FFFFC00
FFFFFC00
FFFFF800
7FFFF800
7FFFF000
7FFFE000
7FFFC000
3FFF8000
3FFF0000
1FFE0000
07FC0000
ENDCHAR
STARTCHAR 01DE
ENCODING 478
SWIDTH 630 0
DWIDTH 28 0
BBX 29 41 1 -1
BITMAP
0000FFF8
0000FFF8
0000FFF8
00000000
000000C0
0000F1E0
0001F1E0
0001F1E0
0000E0C0
00000000
00001C00
00003E00
00007E00
0000FE00
0000FE00
0001FE00
0001FE00
0003FE00
0003FE00
0007FE00
000FFE00
000FFE00
001FFE00
003FFF00
003FFF00
007FFF00
007DFF00
00F8FF00
01F0FF00
01E0FF00
03EFFF00
07FFFF00
07FFFF80
0FFFFF80
1FE1FF80
1FC1FF80
3F81FFC0
7F81FFC0
7F01FFC0
FF01FFC0
FC008000
ENDCHAR
STARTCHAR 01DF
ENCODING 479
SWIDTH 630 0
DWIDTH 28 0
BBX 29 41 1 -1
BITMAP
0000FFF8
0000FFF8
0000FFF8
00000000
000000C0
0000F1E0
0001F1E0
0001F1E0
0000E0C0
00000000
00001C00
00003E00
00007E00
0000FE00
0000FE00
0001FE00
0001FE00
0003FE00
0003FE00
0007FE00
000FFE00
000FFE00
001FFE00
003FFF00
003FFF00
007FFF00
007DFF00
00F8FF00
01F0FF00
01E0FF00
03EFFF00
07FFFF00
07FFFF80
0FFFFF80
1FE1FF80
1FC1FF80
3F81FFC0
7F81FFC0
7F01FFC0
FF01FFC0
FC008000
ENDCHAR
STARTCHAR 01E0
ENCODING 480
SWIDTH 630 0
DWIDTH 28 0
BBX 29 41 1 -1
BITMAP
0000FFF8
0000FFF8
0000FFF8
00000000
00000000
00000F00
00001F00
00001E00
00000C00
00000000
00001C00
00003E00
00007E00
0000FE00
0000FE00
0001FE00
0001FE00
0003FE00
0003FE00
0007FE00
000FFE00
000FFE00
001FFE00
003FFF00
003FFF00
007FFF00
007DFF00
00F8FF00
01F0FF00
01E0FF00
03EFFF00
07FFFF00
07FFFF80
0FFFFF80
1FE1FF80
1FC1FF80
3F81FFC0
7F81FFC0
7F01FFC0
FF01FFC0
FC008000
ENDCHAR
STARTCHAR 01E1
ENCODING 481
SWIDTH 630 0
DWIDTH 28 0
BBX 29 41 1 -1
BITMAP
0000FFF8
0000FFF8
0000FFF8
00000000
00000000
00000F00
00001F00
00001E00
00000C00
00000000
00001C00
00003E00
00007E00
0000FE00
0000FE00
0001FE00
0001FE00
0003FE00
0003FE00
0007FE00
000FFE00
000FFE00
001FFE00
003FFF00
003FFF00
007FFF00
007DFF00
00F8FF00
01F0FF00
01E0FF00
03EFFF00
07FFFF00
07FFFF80
0FFFFF80
1FE1FF80
1FC1FF80
3F81FFC0
7F81FFC0
7F01FFC0
FF01FFC0
FC008000
ENDCHAR
STARTCHAR 01E2
ENCODING 482
SWIDTH 720 0
DWIDTH 32 0
BBX 33 37 1 -1
BITMAP
00000FFF80
00000FFF80
00000FFF80
00001FFF00
0000000000
000001F800
00003FFF80
00003FFF80
00007FFF00
0000FFFF00
0000FFFE00
0001FFFE00
0001FFFE00
0003FFFE00
0007FFFC00
0007FF0000
000FFF0000
000FFF0000
001FFFF800
003FFFF800
003FFFF800
007FFFF800
00F9FFD000
00F0FF0000
01F0FF0300
03E0FFFF00
03FFFFFF00
07FFFFFF00
0FFFFFFF00
0FFFFFFF00
1FE1FFFF00
1FC1FFFF00
3F81FFFF00
7F81FFF800
7F01FF8000
FF01F80000
E000000000
ENDCHAR
STARTCHAR 01E3
ENCODING 483
SWIDTH 720 0
DWIDTH 32 0
BBX 33 37 1 -1
BITMAP
00000FFF80
00000FFF80
00000FFF80
00001FFF00
0000000000
000001F800
00003FFF80
00003FFF80
00007FFF00
0000FFFF00
0000FFFE00
0001FFFE00
0001FFFE00
0003FFFE00
0007FFFC00
0007FF0000
000FFF0000
000FFF0000
001FFFF800
003FFFF800
003FFFF800
007FFFF800
00F9FFD000
00F0FF0000
01F0FF0300
03E0FFFF00
03FFFFFF00
07FFFFFF00
0FFFFFFF00
0FFFFFFF00
1FE1FFFF00
1FC1FFFF00
3F81FFFF00
7F81FFF800
7F01FF8000
FF01F80000
E000000000
ENDCHAR
STARTCHAR 01E4
ENCODING 484
SWIDTH 540 0
DWIDTH 24 0
BBX 24 31 4 0
BITMAP
000200
0007FC
001FFE
003FFF
007FFF
007FFF
00FFFF
01FF3E
03F800
03F000
07F800
7FF800
7FF800
FFF83E
FFFBFE
FFF7FE
1F87FE
3F87FC
3F87FC
7F07FC
7F87FC
7FDFF8
7FFFF8
FFFFF8
FFFFF8
7FFFE0
7FFFC0
7FFF00
3FFC00
1FE000
080000
ENDCHAR
STARTCHAR 01E5
ENCODING 485
SWIDTH 540 0
DWIDTH 24 0
BBX 24 31 4 0
BITMAP
000200
0007FC
001FFE
003FFF
007FFF
007FFF
00FFFF
01FF3E
03F800
03F000
07F800
7FF800
7FF800
FFF83E
FFFBFE
FFF7FE
1F87FE
3F87FC
3F87FC
7F07FC
7F87FC
7FDFF8
7FFFF8
FFFFF8
FFFFF8
7FFFE0
7FFFC0
7FFF00
3FFC00
1FE000
080000
ENDCHAR
STARTCHAR 01E6
ENCODING 486
SWIDTH 495 0
DWIDTH 22 0
BBX 25 38 2 0
BITMAP
000F0F80
001F9F80
000FFF00
0007FE00
0003F800
0001F000
00008000
00020000
0007FC00
001FFE00
003FFF00
007FFF00
00FFFF00
00FFFF00
01FF3E00
03F80000
03F00000
07E00000
07E00000
0FC00000
0FC03E00
1F83FE00
1F87FE00
1F87FE00
3F07FC00
3F07FC00
7F07FC00
7F87FC00
7FDFF800
7FFFF800
FFFFF800
FFFFF800
FFFFE000
7FFFC000
7FFF0000
3FFC0000
1FE00000
08000000
ENDCHAR
STARTCHAR 01E7
ENCODING 487
SWIDTH 495 0
DWIDTH 22 0
BBX 25 38 2 0
BITMAP
000F0F80
001F9F80
000FFF00
0007FE00
0003F800
0001F000
00008000
00020000
0007FC00
001FFE00
003FFF00
007FFF00
00FFFF00
00FFFF00
01FF3E00
03F80000
03F00000
07E00000
07E00000
0FC00000
0FC03E00
1F83FE00
1F87FE00
1F87FE00
3F07FC00
3F07FC00
7F07FC00
7F87FC00
7FDFF800
7FFFF800
FFFFF800
FFFFF800
FFFFE000
7FFFC000
7FFF0000
3FFC0000
1FE00000
08000000
ENDCHAR
STARTCHAR 01E8
ENCODING 488
SWIDTH 540 0
DWIDTH 24 0
BBX 29 38 1 0
BITMAP
0001F0F0
0001FBF0
0000FFE0
0000FFC0
00007F80
00003E00
00000800
00000080
03FFC180
01FFC3C0
03FFC7F8
03FF8FF0
03FF9FE0
03FFBFC0
07FFBF80
07FF7F00
07FFFE00
07FFFC00
0FFFFC00
0FFFF800
0FFFF000
1FFFE000
1FFFE000
1FFF8000
1FFFC000
3FFFE000
3FFFF000
3FFFF000
3FFFF800
7FFBF800
7FFBFC00
7FF9FC00
7FF1FE00
7FF1FE00
7FF0FE00
FFF0FE00
FFF07000
01C0C000
ENDCHAR
STARTCHAR 01E9
ENCODING 489
SWIDTH 540 0
DWIDTH 24 0
BBX 29 38 1 0
BITMAP
0001F0F0
0001FBF0
0000FFE0
0000FFC0
00007F80
00003E00
00000800
00000080
03FFC180
01FFC3C0
03FFC7F8
03FF8FF0
03FF9FE0
03FFBFC0
07FFBF80
07FF7F00
07FFFE00
07FFFC00
0FFFFC00
0FFFF800
0FFFF000
1FFFE000
1FFFE000
1FFF8000
1FFFC000
3FFFE000
3FFFF000
3FFFF000
3FFFF800
7FFBF800
7FFBFC00
7FF9FC00
7FF1FE00
7FF1FE00
7FF0FE00
FFF0FE00
FFF07000
01C0C000
ENDCHAR
STARTCHAR 01EA
ENCODING 490
SWIDTH 517 0
DWIDTH 23 0
BBX 22 38 4 -7
BITMAP
003C00
007E00
00FF80
01FFC0
03FFE0
07FFF0
07FFF0
0FFFF8
1FFFF8
1FFFFC
3FFFFC
3FFFFC
7FC3FC
7F83FC
FF83FC
FF03FC
FF03FC
FF07FC
FF8FFC
FFDFF8
FFFFF8
FFFFF8
FFFFF0
FFFFF0
FFFFE0
FFFFE0
FFFFC0
7FFFC0
3FFF80
1FFE00
07F800
03C000
038000
078000
0F8700
0FFF00
0FFF00
07FE00
ENDCHAR
STARTCHAR 01EB
ENCODING 491
SWIDTH 517 0
DWIDTH 23 0
BBX 22 38 4 -7
BITMAP
003C00
007E00
00FF80
01FFC0
03FFE0
07FFF0
07FFF0
0FFFF8
1FFFF8
1FFFFC
3FFFFC
3FFFFC
7FC3FC
7F83FC
FF83FC
FF03FC
FF03FC
FF07FC
FF8FFC
FFDFF8
FFFFF8
FFFFF8
FFFFF0
FFFFF0
FFFFE0
FFFFE0
FFFFC0
7FFFC0
3FFF80
1FFE00
07F800
03C000
038000
078000
0F8700
0FFF00
0FFF00
07FE00
ENDCHAR
STARTCHAR 01EC
ENCODING 492
SWIDTH 517 0
DWIDTH 23 0
BBX 22 43 4 -7
BITMAP
03FFE0
07FFC0
07FFC0
07FFC0
000000
003C00
007E00
00FF80
01FFC0
03FFE0
07FFF0
07FFF0
0FFFF8
1FFFF8
1FFFFC
3FFFFC
3FFFFC
7FC3FC
7F83FC
FF83FC
FF03FC
FF03FC
FF07FC
FF8FFC
FFDFF8
FFFFF8
FFFFF8
FFFFF0
FFFFF0
FFFFE0
FFFFE0
FFFFC0
7FFFC0
3FFF80
1FFE00
07F800
03C000
038000
078000
0F8700
0FFF00
0FFF00
07FE00
ENDCHAR
STARTCHAR 01ED
ENCODING 493
SWIDTH 517 0
DWIDTH 23 0
BBX 22 43 4 -7
BITMAP
03FFE0
07FFC0
07FFC0
07FFC0
000000
003C00
007E00
00FF80
01FFC0
03FFE0
07FFF0
07FFF0
0FFFF8
1FFFF8
1FFFFC
3FFFFC
3FFFFC
7FC3FC
7F83FC
FF83FC
FF03FC
FF03FC
FF07FC
FF8FFC
FFDFF8
FFFFF8
FFFFF8
FFFFF0
FFFFF0
FFFFE0
FFFFE0
FFFFC0
7FFFC0
3FFF80
1FFE00
07F800
03C000
038000
078000
0F8700
0FFF00
0FFF00
07FE00
ENDCHAR
STARTCHAR 01EE
ENCODING 494
SWIDTH 495 0
DWIDTH 22 0
BBX 23 39 2 -1
BITMAP
003C3C
007E7E
003FFC
003FF8
001FE0
000FC0
000700
000000
01FFFC
03FFFE
03FFFE
03FFFE
01FFFC
0000F8
0003F0
0007E0
001FC0
003F80
00FFC0
01FFF0
03FFF8
07FFF8
07FFF8
01C7F8
0001F8
0000F8
0000FC
0000FC
0000FC
F001F8
FF03F8
FFFFF0
FFFFF0
FFFFE0
FFFFC0
7FFF80
1FFF00
0FFC00
00E000
ENDCHAR
STARTCHAR 01EF
ENCODING 495
SWIDTH 495 0
DWIDTH 22 0
BBX 23 39 2 -1
BITMAP
003C3C
007E7E
003FFC
003FF8
001FE0
000FC0
000700
000000
01FFFC
03FFFE
03FFFE
03FFFE
01FFFC
0000F8
0003F0
0007E0
001FC0
003F80
00FFC0
01FFF0
03FFF8
07FFF8
07FFF8
01C7F8
0001F8
0000F8
0000FC
0000FC
0000FC
F001F8
FF03F8
FFFFF0
FFFFF0
FFFFE0
FFFFC0
7FFF80
1FFF00
0FFC00
00E000
ENDCHAR
STARTCHAR 01F0
ENCODING 496
SWIDTH 450 0
DWIDTH 20 0
BBX 27 38 2 0
BITMAP
0003C3E0
0007EFE0
0003FFC0
0001FF00
0000FE00
00007800
00002000
00000000
0003FE00
0007FE00
0007FE00
0007FE00
000FFE00
000FFE00
001FFC00
001FFC00
001FFC00
003FFC00
003FFC00
003FFC00
003FF800
003FF800
003FF800
003FF800
003FF800
003FF000
003FF000
003FF000
3E3FE000
7F3FE000
FF3FC000
FFBF8000
FFFF8000
FFFF0000
7FFE0000
7FFC0000
1FF80000
07E00000
ENDCHAR
STARTCHAR 01F4
ENCODING 500
SWIDTH 495 0
DWIDTH 22 0
BBX 25 38 2 0
BITMAP
00001F80
00003F00
00007E00
0000FC00
0001F800
0001E000
00000000
00020000
0007FC00
001FFE00
003FFF00
007FFF00
00FFFF00
00FFFF00
01FF3E00
03F80000
03F00000
07E00000
07E00000
0FC00000
0FC03E00
1F83FE00
1F87FE00
1F87FE00
3F07FC00
3F07FC00
7F07FC00
7F87FC00
7FDFF800
7FFFF800
FFFFF800
FFFFF800
FFFFE000
7FFFC000
7FFF0000
3FFC0000
1FE00000
08000000
ENDCHAR
STARTCHAR 01F5
ENCODING 501
SWIDTH 495 0
DWIDTH 22 0
BBX 25 38 2 0
BITMAP
00001F80
00003F00
00007E00
0000FC00
0001F800
0001E000
00000000
00020000
0007FC00
001FFE00
003FFF00
007FFF00
00FFFF00
00FFFF00
01FF3E00
03F80000
03F00000
07E00000
07E00000
0FC00000
0FC03E00
1F83FE00
1F87FE00
1F87FE00
3F07FC00
3F07FC00
7F07FC00
7F87FC00
7FDFF800
7FFFF800
FFFFF800
FFFFF800
FFFFE000
7FFFC000
7FFF0000
3FFC0000
1FE00000
08000000
ENDCHAR
STARTCHAR 01F8
ENCODING 504
SWIDTH 562 0
DWIDTH 25 0
BBX 29 38 1 0
BITMAP
0003F000
0001F800
0001F800
0000FC00
00007C00
00007C00
00002000
00000000
00180060
007F83F8
00FFC7F8
00FF8FF8
00FF8FF8
01FF8FF0
01FF8FF0
03FF9FF0
03FF9FE0
03FF9FE0
07FF9FE0
07FF9FC0
07FFBFC0
0FFFBFC0
0FFFBF80
0FFFBF80
0FFFFF80
1FFFFF80
1FFFFF00
1FF7FF00
3FE7FF00
3FE7FF00
3FE7FE00
3FC7FE00
7FC7FE00
7FC7FC00
7FC7FC00
FF87FC00
FF87F800
F0000000
ENDCHAR
STARTCHAR 01F9
ENCODING 505
SWIDTH 562 0
DWIDTH 25 0
BBX 29 38 1 0
BITMAP
0003F000
0001F800
0001F800
0000FC00
00007C00
00007C00
00002000
00000000
00180060
007F83F8
00FFC7F8
00FF8FF8
00FF8FF8
01FF8FF0
01FF8FF0
03FF9FF0
03FF9FE0
03FF9FE0
07FF9FE0
07FF9FC0
07FFBFC0
0FFFBFC0
0FFFBF80
0FFFBF80
0FFFFF80
1FFFFF80
1FFFFF00
1FF7FF00
3FE7FF00
3FE7FF00
3FE7FE00
3FC7FE00
7FC7FE00
7FC7FC00
7FC7FC00
FF87FC00
FF87F800
F0000000
ENDCHAR
STARTCHAR 01FE
ENCODING 510
SWIDTH 517 0
DWIDTH 23 0
BBX 30 38 0 -1
BITMAP
00003F00
00007E00
0000FC00
0001F800
0001F000
0003E000
00004080
0003C1FC
0007E3FC
000FFBF8
001FFFF0
003FFFE0
007FFFE0
007FFFC0
00FFFF80
01FFFF80
01FFFFC0
03FFFFC0
03FFFFC0
07F3FFC0
07E7FFC0
0FEFFFC0
0FCFDFC0
0FDF9FC0
0FFF3FC0
0FFE3FC0
0FFE7F80
0FFFFF80
0FFFFF80
0FFFFF00
0FFFFF00
0FFFFE00
0FFFFE00
1FFFFC00
3FFFFC00
7FFFF800
FDFFE000
B87F8000
ENDCHAR
STARTCHAR 01FF
ENCODING 511
SWIDTH 517 0
DWIDTH 23 0
BBX 30 38 0 -1
BITMAP
00003F00
00007E00
0000FC00
0001F800
0001F000
0003E000
00004080
0003C1FC
0007E3FC
000FFBF8
001FFFF0
003FFFE0
007FFFE0
007FFFC0
00FFFF80
01FFFF80
01FFFFC0
03FFFFC0
03FFFFC0
07F3FFC0
07E7FFC0
0FEFFFC0
0FCFDFC0
0FDF9FC0
0FFF3FC0
0FFE3FC0
0FFE7F80
0FFFFF80
0FFFFF80
0FFFFF00
0FFFFF00
0FFFFE00
0FFFFE00
1FFFFC00
3FFFFC00
7FFFF800
FDFFE000
B87F8000
ENDCHAR
STARTCHAR 0218
ENCODING 536
SWIDTH 495 0
DWIDTH 22 0
BBX 26 38 2 -7
BITMAP
0001F000
001FFFC0
007FFF80
00FFFF80
00FFFF00
01FFFE00
03FFFE00
03FFFC00
07FFF800
07FFF800
0FFFF000
0FFFF000
0FF02000
0FF80000
07FE0000
07FF8000
07FFE000
03FFF000
007FF000
000FF000
0007F000
0007F800
700FF800
7FFFF000
FFFFF000
FFFFF000
FFFFE000
FFFFC000
7FFF0000
3FFE0000
1FF80000
00000000
07C00000
0FC00000
0FC00000
0F800000
1F000000
1E000000
ENDCHAR
STARTCHAR 0219
ENCODING 537
SWIDTH 495 0
DWIDTH 22 0
BBX 26 38 2 -7
BITMAP
0001F000
001FFFC0
007FFF80
00FFFF80
00FFFF00
01FFFE00
03FFFE00
03FFFC00
07FFF800
07FFF800
0FFFF000
0FFFF000
0FF02000
0FF80000
07FE0000
07FF8000
07FFE000
03FFF000
007FF000
000FF000
0007F000
0007F800
700FF800
7FFFF000
FFFFF000
FFFFF000
FFFFE000
FFFFC000
7FFF0000
3FFE0000
1FF80000
00000000
07C00000
0FC00000
0FC00000
0F800000
1F000000
1E000000
ENDCHAR
STARTCHAR 021A
ENCODING 538
SWIDTH 562 0
DWIDTH 25 0
BBX 25 37 5 -7
BITMAP
07FFFE00
3FFFFF80
3FFFFF80
3FFFFF80
3FFFFF80
7FFFFF80
7FFFFF80
7FFFFF80
FFFFF000
FE7F8000
C07F0000
007F0000
007E0000
00FE0000
00FE0000
00FE0000
00FC0000
01FC0000
01FC0000
01FC0000
01F80000
01F80000
03F80000
03F80000
03F80000
03F00000
07F00000
07F00000
07F00000
07E00000
00000000
0FC00000
0FC00000
0FC00000
1F800000
1F000000
1E000000
ENDCHAR
STARTCHAR 021B
ENCODING 539
SWIDTH 562 0
DWIDTH 25 0
BBX 25 37 5 -7
BITMAP
07FFFE00
3FFFFF80
3FFFFF80
3FFFFF80
3FFFFF80
7FFFFF80
7FFFFF80
7FFFFF80
FFFFF000
FE7F8000
C07F0000
007F0000
007E0000
00FE0000
00FE0000
00FE0000
00FC0000
01FC0000
01FC0000
01FC0000
01F80000
01F80000
03F80000
03F80000
03F80000
03F00000
07F00000
07F00000
07F00000
07E00000
00000000
0FC00000
0FC00000
0FC00000
1F800000
1F000000
1E000000
ENDCHAR
STARTCHAR 021E
ENCODING 542
SWIDTH 562 0
DWIDTH 25 0
BBX 29 37 1 1
BITMAP
0000F078
0000F9F8
0000FFF0
00007FE0
00003FC0
00001F00
00000C00
00000000
000FC000
007FC3F8
00FF83F8
00FF87F8
00FF87F8
00FF87F0
00FF0FF0
01FF0FF0
01FF1FE0
01FF1FE0
03FF1FE0
03FFFFE0
03FFFFC0
07FFFFC0
07FFFFC0
07FFFF80
0FFFFFC0
0FFFFFC0
0FFFFF80
0FFFFF80
1FF8FF80
1FF0FF00
1FF1FF00
3FF1FF00
3FF1FE00
3FE3FE00
7FE1FE00
7FE3FC00
FFC3E000
ENDCHAR
STARTCHAR 021F
ENCODING 543
SWIDTH 562 0
DWIDTH 25 0
BBX 29 37 1 1
BITMAP
0000F078
0000F9F8
0000FFF0
00007FE0
00003FC0
00001F00
00000C00
00000000
000FC000
007FC3F8
00FF83F8
00FF87F8
00FF87F8
00FF87F0
00FF0FF0
01FF0FF0
01FF1FE0
01FF1FE0
03FF1FE0
03FFFFE0
03FFFFC0
07FFFFC0
07FFFFC0
07FFFF80
0FFFFFC0
0FFFFFC0
0FFFFF80
0FFFFF80
1FF8FF80
1FF0FF00
1FF1FF00
3FF1FF00
3FF1FE00
3FE3FE00
7FE1FE00
7FE3FC00
FFC3E000
ENDCHAR
STARTCHAR 0224
ENCODING 548
SWIDTH 585 0
DWIDTH 26 0
BBX 24 37 5 -6
BITMAP
0007C0
00FFFF
0FFFFE
1FFFFC
3FFFF8
3FFFF0
7FFFE0
7FFFE0
FE1FC0
003F80
003F80
007F00
007E00
00FE00
00FC00
01FC00
01F800
03F800
07F800
07F000
0FF000
0FE000
1FC000
1FFFFE
3FFFFC
3FFFFC
7FFFFC
7FFFFC
7FFFF8
0007F8
000FF8
007FF0
007FF0
007FE0
007F80
00FF00
007800
ENDCHAR
STARTCHAR 0225
ENCODING 549
SWIDTH 585 0
DWIDTH 26 0
BBX 24 37 5 -6
BITMAP
0007C0
00FFFF
0FFFFE
1FFFFC
3FFFF8
3FFFF0
7FFFE0
7FFFE0
FE1FC0
003F80
003F80
007F00
007E00
00FE00
00FC00
01FC00
01F800
03F800
07F800
07F000
0FF000
0FE000
1FC000
1FFFFE
3FFFFC
3FFFFC
7FFFFC
7FFFFC
7FFFF8
0007F8
000FF8
007FF0
007FF0
007FE0
007F80
00FF00
007800
ENDCHAR
STARTCHAR 0226
ENCODING 550
SWIDTH 630 0
DWIDTH 28 0
BBX 26 37 1 -1
BITMAP
00000E00
00001F00
00001E00
00003E00
00001C00
00000000
00001C00
00003E00
00007E00
0000FE00
0000FE00
0001FE00
0001FE00
0003FE00
0003FE00
0007FE00
000FFE00
000FFE00
001FFE00
003FFF00
003FFF00
007FFF00
007DFF00
00F8FF00
01F0FF00
01E0FF00
03EFFF00
07FFFF00
07FFFF80
0FFFFF80
1FE1FF80
1FC1FF80
3F81FFC0
7F81FFC0
7F01FFC0
FF01FFC0
FC008000
ENDCHAR
STARTCHAR 0227
ENCODING 551
SWIDTH 630 0
DWIDTH 28 0
BBX 26 37 1 -1
BITMAP
00000E00
00001F00
00001E00
00003E00
00001C00
00000000
00001C00
00003E00
00007E00
0000FE00
0000FE00
0001FE00
0001FE00
0003FE00
0003FE00
0007FE00
000FFE00
000FFE00
001FFE00
003FFF00
003FFF00
007FFF00
007DFF00
00F8FF00
01F0FF00
01E0FF00
03EFFF00
07FFFF00
07FFFF80
0FFFFF80
1FE1FF80
1FC1FF80
3F81FFC0
7F81FFC0
7F01FFC0
FF01FFC0
FC008000
ENDCHAR
STARTCHAR 0228
ENCODING 552
SWIDTH 495 0
DWIDTH 22 0
BBX 17 38 6 -7
BITMAP
07FE00
3FFF80
7FFF80
7FFF00
7FFF00
7FFE00
7FFE00
7FFE00
7FFE00
7FC000
7F0000
7F0000
7F0800
7FF800
7FF800
7FF800
7FF800
7F8000
7F0000
7F0300
7FFF00
7FFF00
FFFF00
FFFF00
FFFF00
FFFF00
FFFF00
FFFF00
FFF800
FFC000
F7C000
07C000
07E000
03F000
20F800
7FF800
FFF000
7FE000
ENDCHAR
STARTCHAR 0229
ENCODING 553
SWIDTH 495 0
DWIDTH 22 0
BBX 17 38 6 -7
BITMAP
07FE00
3FFF80
7FFF80
7FFF00
7FFF00
7FFE00
7FFE00
7FFE00
7FFE00
7FC000
7F0000
7F0000
7F0800
7FF800
7FF800
7FF800
7FF800
7F8000
7F0000
7F0300
7FFF00
7FFF00
FFFF00
FFFF00
FFFF00
FFFF00
FFFF00
FFFF00
FFF800
FFC000
F7C000
07C000
07E000
03F000
20F800
7FF800
FFF000
7FE000
ENDCHAR
STARTCHAR 022A
ENCODING 554
SWIDTH 517 0
DWIDTH 23 0
BBX 22 40 4 0
BITMAP
01FFF0
01FFF0
03FFE0
000000
000000
03C380
03C7C0
07C7C0
038780
003C00
007E00
00FF80
01FFC0
03FFE0
07FFF0
07FFF0
0FFFF8
1FFFF8
1FFFFC
3FFFFC
3FFFFC
7FC3FC
7F83FC
FF83FC
FF03FC
FF03FC
FF07FC
FF8FFC
FFDFF8
FFFFF8
FFFFF8
FFFFF0
FFFFF0
FFFFE0
FFFFE0
FFFFC0
7FFFC0
3FFF80
1FFE00
07F800
ENDCHAR
STARTCHAR 022B
ENCODING 555
SWIDTH 517 0
DWIDTH 23 0
BBX 22 40 4 0
BITMAP
01FFF0
01FFF0
03FFE0
000000
000000
03C380
03C7C0
07C7C0
038780
003C00
007E00
00FF80
01FFC0
03FFE0
07FFF0
07FFF0
0FFFF8
1FFFF8
1FFFFC
3FFFFC
3FFFFC
7FC3FC
7F83FC
FF83FC
FF03FC
FF03FC
FF07FC
FF8FFC
FFDFF8
FFFFF8
FFFFF8
FFFFF0
FFFFF0
FFFFE0
FFFFE0
FFFFC0
7FFFC0
3FFF80
1FFE00
07F800
ENDCHAR
STARTCHAR 022C
ENCODING 556
SWIDTH 517 0
DWIDTH 23 0
BBX 22 40 4 0
BITMAP
01FFF0
03FFE0
03FFE0
000000
00E3E0
03FFE0
07FFC0
07BF80
070400
003C00
007E00
00FF80
01FFC0
03FFE0
07FFF0
07FFF0
0FFFF8
1FFFF8
1FFFFC
3FFFFC
3FFFFC
7FC3FC
7F83FC
FF83FC
FF03FC
FF03FC
FF07FC
FF8FFC
FFDFF8
FFFFF8
FFFFF8
FFFFF0
FFFFF0
FFFFE0
FFFFE0
FFFFC0
7FFFC0
3FFF80
1FFE00
07F800
ENDCHAR
STARTCHAR 022D
ENCODING 557
SWIDTH 517 0
DWIDTH 23 0
BBX 22 40 4 0
BITMAP
01FFF0
03FFE0
03FFE0
000000
00E3E0
03FFE0
07FFC0
07BF80
070400
003C00
007E00
00FF80
01FFC0
03FFE0
07FFF0
07FFF0
0FFFF8
1FFFF8
1FFFFC
3FFFFC
3FFFFC
7FC3FC
7F83FC
FF83FC
FF03FC
FF03FC
FF07FC
FF8FFC
FFDFF8
FFFFF8
FFFFF8
FFFFF0
FFFFF0
FFFFE0
FFFFE0
FFFFC0
7FFFC0
3FFF80
1FFE00
07F800
ENDCHAR
STARTCHAR 022E
ENCODING 558
SWIDTH 517 0
DWIDTH 23 0
BBX 22 37 4 0
BITMAP
001000
003C00
007C00
007C00
007800
000000
003C00
007E00
00FF80
01FFC0
03FFE0
07FFF0
07FFF0
0FFFF8
1FFFF8
1FFFFC
3FFFFC
3FFFFC
7FC3FC
7F83FC
FF83FC
FF03FC
FF03FC
FF07FC
FF8FFC
FFDFF8
FFFFF8
FFFFF8
FFFFF0
FFFFF0
FFFFE0
FFFFE0
FFFFC0
7FFFC0
3FFF80
1FFE00
07F800
ENDCHAR
STARTCHAR 022F
ENCODING 559
SWIDTH 517 0
DWIDTH 23 0
BBX 22 37 4 0
BITMAP
001000
003C00
007C00
007C00
007800
000000
003C00
007E00
00FF80
01FFC0
03FFE0
07FFF0
07FFF0
0FFFF8
1FFFF8
1FFFFC
3FFFFC
3FFFFC
7FC3FC
7F83FC
FF83FC
FF03FC
FF03FC
FF07FC
FF8FFC
FFDFF8
FFFFF8
FFFFF8
FFFFF0
FFFFF0
FFFFE0
FFFFE0
FFFFC0
7FFFC0
3FFF80
1FFE00
07F800
ENDCHAR
STARTCHAR 0230
ENCODING 560
SWIDTH 517 0
DWIDTH 23 0
BBX 22 40 4 0
BITMAP
01FFF0
03FFE0
03FFE0
000000
001C00
003C00
003C00
003C00
000000
003C00
007E00
00FF80
01FFC0
03FFE0
07FFF0
07FFF0
0FFFF8
1FFFF8
1FFFFC
3FFFFC
3FFFFC
7FC3FC
7F83FC
FF83FC
FF03FC
FF03FC
FF07FC
FF8FFC
FFDFF8
FFFFF8
FFFFF8
FFFFF0
FFFFF0
FFFFE0
FFFFE0
FFFFC0
7FFFC0
3FFF80
1FFE00
07F800
ENDCHAR
STARTCHAR 0231
ENCODING 561
SWIDTH 517 0
DWIDTH 23 0
BBX 22 40 4 0
BITMAP
01FFF0
03FFE0
03FFE0
000000
001C00
003C00
003C00
003C00
000000
003C00
007E00
00FF80
01FFC0
03FFE0
07FFF0
07FFF0
0FFFF8
1FFFF8
1FFFFC
3FFFFC
3FFFFC
7FC3FC
7F83FC
FF83FC
FF03FC
FF03FC
FF07FC
FF8FFC
FFDFF8
FFFFF8
FFFFF8
FFFFF0
FFFFF0
FFFFE0
FFFFE0
FFFFC0
7FFFC0
3FFF80
1FFE00
07F800
ENDCHAR
STARTCHAR 0232
ENCODING 562
SWIDTH 607 0
DWIDTH 27 0
BBX 27 36 6 0
BITMAP
007FFC00
007FFC00
00FFFC00
00FFF800
00000000
00000020
00001FE0
07001FC0
7F803F80
FF807F80
7F807F00
7FC0FE00
7FC1FE00
7FC1FC00
3FC3F800
3FC7F800
3FEFF000
1FEFE000
1FFFE000
1FFFC000
0FFF8000
0FFF0000
0FFF0000
0FFE0000
07FC0000
07FC0000
07F80000
03F80000
03F80000
03F80000
07F00000
07F00000
07F00000
07F00000
07F00000
07C00000
ENDCHAR
STARTCHAR 0233
ENCODING 563
SWIDTH 607 0
DWIDTH 27 0
BBX 27 36 6 0
BITMAP
007FFC00
007FFC00
00FFFC00
00FFF800
00000000
00000020
00001FE0
07001FC0
7F803F80
FF807F80
7F807F00
7FC0FE00
7FC1FE00
7FC1FC00
3FC3F800
3FC7F800
3FEFF000
1FEFE000
1FFFE000
1FFFC000
0FFF8000
0FFF0000
0FFF0000
0FFE0000
07FC0000
07FC0000
07F80000
03F80000
03F80000
03F80000
07F00000
07F00000
07F00000
07F00000
07F00000
07C00000
ENDCHAR
STARTCHAR 0241
ENCODING 577
SWIDTH 450 0
DWIDTH 20 0
BBX 19 31 6 0
BITMAP
07FE00
1FFFC0
3FFFE0
7FFFE0
7FFFE0
FFFFE0
FFFFE0
FC1FE0
701FE0
001FE0
001FC0
001FC0
003FC0
003F80
00FF80
01FF00
0FFE00
1FF800
3FF000
3FE000
3F8000
3F8000
7F0000
7F0000
7F0000
7F0000
FE0000
FE0000
FE0000
FE0000
FC0000
ENDCHAR
STARTCHAR 0242
ENCODING 578
SWIDTH 450 0
DWIDTH 20 0
BBX 19 31 6 0
BITMAP
07FE00
1FFFC0
3FFFE0
7FFFE0
7FFFE0
FFFFE0
FFFFE0
FC1FE0
701FE0
001FE0
001FC0
001FC0
003FC0
003F80
00FF80
01FF00
0FFE00
1FF800
3FF000
3FE000
3F8000
3F8000
7F0000
7F0000
7F0000
7F0000
FE0000
FE0000
FE0000
FE0000
FC0000
ENDCHAR
STARTCHAR 0243
ENCODING 579
SWIDTH 517 0
DWIDTH 23 0
BBX 22 31 2 0
BITMAP
003000
01FFC0
07FFF0
07FFF8
0FFFF8
0FFFF8
0FFFFC
0FF3FC
0FF1FC
0FE0F8
0FE0F8
0FE1F0
0FF3F0
0FFFE0
0FFF80
0FFFE0
0FFFF8
0FFFF8
1FFFFC
1FFDFC
3FFDFC
7FFDFC
7FFDFC
FFFBFC
FFF7F8
1FFFF8
1FFFF0
1FFFC0
3FFF80
3FFE00
0F0000
ENDCHAR
STARTCHAR 0244
ENCODING 580
SWIDTH 562 0
DWIDTH 25 0
BBX 26 30 4 1
BITMAP
01000000
01F80FC0
03F81FC0
03F01FC0
07F01FC0
07F01FC0
0FE01F80
3FFFFFC0
3FFFFFC0
3FFFFFC0
7FFFFFC0
7FFFFF80
7FFFFF00
7F80FF00
7F80FF00
7FC1FF00
7FC1FE00
7FE3FE00
FFFFFC00
FFFFFC00
FFFFF800
FFFFF800
FFFFF000
FFFFF000
7FFFE000
7FFFC000
7FFF8000
3FFF0000
1FFE0000
07F80000
ENDCHAR
STARTCHAR 0253
ENCODING 595
SWIDTH 675 0
DWIDTH 30 0
BBX 26 31 5 0
BITMAP
00070000
01FFFC00
07FFFF00
0FFFFF80
1FFFFF80
3FFFFF80
3FFFFFC0
7FFF3FC0
7FFF1F80
FCFE0F80
F8FE0F80
F8FE1F00
F8FF3F00
F8FFFE00
FCFFF800
FCFFFE00
FCFFFF80
7DFFFF80
7DFFFFC0
39FE1FC0
01FE1FC0
01FE1FC0
01FE3FC0
01FE7FC0
01FEFF80
01FFFF80
01FFFF00
01FFFC00
03FFF800
03FFC000
00E00000
ENDCHAR
STARTCHAR 0254
ENCODING 596
SWIDTH 472 0
DWIDTH 21 0
BBX 23 30 2 0
BITMAP
007F00
01FFE0
03FFF8
0FFFF8
0FFFFC
0FFFFE
0FFFFE
0FFFFE
023FFE
0007FE
0007FE
0003FE
0003FE
0003FE
0003FC
0007FC
380FFC
3FFFFC
3FFFF8
7FFFF8
7FFFF0
7FFFF0
7FFFE0
7FFFE0
FFFFC0
7FFF80
3FFF80
3FFF00
0FF800
020000
ENDCHAR
STARTCHAR 0256
ENCODING 598
SWIDTH 472 0
DWIDTH 21 0
BBX 22 30 3 0
BITMAP
01FE00
07FF80
07FFE0
07FFF0
0FFFF0
0FFFF8
0FFFF8
0FFFFC
0FF1FC
0FF0FC
0FFC7C
7FFCFC
7FFCFC
7FFCFC
7FFDF8
FFE3F8
FFE7F0
1FEFE0
1FFFE0
1FFFC0
1FFF80
1FFF00
1FFF00
1FFE00
1FFC00
1FF800
1FE000
1F8000
1E0000
180000
ENDCHAR
STARTCHAR 0257
ENCODING 599
SWIDTH 630 0
DWIDTH 28 0
BBX 27 30 5 0
BITMAP
00FFE000
07FFFC00
0FFFFE00
1FFFFF00
3FFFFF80
3FFFFF80
7FFFFFC0
7FFFFFC0
FCFF9FC0
F8FF07C0
F8FF07E0
F8FF07E0
F8FF0FC0
FCFE0FC0
FCFE1FC0
FCFE3F80
7DFE7F00
7DFEFF00
39FFFE00
01FFFC00
01FFFC00
01FFF800
01FFF000
01FFE000
01FFC000
01FF8000
01FF0000
00FC0000
00E00000
00800000
ENDCHAR
STARTCHAR 0259
ENCODING 601
SWIDTH 472 0
DWIDTH 21 0
BBX 21 31 3 0
BITMAP
000180
00FFC0
03FFE0
07FFE0
0FFFF0
1FFFF0
1FFFF0
0F9FF8
0003F8
0001F8
0001F8
0001F8
1FFFF8
3FFFF8
7FFFF8
7FFFF8
7FFFF8
7FFFF8
7F87F0
7F07F0
7F0FF0
FFFFF0
FFFFF0
FFFFF0
FFFFE0
FFFFE0
7FFFC0
3FFF80
1FFF00
0FFC00
004800
ENDCHAR
STARTCHAR 025B
ENCODING 603
SWIDTH 472 0
DWIDTH 21 0
BBX 21 31 4 0
BITMAP
007F00
01FFE0
03FFF0
07FFF0
0FFFF8
1FFFF8
3FF010
3FE000
7FC000
7F8000
7F8000
3F8000
3FC000
3FFF00
3FFF00
1FFF00
1FFF00
3FFC00
3FC000
7F8000
7F0000
FF0000
FF0000
FF01E0
FFFFE0
FFFFC0
FFFFC0
7FFF80
7FFF00
3FFE00
07F000
ENDCHAR
STARTCHAR 0260
ENCODING 608
SWIDTH 495 0
DWIDTH 22 0
BBX 28 38 2 0
BITMAP
000007F0
00001FF0
00003FE0
00007FE0
0000FFE0
0000FFC0
0001FF00
0003FE00
0007FE00
001FFE00
003FFF00
007FFF00
00FFFF00
00FFFF00
01FF3E00
03F80000
03F00000
07E00000
07E00000
0FC00000
0FC03E00
1F83FE00
1F87FE00
1F87FE00
3F07FC00
3F07FC00
7F07FC00
7F87FC00
7FDFF800
7FFFF800
FFFFF800
FFFFF800
FFFFE000
7FFFC000
7FFF0000
3FFC0000
1FE00000
08000000
ENDCHAR
STARTCHAR 0263
ENCODING 611
SWIDTH 607 0
DWIDTH 27 0
BBX 25 36 7 -6
BITMAP
FE000000
FE003800
FE007F80
FE007F80
FE00FF00
FE01FF00
FE01FE00
7E03FC00
7F03FC00
7F07F800
7F07F000
7F0FF000
3F1FE000
3F9FC000
3FBFC000
1FBF8000
1FFF0000
1FFF0000
0FFE0000
0FFC0000
0FF80000
0FF00000
1FF80000
3FF80000
7FFC0000
7CF80000
F8F80000
F8F80000
F0F80000
F0F00000
F9F00000
FFE00000
FFC00000
7F800000
3F000000
08000000
ENDCHAR
STARTCHAR 0268
ENCODING 616
SWIDTH 360 0
DWIDTH 16 0
BBX 19 30 2 0
BITMAP
003FC0
007FE0
007FC0
007FC0
00FF80
00FF80
01FF80
01FF00
01FF00
03FF00
03FF00
03FE00
07FF80
3FFF80
3FFF80
3FFF80
3FFF00
7FFF00
0FFC00
0FF800
1FF800
1FF800
1FF800
1FF800
3FF000
3FE000
3FE000
7FE000
FFC000
F80000
ENDCHAR
STARTCHAR 0272
ENCODING 626
SWIDTH 562 0
DWIDTH 25 0
BBX 34 36 -4 -6
BITMAP
0000C00300
0003FC1FC0
0007FE3FC0
0007FC7FC0
0007FC7FC0
000FFC7F80
000FFC7F80
001FFCFF80
001FFCFF00
001FFCFF00
003FFCFF00
003FFCFE00
003FFDFE00
007FFDFE00
007FFDFC00
007FFDFC00
007FFFFC00
00FFFFFC00
00FFFFF800
00FF3FF800
01FF3FF800
01FF3FF800
01FF3FF000
01FE3FF000
03FE3FF000
03FC3FE000
03FC3FE000
07FC3FE000
07F83FC000
0FF8000000
7FF0000000
7FF0000000
7FE0000000
FF80000000
FF00000000
F800000000
ENDCHAR
STARTCHAR 0278
ENCODING 632
SWIDTH 652 0
DWIDTH 29 0
BBX 30 35 3 -2
BITMAP
0001FE00
0003FE00
0003FE00
0003FE00
007FFEF0
01FFFFF8
03FFFFFC
07FFFFFC
0FFFFFFC
0FFFFFFC
1FFFFFFC
1FFFFFFC
3FFFF7FC
3FCFF7FC
3FCFF7FC
7F8FE7F8
7F9FE7F8
7F9FE7F8
7F9FC7F8
7FBFCFF0
FFBFCFF0
FFBF8FE0
FFBFBFE0
FFFFFFC0
FFFFFFC0
FFFFFF80
FFFFFF00
FFFFFE00
7FFFFC00
7FFFF800
01FDF000
01FC0000
03F80000
03F80000
03F80000
ENDCHAR
STARTCHAR 0289
ENCODING 649
SWIDTH 562 0
DWIDTH 25 0
BBX 26 30 4 1
BITMAP
01000000
01F80FC0
03F81FC0
03F01FC0
07F01FC0
07F01FC0
0FE01F80
3FFFFFC0
3FFFFFC0
3FFFFFC0
7FFFFFC0
7FFFFF80
7FFFFF00
7F80FF00
7F80FF00
7FC1FF00
7FC1FE00
7FE3FE00
FFFFFC00
FFFFFC00
FFFFF800
FFFFF800
FFFFF000
FFFFF000
7FFFE000
7FFFC000
7FFF8000
3FFF0000
1FFE0000
07F80000
ENDCHAR
STARTCHAR 028B
ENCODING 651
SWIDTH 562 0
DWIDTH 25 0
BBX 23 30 5 1
BITMAP
0003C0
3F0FE0
3F1FF0
3F0FF8
7F07F8
7F07FC
7F03FC
7F01FC
7F01FE
7F01FE
FF01FE
FF01FE
FF01FE
FF01FE
FF01FE
FF03FE
FF03FC
FF07FC
FF8FFC
FFFFF8
FFFFF8
FFFFF8
FFFFF0
FFFFF0
7FFFE0
7FFFC0
3FFF80
1FFF80
1FFE00
0FF800
ENDCHAR
STARTCHAR 0292
ENCODING 658
SWIDTH 495 0
DWIDTH 22 0
BBX 23 31 2 -1
BITMAP
01FFFC
03FFFE
03FFFE
03FFFE
01FFFC
0000F8
0003F0
0007E0
001FC0
003F80
00FFC0
01FFF0
03FFF8
07FFF8
07FFF8
01C7F8
0001F8
0000F8
0000FC
0000FC
0000FC
F001F8
FF03F8
FFFFF0
FFFFF0
FFFFE0
FFFFC0
7FFF80
1FFF00
0FFC00
00E000
ENDCHAR
STARTCHAR 0294
ENCODING 660
SWIDTH 450 0
DWIDTH 20 0
BBX 19 31 6 0
BITMAP
07FE00
1FFFC0
3FFFE0
7FFFE0
7FFFE0
FFFFE0
FFFFE0
FC1FE0
701FE0
001FE0
001FC0
001FC0
003FC0
003F80
00FF80
01FF00
0FFE00
1FF800
3FF000
3FE000
3F8000
3F8000
7F0000
7F0000
7F0000
7F0000
FE0000
FE0000
FE0000
FE0000
FC0000
ENDCHAR
STARTCHAR 0295
ENCODING 661
SWIDTH 450 0
DWIDTH 20 0
BBX 20 31 5 0
BITMAP
00FFC0
0FFFE0
1FFFF0
3FFFF0
3FFFF0
7FFFF0
7FEFF0
7F03F0
FF01C0
FF0000
FE0000
FE0000
FE0000
FE0000
FF0000
FFC000
7FE000
3FF000
1FF800
0FF800
07F000
07F000
07F000
07F000
07F000
0FE000
0FE000
0FE000
0FE000
0FC000
0FC000
ENDCHAR
STARTCHAR 0296
ENCODING 662
SWIDTH 450 0
DWIDTH 20 0
BBX 20 31 2 0
BITMAP
003F80
003F00
003F00
007F00
007F00
007F00
007F00
007E00
00FE00
00FE00
00FF00
00FF00
00FF80
00FFE0
007FF0
001FF0
000FF0
0007F0
0007F0
0007F0
0007F0
0007F0
380FF0
FE0FF0
FFFFE0
FFFFE0
FFFFE0
FFFFC0
7FFF80
3FFF00
1FF000
ENDCHAR
STARTCHAR 02B9
ENCODING 697
SWIDTH 202 0
DWIDTH 9 0
BBX 11 16 4 16
BITMAP
03E0
03E0
07E0
07C0
0FC0
0F80
0F80
1F00
1F00
3E00
3E00
7C00
7800
7800
F800
3000
ENDCHAR
STARTCHAR 02BA
ENCODING 698
SWIDTH 382 0
DWIDTH 17 0
BBX 19 16 4 16
BITMAP
03E3E0
03E3E0
07E3E0
07C7E0
0FC7C0
0F8FC0
0F8F80
1F1F00
1F1F00
3E3E00
3E3E00
7C3C00
787C00
787800
F87800
303000
ENDCHAR
STARTCHAR 02BB
ENCODING 699
SWIDTH 202 0
DWIDTH 9 0
BBX 10 16 5 16
BITMAP
0380
0780
0FC0
0FC0
1F80
3F80
3F80
7F00
7F00
7F00
FE00
FE00
FE00
FE00
FC00
3800
ENDCHAR
STARTCHAR 02BC
ENCODING 700
SWIDTH 202 0
DWIDTH 9 0
BBX 10 16 5 16
BITMAP
0FC0
1FC0
1FC0
1FC0
3FC0
3F80
3F80
3F00
7F00
7E00
FE00
FC00
FC00
F800
7000
2000
ENDCHAR
STARTCHAR 02BD
ENCODING 701
SWIDTH 202 0
DWIDTH 9 0
BBX 8 16 6 16
BITMAP
3F
7F
7F
7F
7F
FF
FE
FE
FE
7E
7E
7E
7E
7C
38
20
ENDCHAR
STARTCHAR 02C6
ENCODING 710
SWIDTH 315 0
DWIDTH 14 0
BBX 13 7 8 31
BITMAP
07C0
0FE0
3FF0
7FF8
FDF8
F8F8
0040
ENDCHAR
STARTCHAR 02C7
ENCODING 711
SWIDTH 315 0
DWIDTH 14 0
BBX 14 7 8 31
BITMAP
787C
FCFC
7FF8
3FF0
1FC0
0F80
0400
ENDCHAR
STARTCHAR 02C8
ENCODING 712
SWIDTH 112 0
DWIDTH 5 0
BBX 5 8 8 31
BITMAP
78
78
F0
F0
F0
F0
E0
E0
ENDCHAR
STARTCHAR 02C9
ENCODING 713
SWIDTH 315 0
DWIDTH 14 0
BBX 13 4 8 32
BITMAP
7FF8
FFF8
FFF8
FFF8
ENDCHAR
STARTCHAR 02CA
ENCODING 714
SWIDTH 225 0
DWIDTH 10 0
BBX 10 6 8 31
BITMAP
1FC0
1F80
3F00
7E00
F800
F000
ENDCHAR
STARTCHAR 02CB
ENCODING 715
SWIDTH 225 0
DWIDTH 10 0
BBX 7 7 9 31
BITMAP
FC
FC
7E
3E
3E
1E
10
ENDCHAR
STARTCHAR 02CC
ENCODING 716
SWIDTH 112 0
DWIDTH 5 0
BBX 5 7 -1 -7
BITMAP
38
78
78
78
78
78
F8
ENDCHAR
STARTCHAR 02CD
ENCODING 717
SWIDTH 315 0
DWIDTH 14 0
BBX 13 4 0 -6
BITMAP
FFF8
FFF8
FFF8
FFF8
ENDCHAR
STARTCHAR 02D0
ENCODING 720
SWIDTH 202 0
DWIDTH 9 0
BBX 12 23 1 -1
BITMAP
07F0
0FF0
0FF0
0FE0
0FE0
07C0
0780
0700
0200
0000
0000
0000
0000
0400
0C00
1E00
3E00
3F00
7F00
7F00
FF00
FF00
0800
ENDCHAR
STARTCHAR 02D1
ENCODING 721
SWIDTH 202 0
DWIDTH 9 0
BBX 8 9 5 13
BITMAP
7F
FF
FF
FE
FE
7C
78
70
20
ENDCHAR
STARTCHAR 02D8
ENCODING 728
SWIDTH 315 0
DWIDTH 14 0
BBX 13 7 9 31
BITMAP
E078
F0F8
FFF0
FFE0
FFC0
7F80
0800
ENDCHAR
STARTCHAR 02D9
ENCODING 729
SWIDTH 135 0
DWIDTH 6 0
BBX 5 5 8 31
BITMAP
70
F8
F8
F0
60
ENDCHAR
STARTCHAR 02DA
ENCODING 730
SWIDTH 315 0
DWIDTH 14 0
BBX 13 11 8 27
BITMAP
0FE0
3FF0
7FF8
F8F8
F0F8
F0F8
F0F0
F1F0
FFE0
7FC0
3F00
ENDCHAR
STARTCHAR 02DB
ENCODING 731
SWIDTH 292 0
DWIDTH 13 0
BBX 11 10 0 -7
BITMAP
0400
0E00
1C00
3C00
7800
F800
F820
FFE0
FFE0
FFE0
ENDCHAR
STARTCHAR 02DC
ENCODING 732
SWIDTH 315 0
DWIDTH 14 0
BBX 15 7 7 31
BITMAP
0E3E
3F3C
3FFC
7FFC
7FF8
73F0
F000
ENDCHAR
STARTCHAR 02DD
ENCODING 733
SWIDTH 405 0
DWIDTH 18 0
BBX 18 6 8 31
BITMAP
1FDFC0
1FBF80
3F3F00
7E7C00
F8F800
F0F000
ENDCHAR
STARTCHAR 0300
ENCODING 768
SWIDTH 0 0
DWIDTH 0 0
BBX 7 7 -10 31
BITMAP
FC
FC
7E
7E
3E
1E
10
ENDCHAR
STARTCHAR 0301
ENCODING 769
SWIDTH 0 0
DWIDTH 0 0
BBX 10 7 -6 31
BITMAP
0FC0
1F80
3F00
3E00
7C00
F800
1000
ENDCHAR
STARTCHAR 0302
ENCODING 770
SWIDTH 0 0
DWIDTH 0 0
BBX 14 6 -12 31
BITMAP
03C0
0FE0
1FF0
7FF8
FEFC
F878
ENDCHAR
STARTCHAR 0303
ENCODING 771
SWIDTH 0 0
DWIDTH 0 0
BBX 14 7 -12 31
BITMAP
1C3C
3F7C
7FFC
7FF8
FFF0
F3E0
8000
ENDCHAR
STARTCHAR 0304
ENCODING 772
SWIDTH 0 0
DWIDTH 0 0
BBX 14 4 -12 32
BITMAP
7FFC
7FF8
FFF8
FFF8
ENDCHAR
STARTCHAR 0305
ENCODING 773
SWIDTH 0 0
DWIDTH 0 0
BBX 16 6 -13 31
BITMAP
7FFF
FFFF
FFFF
FFFF
FFFF
FFFE
ENDCHAR
STARTCHAR 0306
ENCODING 774
SWIDTH 0 0
DWIDTH 0 0
BBX 13 7 -11 31
BITMAP
F038
F878
FFF0
7FF0
7FE0
3F80
0600
ENDCHAR
STARTCHAR 0307
ENCODING 775
SWIDTH 0 0
DWIDTH 0 0
BBX 5 5 -8 31
BITMAP
38
78
F8
F8
70
ENDCHAR
STARTCHAR 0308
ENCODING 776
SWIDTH 0 0
DWIDTH 0 0
BBX 12 5 -11 31
BITMAP
7060
F8F0
F9F0
F1F0
40C0
ENDCHAR
STARTCHAR 030A
ENCODING 778
SWIDTH 0 0
DWIDTH 0 0
BBX 13 11 -11 30
BITMAP
0100
0FE0
3FF0
7DF8
F8F8
F078
F0F8
F0F0
FFE0
7FC0
3F00
ENDCHAR
STARTCHAR 030B
ENCODING 779
SWIDTH 0 0
DWIDTH 0 0
BBX 17 7 -10 31
BITMAP
1F9F80
3FBF00
3E7E00
7C7C00
F8F800
F1F000
002000
ENDCHAR
STARTCHAR 030C
ENCODING 780
SWIDTH 0 0
DWIDTH 0 0
BBX 13 7 -11 31
BITMAP
F078
F9F8
FFF0
7FE0
3FC0
1F00
0C00
ENDCHAR
STARTCHAR 030D
ENCODING 781
SWIDTH 0 0
DWIDTH 0 0
BBX 6 8 -8 31
BITMAP
3C
3C
78
78
78
78
70
F0
ENDCHAR
STARTCHAR 0311
ENCODING 785
SWIDTH 0 0
DWIDTH 0 0
BBX 13 7 -12 31
BITMAP
07E0
1FF0
3FF0
7FF8
78F8
F078
E078
ENDCHAR
STARTCHAR 0323
ENCODING 803
SWIDTH 0 0
DWIDTH 0 0
BBX 5 5 -16 -7
BITMAP
30
78
F8
F8
70
ENDCHAR
STARTCHAR 0326
ENCODING 806
SWIDTH 0 0
DWIDTH 0 0
BBX 8 6 -18 -6
BITMAP
3F
7F
7E
7C
FC
F8
ENDCHAR
STARTCHAR 0327
ENCODING 807
SWIDTH 0 0
DWIDTH 0 0
BBX 12 10 -20 -7
BITMAP
0780
0780
0F80
0FC0
07E0
03F0
01F0
FFF0
FFF0
7FE0
ENDCHAR
STARTCHAR 0328
ENCODING 808
SWIDTH 0 0
DWIDTH 0 0
BBX 11 10 -18 -6
BITMAP
0400
0C00
1C00
3800
7800
F000
F860
FFE0
FFE0
7FE0
ENDCHAR
STARTCHAR 0329
ENCODING 809
SWIDTH 0 0
DWIDTH 0 0
BBX 5 7 -16 -7
BITMAP
38
78
78
78
78
F0
F0
ENDCHAR
STARTCHAR 0331
ENCODING 817
SWIDTH 0 0
DWIDTH 0 0
BBX 14 4 -20 -6
BITMAP
7FFC
7FFC
FFF8
FFF8
ENDCHAR
STARTCHAR 0342
ENCODING 834
SWIDTH 0 0
DWIDTH 0 0
BBX 14 7 -12 31
BITMAP
1C3C
3F7C
7FFC
7FF8
FFF0
F3E0
8000
ENDCHAR
STARTCHAR 0344
ENCODING 836
SWIDTH 0 0
DWIDTH 0 0
BBX 12 9 -11 31
BITMAP
01E0
01E0
03C0
0780
0760
F8F0
F9F0
F1E0
E0C0
ENDCHAR
STARTCHAR 0345
ENCODING 837
SWIDTH 0 0
DWIDTH 0 0
BBX 8 7 -15 -7
BITMAP
70
F0
F0
F0
FF
FF
7E
ENDCHAR
STARTCHAR 0374
ENCODING 884
SWIDTH 202 0
DWIDTH 9 0
BBX 9 7 6 25
BITMAP
0F80
1F80
1F00
3E00
7C00
7800
F000
ENDCHAR
STARTCHAR 0375
ENCODING 885
SWIDTH 202 0
DWIDTH 9 0
BBX 9 7 -1 -7
BITMAP
0380
0780
0F80
1F00
3E00
7E00
FC00
ENDCHAR
STARTCHAR 037A
ENCODING 890
SWIDTH 202 0
DWIDTH 9 0
BBX 8 7 0 -7
BITMAP
70
F0
F0
F0
FF
FF
7E
ENDCHAR
STARTCHAR 037B
ENCODING 891
SWIDTH 472 0
DWIDTH 21 0
BBX 23 30 2 0
BITMAP
007F00
01FFE0
03FFF8
0FFFF8
0FFFFC
0FFFFE
0FFFFE
0FFFFE
023FFE
0007FE
0007FE
0003FE
0003FE
0003FE
0003FC
0007FC
380FFC
3FFFFC
3FFFF8
7FFFF8
7FFFF0
7FFFF0
7FFFE0
7FFFE0
FFFFC0
7FFF80
3FFF80
3FFF00
0FF800
020000
ENDCHAR
STARTCHAR 037E
ENCODING 894
SWIDTH 202 0
DWIDTH 9 0
BBX 13 29 0 -7
BITMAP
00E0
03F8
07F8
07F8
0FF0
0FF0
07E0
03C0
0000
0000
0000
0000
0000
0000
0F80
1FC0
1FC0
1FC0
3FC0
3F80
3F80
7F00
7F00
7E00
FE00
FC00
FC00
F800
7000
ENDCHAR
STARTCHAR 037F
ENCODING 895
SWIDTH 450 0
DWIDTH 20 0
BBX 23 30 2 0
BITMAP
0003FE
0007FE
0007FE
0007FE
000FFE
000FFE
001FFC
001FFC
001FFC
003FFC
003FFC
003FFC
003FF8
003FF8
003FF8
003FF8
003FF8
003FF0
003FF0
003FF0
3E3FE0
7F3FE0
FF3FC0
FFBF80
FFFF80
FFFF00
7FFE00
7FFC00
1FF800
07E000
ENDCHAR
STARTCHAR 0384
ENCODING 900
SWIDTH 157 0
DWIDTH 7 0
BBX 8 7 6 25
BITMAP
0F
1E
3E
3C
78
70
E0
ENDCHAR
STARTCHAR 0385
ENCODING 901
SWIDTH 292 0
DWIDTH 13 0
BBX 12 9 8 31
BITMAP
01E0
01E0
03C0
0780
0760
78F0
F9F0
F1F0
60C0
ENDCHAR
STARTCHAR 0386
ENCODING 902
SWIDTH 630 0
DWIDTH 28 0
BBX 26 33 1 -1
BITMAP
00078000
000F8000
000F1C00
001E3E00
003C7E00
0038FE00
0038FE00
0001FE00
0001FE00
0003FE00
0003FE00
0007FE00
000FFE00
000FFE00
001FFE00
003FFF00
003FFF00
007FFF00
007DFF00
00F8FF00
01F0FF00
01E0FF00
03EFFF00
07FFFF00
07FFFF80
0FFFFF80
1FE1FF80
1FC1FF80
3F81FFC0
7F81FFC0
7F01FFC0
FF01FFC0
FC008000
ENDCHAR
STARTCHAR 0387
ENCODING 903
SWIDTH 202 0
DWIDTH 9 0
BBX 9 8 4 14
BITMAP
0E00
3F80
7F80
7F80
FF00
FF00
7E00
3C00
ENDCHAR
STARTCHAR 0388
ENCODING 904
SWIDTH 585 0
DWIDTH 26 0
BBX 21 32 6 0
BITMAP
1E0000
3E7FE0
3FFFF8
7FFFF8
F7FFF0
E7FFF0
E7FFF0
07FFE0
07FFE0
07FFE0
07FE00
07F000
07F000
07F880
07FFC0
07FF80
07FF80
07FF80
07FC00
07F000
07F130
07FFF0
07FFF0
07FFF0
07FFF0
0FFFF0
0FFFF0
0FFFF0
0FFFF0
0FFF80
0FF800
0F0000
ENDCHAR
STARTCHAR 0389
ENCODING 905
SWIDTH 607 0
DWIDTH 27 0
BBX 29 31 3 1
BITMAP
03C00000
07C00000
078FC000
0F7FC3F8
1EFF83F8
1CFFC7F8
1CFF87F8
00FF87F0
00FF0FF0
01FF0FF0
01FF0FF0
01FF1FE0
03FF1FE0
03FFFFE0
03FFFFC0
07FFFFC0
07FFFFC0
07FFFF80
0FFFFFC0
0FFFFFC0
0FFFFF80
0FFFFF80
1FF8FF80
1FF8FF00
1FF0FF00
3FF1FF00
3FF1FF00
3FF1FE00
7FE1FE00
7FE3FE00
FFC3E000
ENDCHAR
STARTCHAR 038A
ENCODING 906
SWIDTH 360 0
DWIDTH 16 0
BBX 19 32 3 0
BITMAP
03C000
07C000
07BFC0
0F7FE0
1E7FE0
1C7FC0
1C7FC0
00FF80
00FF80
01FF80
01FF00
01FF00
03FF00
03FF00
03FE00
03FE00
07FE00
07FE00
07FC00
0FFC00
0FFC00
0FFC00
0FFC00
1FF800
1FF800
1FF800
1FF000
3FF000
3FF000
7FE000
7FC000
F80000
ENDCHAR
STARTCHAR 038C
ENCODING 908
SWIDTH 540 0
DWIDTH 24 0
BBX 23 32 4 0
BITMAP
078000
0F9C00
0F7F00
1EFF80
3CFFE0
39FFF0
3BFFF8
07FFF8
07FFFC
0FFFFC
0FFFFC
1FFFFE
3FFFFE
3FE1FE
7FC1FE
7F81FE
7F81FE
7F83FE
FF83FE
FF87FE
FFEFFC
FFFFFC
FFFFF8
FFFFF8
FFFFF0
7FFFF0
7FFFF0
7FFFE0
3FFFC0
3FFF80
0FFF00
03FC00
ENDCHAR
STARTCHAR 038E
ENCODING 910
SWIDTH 675 0
DWIDTH 30 0
BBX 30 32 6 0
BITMAP
1E000000
3E000000
3C2001FC
78F003F8
F7F003F8
EFF007F0
EFF80FF0
0FF80FE0
07F81FC0
07F83F80
07FC7F80
03FC7F00
03FCFE00
03FDFE00
03FFFC00
01FFF800
01FFF800
01FFF000
00FFE000
00FFE000
00FFC000
007F8000
007F0000
007F0000
007F0000
007F0000
007F0000
007F0000
00FF0000
00FF0000
00FF0000
00F80000
ENDCHAR
STARTCHAR 038F
ENCODING 911
SWIDTH 630 0
DWIDTH 28 0
BBX 30 32 2 0
BITMAP
01E00000
03E7FE00
03DFFF80
07BFFFE0
0F7FFFE0
0EFFFFF0
0FFFFFF8
01FFFFF8
03FFFFF8
03FFFFF8
07FE0FFC
07F807F8
07F803F8
0FF003F8
0FE003F8
0FE003F8
0FE003F8
0FE003F8
0FC003F0
0FE003F0
0FE007E0
0FE00FE0
07E00FC0
07F01F80
07F03F00
3FF07FE0
7FF0FFE0
7FF0FFE0
7FF0FFE0
7FF0FFE0
FFF0FFC0
FFE1FFC0
ENDCHAR
STARTCHAR 0390
ENCODING 912
SWIDTH 315 0
DWIDTH 14 0
BBX 22 40 1 0
BITMAP
000078
0000F0
0000E0
0001C0
000390
003C7C
003C7C
007C78
003830
000000
003FC0
007FE0
007FE0
007FC0
00FFC0
00FF80
00FF80
01FF80
01FF00
01FF00
03FF00
03FF00
03FE00
03FE00
07FE00
07FE00
07FC00
0FFC00
0FFC00
0FFC00
0FFC00
1FF800
1FF800
1FF800
1FF000
3FF000
3FE000
7FE000
7FC000
F80000
ENDCHAR
STARTCHAR 0391
ENCODING 913
SWIDTH 630 0
DWIDTH 28 0
BBX 26 31 1 -1
BITMAP
00001C00
00003E00
00007E00
0000FE00
0000FE00
0001FE00
0001FE00
0003FE00
0003FE00
0007FE00
000FFE00
000FFE00
001FFE00
003FFF00
003FFF00
007FFF00
007DFF00
00F8FF00
01F0FF00
01E0FF00
03EFFF00
07FFFF00
07FFFF80
0FFFFF80
1FE1FF80
1FC1FF80
3F81FFC0
7F81FFC0
7F01FFC0
FF01FFC0
FC008000
ENDCHAR
STARTCHAR 0392
ENCODING 914
SWIDTH 517 0
DWIDTH 23 0
BBX 20 31 4 0
BITMAP
00C000
07FF00
1FFFC0
1FFFE0
3FFFE0
3FFFE0
3FFFF0
3FCFF0
3FC7F0
3F83E0
3F83E0
3F87C0
3FCFC0
3FFF80
3FFE00
3FFF80
3FFFE0
3FFFE0
7FFFF0
7FC7F0
7F87F0
7F87F0
7F8FF0
7F9FF0
7FBFE0
7FFFE0
7FFFC0
7FFF00
FFFE00
FFF800
3C0000
ENDCHAR
STARTCHAR 0393
ENCODING 915
SWIDTH 495 0
DWIDTH 22 0
BBX 25 31 2 0
BITMAP
0007FF80
01FFFF80
07FFFF80
07FFFF80
0FFFFF80
0FFFFF80
0FFFF780
0FF80000
0FF00000
1FF00000
1FE00000
1FE00000
1FE00000
1FC00000
3FC00000
3FC00000
3FC00000
3F800000
7F800000
7F800000
7F800000
7F800000
7F000000
FF000000
FF000000
FF000000
FF000000
FF000000
FF000000
FF000000
F8000000
ENDCHAR
STARTCHAR 0394
ENCODING 916
SWIDTH 585 0
DWIDTH 26 0
BBX 25 30 1 0
BITMAP
00003C00
0000FF00
0000FF00
0001FF00
0003FF00
0007FF00
000FFF00
000FFF00
001FFF00
003FFF00
003FFF00
007FFF00
00FFFF00
00FF7F00
01FE7F00
03FE7F00
03FC7F80
07FC7F80
07F87F80
0FF8FF80
1FF0FF80
1FF0FF80
3FE0FF80
3FC0FF80
7FFFFF80
7FFFFF80
FFFFFF80
FFFFFF80
FFFFFF80
FFFFFF00
ENDCHAR
STARTCHAR 0395
ENCODING 917
SWIDTH 495 0
DWIDTH 22 0
BBX 17 31 6 0
BITMAP
07FE00
3FFF80
7FFF80
7FFF00
7FFF00
7FFE00
7FFE00
7FFE00
7FFE00
7FC000
7F0000
7F0000
7F0800
7FF800
7FF800
7FF800
7FF800
7F8000
7F0000
7F0300
7FFF00
7FFF00
FFFF00
FFFF00
FFFF00
FFFF00
FFFF00
FFFF00
FFF800
FF8000
F00000
ENDCHAR
STARTCHAR 0396
ENCODING 918
SWIDTH 585 0
DWIDTH 26 0
BBX 24 31 5 0
BITMAP
0007C0
00FFFF
0FFFFE
1FFFFC
3FFFF8
3FFFF0
7FFFE0
7FFFE0
FE1FC0
003F80
003F80
007F00
007E00
00FE00
00FC00
01FC00
03F800
03F800
07F800
07F000
0FF000
0FE000
1FC000
1FFFFE
3FFFFC
7FFFFC
7FFFF8
7FFFF0
0FFFE0
03FFC0
003C00
ENDCHAR
STARTCHAR 0397
ENCODING 919
SWIDTH 562 0
DWIDTH 25 0
BBX 29 29 1 1
BITMAP
000FC000
007FC3F8
00FF83F8
00FF87F8
00FF87F8
00FF87F0
00FF0FF0
01FF0FF0
01FF1FE0
01FF1FE0
03FF1FE0
03FFFFE0
03FFFFC0
07FFFFC0
07FFFFC0
07FFFF80
0FFFFFC0
0FFFFFC0
0FFFFF80
0FFFFF80
1FF8FF80
1FF0FF00
1FF1FF00
3FF1FF00
3FF1FE00
3FE3FE00
7FE1FE00
7FE3FC00
FFC3E000
ENDCHAR
STARTCHAR 0398
ENCODING 920
SWIDTH 517 0
DWIDTH 23 0
BBX 23 31 4 0
BITMAP
001F00
00FFE0
01FFF0
07FFF8
0FFFFC
0FFFFC
1FFFFC
1FFFFE
3FFFFE
3FFFFE
3FFFFE
7FC7FE
7F83FE
FF81FE
FFFFFE
FFFFFE
FFFFFC
FFFFFC
FF03FC
FF07F8
FF8FF8
FFFFF0
FFFFF0
7FFFE0
7FFFE0
7FFFC0
7FFFC0
3FFF80
1FFF00
0FFE00
03FC00
ENDCHAR
STARTCHAR 0399
ENCODING 921
SWIDTH 315 0
DWIDTH 14 0
BBX 19 30 1 0
BITMAP
003FC0
007FE0
007FE0
007FC0
00FFC0
00FF80
00FF80
01FF80
01FF00
01FF00
03FF00
03FF00
03FE00
03FE00
07FE00
07FE00
07FC00
0FFC00
0FFC00
0FFC00
0FFC00
1FF800
1FF800
1FF800
1FF000
3FF000
3FE000
7FE000
7FC000
F80000
ENDCHAR
STARTCHAR 039A
ENCODING 922
SWIDTH 540 0
DWIDTH 24 0
BBX 29 31 1 0
BITMAP
00000080
03FFC180
01FFC3C0
03FFC7F8
03FF8FF0
03FF9FE0
03FFBFC0
07FFBF80
07FF7F00
07FFFE00
07FFFC00
0FFFFC00
0FFFF800
0FFFF000
1FFFE000
1FFFE000
1FFF8000
1FFFC000
3FFFE000
3FFFF000
3FFFF000
3FFFF800
7FFBF800
7FFBFC00
7FF9FC00
7FF1FE00
7FF1FE00
7FF0FE00
FFF0FE00
FFF07000
01C0C000
ENDCHAR
STARTCHAR 039B
ENCODING 923
SWIDTH 585 0
DWIDTH 26 0
BBX 25 29 1 1
BITMAP
00070000
001F8000
001F8000
003FC000
003FC000
003FE000
007FE000
007FF000
00FFF000
00FFF000
00FFF800
01FFF800
01FFFC00
03FFFC00
03FFFC00
07FBFE00
07FBFE00
0FF3FE00
0FF3FF00
0FF3FF00
1FE3FF00
1FE3FF00
3FE3FF80
3FE3FF80
7FC3FF80
7FC3FF80
7FC3FF80
FF803F80
FF000380
ENDCHAR
STARTCHAR 039C
ENCODING 924
SWIDTH 652 0
DWIDTH 29 0
BBX 30 30 1 0
BITMAP
00380018
0038003C
0038007C
007C00FC
007C00F8
00FE01F8
00FE03F8
00FF07F8
01FF07F8
01FF0FF8
01FF9FF8
03FFBFF8
03FFFFF8
03FFFFF8
07FFFFF8
07FFFFF8
07FFFFF0
0FFDFFF0
0FF8DFF0
1FF89FF0
1FF01FF0
1FE03FF0
3FE03FF0
3FC03FF0
3FC07FF0
7F807FF0
7F807FF0
FF007FF0
FF00FFE0
FE000000
ENDCHAR
STARTCHAR 039D
ENCODING 925
SWIDTH 562 0
DWIDTH 25 0
BBX 29 30 1 0
BITMAP
00180060
007F83F8
00FFC7F8
00FF8FF8
00FF8FF8
01FF8FF0
01FF8FF0
03FF9FF0
03FF9FE0
03FF9FE0
07FF9FE0
07FF9FC0
07FFBFC0
0FFFBFC0
0FFFBF80
0FFFBF80
0FFFFF80
1FFFFF80
1FFFFF00
1FF7FF00
3FE7FF00
3FE7FF00
3FE7FE00
3FC7FE00
7FC7FE00
7FC7FC00
7FC7FC00
FF87FC00
FF87F800
F0000000
ENDCHAR
STARTCHAR 039E
ENCODING 926
SWIDTH 472 0
DWIDTH 21 0
BBX 26 30 1 0
BITMAP
03FFE800
03FFFFC0
03FFFF80
07FFFF80
07FFFF80
07FFFF80
07FFFF80
00001E00
00000000
00000000
00000000
03FFF800
03FFF800
03FFF800
07FFF800
07FFF000
07FFF000
03C00000
00000000
00000000
00000000
00000000
7FFC0000
7FFFF800
7FFFF800
7FFFF800
7FFFF000
FFFFF000
FFFFF000
000F0000
ENDCHAR
STARTCHAR 039F
ENCODING 927
SWIDTH 517 0
DWIDTH 23 0
BBX 22 31 4 0
BITMAP
003C00
007E00
00FF80
01FFC0
03FFE0
07FFF0
07FFF0
0FFFF8
1FFFF8
1FFFFC
3FFFFC
3FFFFC
7FC3FC
7F83FC
FF83FC
FF03FC
FF03FC
FF07FC
FF8FFC
FFDFF8
FFFFF8
FFFFF8
FFFFF0
FFFFF0
FFFFE0
FFFFE0
FFFFC0
7FFFC0
3FFF80
1FFE00
07F800
ENDCHAR
STARTCHAR 03A0
ENCODING 928
SWIDTH 540 0
DWIDTH 24 0
BBX 28 30 2 0
BITMAP
07FFFFF0
07FFFFE0
07FFFFE0
0FFFFFE0
0FFFFFE0
0FFFFFE0
0FFFFFC0
0FE79FC0
1FE03FC0
1FE03FC0
1FE03FC0
1FE03F80
1FE07F80
1FC07F80
1FC07F80
3FC07F00
3FC07F00
3FC0FF00
3FC0FF00
3FC0FF00
3FC0FE00
7F81FE00
7F81FE00
7F81FE00
7F81FE00
7F81FC00
7F01FC00
7F01FC00
FF01FC00
40000000
ENDCHAR
STARTCHAR 03A1
ENCODING 929
SWIDTH 495 0
DWIDTH 22 0
BBX 24 31 1 0
BITMAP
000080
007FF0
01FFFC
01FFFE
01FFFF
01FFFF
03FFFF
03FCFF
03FC3F
03FC1F
07FC3F
07FC3F
07FC7F
0FFC7F
0FFFFF
0FFFFE
0FFFFC
1FFFF8
1FFFE0
1FF800
3FF800
3FF800
3FF800
7FF000
7FF000
7FF000
7FF000
FFF000
FFF000
FFF000
FFF000
ENDCHAR
STARTCHAR 03A3
ENCODING 931
SWIDTH 472 0
DWIDTH 21 0
BBX 26 30 1 0
BITMAP
03FFFFC0
03FFFFC0
03FFFF80
03FFFF80
07FFFF80
07FFFF80
07FFEF00
07FC0000
03FE0000
01FF0000
00FF8000
007FC000
003FE000
001FF000
000FF000
000FF000
001FE000
003FC000
00FF0000
01FE0000
07FC0000
0FF00000
1FE00000
3FFFF800
7FFFF800
7FFFF800
7FFFF000
7FFFF000
FFFFF000
01FFF000
ENDCHAR
STARTCHAR 03A4
ENCODING 932
SWIDTH 562 0
DWIDTH 25 0
BBX 25 30 5 0
BITMAP
07FFFE00
3FFFFF80
3FFFFF80
3FFFFF80
3FFFFF80
7FFFFF80
7FFFFF80
7FFFFF80
FFFFF000
FE7F8000
C07F0000
007F0000
007E0000
00FE0000
00FE0000
00FE0000
00FC0000
01FC0000
01FC0000
01FC0000
01F80000
01F80000
03F80000
03F80000
03F80000
03F00000
07F00000
07F00000
07F00000
07E00000
ENDCHAR
STARTCHAR 03A5
ENCODING 933
SWIDTH 607 0
DWIDTH 27 0
BBX 27 31 6 0
BITMAP
00000020
00001FE0
07001FC0
7F803F80
FF807F80
7F807F00
7FC0FE00
7FC1FE00
7FC1FC00
3FC3F800
3FC7F800
3FEFF000
1FEFE000
1FFFE000
1FFFC000
0FFF8000
0FFF0000
0FFF0000
0FFE0000
07FC0000
07FC0000
07F80000
03F80000
03F80000
03F80000
07F00000
07F00000
07F00000
07F00000
07F00000
07C00000
ENDCHAR
STARTCHAR 03A6
ENCODING 934
SWIDTH 652 0
DWIDTH 29 0
BBX 30 35 3 -2
BITMAP
0001FE00
0003FE00
0003FE00
0003FE00
007FFEF0
01FFFFF8
03FFFFFC
07FFFFFC
0FFFFFFC
0FFFFFFC
1FFFFFFC
1FFFFFFC
3FFFF7FC
3FCFF7FC
3FCFF7FC
7F8FE7F8
7F9FE7F8
7F9FE7F8
7F9FC7F8
7FBFCFF0
FFBFCFF0
FFBF8FE0
FFBFBFE0
FFFFFFC0
FFFFFFC0
FFFFFF80
FFFFFF00
FFFFFE00
7FFFFC00
7FFFF800
01FDF000
01FC0000
03F80000
03F80000
03F80000
ENDCHAR
STARTCHAR 03A7
ENCODING 935
SWIDTH 562 0
DWIDTH 25 0
BBX 28 29 3 1
BITMAP
000007F0
07F00FF0
0FF00FF0
1FF01FE0
1FF83FC0
1FF87FC0
1FF87F80
1FF8FF00
0FFCFF00
0FFDFE00
07FFFC00
03FFFC00
03FFF800
01FFF000
01FFF000
01FFE000
00FFE000
01FFE000
03FFE000
07FFE000
07FFE000
0FFFE000
1FEFE000
3FE7F000
3FC7F000
7FC7F000
7F83F000
FF81C000
FF000000
ENDCHAR
STARTCHAR 03A8
ENCODING 936
SWIDTH 720 0
DWIDTH 32 0
BBX 32 30 5 0
BITMAP
3F00003F
3F83F07F
3F83F07F
7F07F07F
7F07F0FF
7F07F0FF
7F07F0FE
7F07E1FE
FE0FE1FE
FE0FE1FC
FE0FE1FC
FE1FE3FC
FC1FC3F8
FE1FC7F8
FF1FCFF0
FFFFFFF0
FFFFFFE0
7FFFFFC0
7FFFFFC0
3FFFFF80
3FFFFF00
0FFFFC00
03FFF000
007F0000
007F0000
00FF0000
00FF0000
00FE0000
01FE0000
01FE0000
ENDCHAR
STARTCHAR 03A9
ENCODING 937
SWIDTH 607 0
DWIDTH 27 0
BBX 29 31 1 0
BITMAP
0007FE00
001FFF80
007FFFC0
00FFFFE0
00FFFFE0
01FFFFF0
03FFFFF0
03FFFFF8
07FFFFF8
07FC0FF8
07F807F8
0FF007F8
0FE003F8
0FE003F8
0FE003F8
0FC003F8
0FC003F0
0FC003F0
0FC007E0
0FC007E0
0FE00FC0
0FE01FC0
07E01F80
07F07F00
7FF07FE0
7FF0FFE0
7FF0FFE0
7FF0FFC0
FFF1FFC0
FFE1FFC0
FFE1FFC0
ENDCHAR
STARTCHAR 03AA
ENCODING 938
SWIDTH 315 0
DWIDTH 14 0
BBX 22 36 1 0
BITMAP
001C38
003C7C
007C7C
007C78
003830
000000
003FC0
007FE0
007FE0
007FC0
00FFC0
00FF80
00FF80
01FF80
01FF00
01FF00
03FF00
03FF00
03FE00
03FE00
07FE00
07FE00
07FC00
0FFC00
0FFC00
0FFC00
0FFC00
1FF800
1FF800
1FF800
1FF000
3FF000
3FE000
7FE000
7FC000
F80000
ENDCHAR
STARTCHAR 03AB
ENCODING 939
SWIDTH 607 0
DWIDTH 27 0
BBX 27 36 6 0
BITMAP
00387800
007C7800
007CF800
0078F000
00302000
00000020
00001FE0
07001FC0
7F803F80
FF807F80
7F807F00
7FC0FE00
7FC1FE00
7FC1FC00
3FC3F800
3FC7F800
3FEFF000
1FEFE000
1FFFE000
1FFFC000
0FFF8000
0FFF0000
0FFF0000
0FFE0000
07FC0000
07FC0000
07F80000
03F80000
03F80000
03F80000
07F00000
07F00000
07F00000
07F00000
07F00000
07C00000
ENDCHAR
STARTCHAR 03AC
ENCODING 940
SWIDTH 630 0
DWIDTH 28 0
BBX 26 33 1 -1
BITMAP
00078000
000F8000
000F1C00
001E3E00
003C7E00
0038FE00
0038FE00
0001FE00
0001FE00
0003FE00
0003FE00
0007FE00
000FFE00
000FFE00
001FFE00
003FFF00
003FFF00
007FFF00
007DFF00
00F8FF00
01F0FF00
01E0FF00
03EFFF00
07FFFF00
07FFFF80
0FFFFF80
1FE1FF80
1FC1FF80
3F81FFC0
7F81FFC0
7F01FFC0
FF01FFC0
FC008000
ENDCHAR
STARTCHAR 03AD
ENCODING 941
SWIDTH 585 0
DWIDTH 26 0
BBX 21 32 6 0
BITMAP
1E0000
3E7FE0
3FFFF8
7FFFF8
F7FFF0
E7FFF0
E7FFF0
07FFE0
07FFE0
07FFE0
07FE00
07F000
07F000
07F880
07FFC0
07FF80
07FF80
07FF80
07FC00
07F000
07F130
07FFF0
07FFF0
07FFF0
07FFF0
0FFFF0
0FFFF0
0FFFF0
0FFFF0
0FFF80
0FF800
0F0000
ENDCHAR
STARTCHAR 03AE
ENCODING 942
SWIDTH 607 0
DWIDTH 27 0
BBX 29 31 3 1
BITMAP
03C00000
07C00000
078FC000
0F7FC3F8
1EFF83F8
1CFFC7F8
1CFF87F8
00FF87F0
00FF0FF0
01FF0FF0
01FF0FF0
01FF1FE0
03FF1FE0
03FFFFE0
03FFFFC0
07FFFFC0
07FFFFC0
07FFFF80
0FFFFFC0
0FFFFFC0
0FFFFF80
0FFFFF80
1FF8FF80
1FF8FF00
1FF0FF00
3FF1FF00
3FF1FF00
3FF1FE00
7FE1FE00
7FE3FE00
FFC3E000
ENDCHAR
STARTCHAR 03AF
ENCODING 943
SWIDTH 360 0
DWIDTH 16 0
BBX 19 32 3 0
BITMAP
03C000
07C000
07BFC0
0F7FE0
1E7FE0
1C7FC0
1C7FC0
00FF80
00FF80
01FF80
01FF00
01FF00
03FF00
03FF00
03FE00
03FE00
07FE00
07FE00
07FC00
0FFC00
0FFC00
0FFC00
0FFC00
1FF800
1FF800
1FF800
1FF000
3FF000
3FF000
7FE000
7FC000
F80000
ENDCHAR
STARTCHAR 03B0
ENCODING 944
SWIDTH 607 0
DWIDTH 27 0
BBX 27 40 6 0
BITMAP
0000F000
0000F000
0001E000
0003C000
0003B000
003C7800
007CF800
0078F000
00306000
00000020
00001FE0
07001FC0
7F803F80
FF807F80
7F807F00
7FC0FE00
7FC1FE00
7FC1FC00
3FC3F800
3FC7F800
3FEFF000
1FEFE000
1FFFE000
1FFFC000
0FFF8000
0FFF0000
0FFF0000
0FFE0000
07FC0000
07FC0000
07F80000
03F80000
03F80000
03F80000
07F00000
07F00000
07F00000
07F00000
07F00000
07C00000
ENDCHAR
STARTCHAR 03B1
ENCODING 945
SWIDTH 630 0
DWIDTH 28 0
BBX 26 31 1 -1
BITMAP
00001C00
00003E00
00007E00
0000FE00
0000FE00
0001FE00
0001FE00
0003FE00
0003FE00
0007FE00
000FFE00
000FFE00
001FFE00
003FFF00
003FFF00
007FFF00
007DFF00
00F8FF00
01F0FF00
01E0FF00
03EFFF00
07FFFF00
07FFFF80
0FFFFF80
1FE1FF80
1FC1FF80
3F81FFC0
7F81FFC0
7F01FFC0
FF01FFC0
FC008000
ENDCHAR
STARTCHAR 03B2
ENCODING 946
SWIDTH 517 0
DWIDTH 23 0
BBX 20 31 4 0
BITMAP
00C000
07FF00
1FFFC0
1FFFE0
3FFFE0
3FFFE0
3FFFF0
3FCFF0
3FC7F0
3F83E0
3F83E0
3F87C0
3FCFC0
3FFF80
3FFE00
3FFF80
3FFFE0
3FFFE0
7FFFF0
7FC7F0
7F87F0
7F87F0
7F8FF0
7F9FF0
7FBFE0
7FFFE0
7FFFC0
7FFF00
FFFE00
FFF800
3C0000
ENDCHAR
STARTCHAR 03B3
ENCODING 947
SWIDTH 495 0
DWIDTH 22 0
BBX 25 31 2 0
BITMAP
0007FF80
01FFFF80
07FFFF80
07FFFF80
0FFFFF80
0FFFFF80
0FFFF780
0FF80000
0FF00000
1FF00000
1FE00000
1FE00000
1FE00000
1FC00000
3FC00000
3FC00000
3FC00000
3F800000
7F800000
7F800000
7F800000
7F800000
7F000000
FF000000
FF000000
FF000000
FF000000
FF000000
FF000000
FF000000
F8000000
ENDCHAR
STARTCHAR 03B4
ENCODING 948
SWIDTH 585 0
DWIDTH 26 0
BBX 25 30 1 0
BITMAP
00003C00
0000FF00
0000FF00
0001FF00
0003FF00
0007FF00
000FFF00
000FFF00
001FFF00
003FFF00
003FFF00
007FFF00
00FFFF00
00FF7F00
01FE7F00
03FE7F00
03FC7F80
07FC7F80
07F87F80
0FF8FF80
1FF0FF80
1FF0FF80
3FE0FF80
3FC0FF80
7FFFFF80
7FFFFF80
FFFFFF80
FFFFFF80
FFFFFF80
FFFFFF00
ENDCHAR
STARTCHAR 03B5
ENCODING 949
SWIDTH 495 0
DWIDTH 22 0
BBX 17 31 6 0
BITMAP
07FE00
3FFF80
7FFF80
7FFF00
7FFF00
7FFE00
7FFE00
7FFE00
7FFE00
7FC000
7F0000
7F0000
7F0800
7FF800
7FF800
7FF800
7FF800
7F8000
7F0000
7F0300
7FFF00
7FFF00
FFFF00
FFFF00
FFFF00
FFFF00
FFFF00
FFFF00
FFF800
FF8000
F00000
ENDCHAR
STARTCHAR 03B6
ENCODING 950
SWIDTH 585 0
DWIDTH 26 0
BBX 24 31 5 0
BITMAP
0007C0
00FFFF
0FFFFE
1FFFFC
3FFFF8
3FFFF0
7FFFE0
7FFFE0
FE1FC0
003F80
003F80
007F00
007E00
00FE00
00FC00
01FC00
03F800
03F800
07F800
07F000
0FF000
0FE000
1FC000
1FFFFE
3FFFFC
7FFFFC
7FFFF8
7FFFF0
0FFFE0
03FFC0
003C00
ENDCHAR
STARTCHAR 03B7
ENCODING 951
SWIDTH 562 0
DWIDTH 25 0
BBX 29 29 1 1
BITMAP
000FC000
007FC3F8
00FF83F8
00FF87F8
00FF87F8
00FF87F0
00FF0FF0
01FF0FF0
01FF1FE0
01FF1FE0
03FF1FE0
03FFFFE0
03FFFFC0
07FFFFC0
07FFFFC0
07FFFF80
0FFFFFC0
0FFFFFC0
0FFFFF80
0FFFFF80
1FF8FF80
1FF0FF00
1FF1FF00
3FF1FF00
3FF1FE00
3FE3FE00
7FE1FE00
7FE3FC00
FFC3E000
ENDCHAR
STARTCHAR 03B8
ENCODING 952
SWIDTH 517 0
DWIDTH 23 0
BBX 23 31 4 0
BITMAP
001F00
00FFE0
01FFF0
07FFF8
0FFFFC
0FFFFC
1FFFFC
1FFFFE
3FFFFE
3FFFFE
3FFFFE
7FC7FE
7F83FE
FF81FE
FFFFFE
FFFFFE
FFFFFC
FFFFFC
FF03FC
FF07F8
FF8FF8
FFFFF0
FFFFF0
7FFFE0
7FFFE0
7FFFC0
7FFFC0
3FFF80
1FFF00
0FFE00
03FC00
ENDCHAR
STARTCHAR 03B9
ENCODING 953
SWIDTH 315 0
DWIDTH 14 0
BBX 19 30 1 0
BITMAP
003FC0
007FE0
007FE0
007FC0
00FFC0
00FF80
00FF80
01FF80
01FF00
01FF00
03FF00
03FF00
03FE00
03FE00
07FE00
07FE00
07FC00
0FFC00
0FFC00
0FFC00
0FFC00
1FF800
1FF800
1FF800
1FF000
3FF000
3FE000
7FE000
7FC000
F80000
ENDCHAR
STARTCHAR 03BA
ENCODING 954
SWIDTH 540 0
DWIDTH 24 0
BBX 29 31 1 0
BITMAP
00000080
03FFC180
01FFC3C0
03FFC7F8
03FF8FF0
03FF9FE0
03FFBFC0
07FFBF80
07FF7F00
07FFFE00
07FFFC00
0FFFFC00
0FFFF800
0FFFF000
1FFFE000
1FFFE000
1FFF8000
1FFFC000
3FFFE000
3FFFF000
3FFFF000
3FFFF800
7FFBF800
7FFBFC00
7FF9FC00
7FF1FE00
7FF1FE00
7FF0FE00
FFF0FE00
FFF07000
01C0C000
ENDCHAR
STARTCHAR 03BB
ENCODING 955
SWIDTH 585 0
DWIDTH 26 0
BBX 25 29 1 1
BITMAP
00070000
001F8000
001F8000
003FC000
003FC000
003FE000
007FE000
007FF000
00FFF000
00FFF000
00FFF800
01FFF800
01FFFC00
03FFFC00
03FFFC00
07FBFE00
07FBFE00
0FF3FE00
0FF3FF00
0FF3FF00
1FE3FF00
1FE3FF00
3FE3FF80
3FE3FF80
7FC3FF80
7FC3FF80
7FC3FF80
FF803F80
FF000380
ENDCHAR
STARTCHAR 03BC
ENCODING 956
SWIDTH 652 0
DWIDTH 29 0
BBX 30 30 1 0
BITMAP
00380018
0038003C
0038007C
007C00FC
007C00F8
00FE01F8
00FE03F8
00FF07F8
01FF07F8
01FF0FF8
01FF9FF8
03FFBFF8
03FFFFF8
03FFFFF8
07FFFFF8
07FFFFF8
07FFFFF0
0FFDFFF0
0FF8DFF0
1FF89FF0
1FF01FF0
1FE03FF0
3FE03FF0
3FC03FF0
3FC07FF0
7F807FF0
7F807FF0
FF007FF0
FF00FFE0
FE000000
ENDCHAR
STARTCHAR 03BD
ENCODING 957
SWIDTH 562 0
DWIDTH 25 0
BBX 29 30 1 0
BITMAP
00180060
007F83F8
00FFC7F8
00FF8FF8
00FF8FF8
01FF8FF0
01FF8FF0
03FF9FF0
03FF9FE0
03FF9FE0
07FF9FE0
07FF9FC0
07FFBFC0
0FFFBFC0
0FFFBF80
0FFFBF80
0FFFFF80
1FFFFF80
1FFFFF00
1FF7FF00
3FE7FF00
3FE7FF00
3FE7FE00
3FC7FE00
7FC7FE00
7FC7FC00
7FC7FC00
FF87FC00
FF87F800
F0000000
ENDCHAR
STARTCHAR 03BE
ENCODING 958
SWIDTH 472 0
DWIDTH 21 0
BBX 26 30 1 0
BITMAP
03FFE800
03FFFFC0
03FFFF80
07FFFF80
07FFFF80
07FFFF80
07FFFF80
00001E00
00000000
00000000
00000000
03FFF800
03FFF800
03FFF800
07FFF800
07FFF000
07FFF000
03C00000
00000000
00000000
00000000
00000000
7FFC0000
7FFFF800
7FFFF800
7FFFF800
7FFFF000
FFFFF000
FFFFF000
000F0000
ENDCHAR
STARTCHAR 03BF
ENCODING 959
SWIDTH 517 0
DWIDTH 23 0
BBX 22 31 4 0
BITMAP
003C00
007E00
00FF80
01FFC0
03FFE0
07FFF0
07FFF0
0FFFF8
1FFFF8
1FFFFC
3FFFFC
3FFFFC
7FC3FC
7F83FC
FF83FC
FF03FC
FF03FC
FF07FC
FF8FFC
FFDFF8
FFFFF8
FFFFF8
FFFFF0
FFFFF0
FFFFE0
FFFFE0
FFFFC0
7FFFC0
3FFF80
1FFE00
07F800
ENDCHAR
STARTCHAR 03C0
ENCODING 960
SWIDTH 540 0
DWIDTH 24 0
BBX 28 30 2 0
BITMAP
07FFFFF0
07FFFFE0
07FFFFE0
0FFFFFE0
0FFFFFE0
0FFFFFE0
0FFFFFC0
0FE79FC0
1FE03FC0
1FE03FC0
1FE03FC0
1FE03F80
1FE07F80
1FC07F80
1FC07F80
3FC07F00
3FC07F00
3FC0FF00
3FC0FF00
3FC0FF00
3FC0FE00
7F81FE00
7F81FE00
7F81FE00
7F81FE00
7F81FC00
7F01FC00
7F01FC00
FF01FC00
40000000
ENDCHAR
STARTCHAR 03C1
ENCODING 961
SWIDTH 495 0
DWIDTH 22 0
BBX 24 31 1 0
BITMAP
000080
007FF0
01FFFC
01FFFE
01FFFF
01FFFF
03FFFF
03FCFF
03FC3F
03FC1F
07FC3F
07FC3F
07FC7F
0FFC7F
0FFFFF
0FFFFE
0FFFFC
1FFFF8
1FFFE0
1FF800
3FF800
3FF800
3FF800
7FF000
7FF000
7FF000
7FF000
FFF000
FFF000
FFF000
FFF000
ENDCHAR
STARTCHAR 03C2
ENCODING 962
SWIDTH 495 0
DWIDTH 22 0
BBX 24 36 3 -6
BITMAP
0003E0
001FFC
007FFE
01FFFF
03FFFF
07FFFF
0FFFFE
1FFFFE
1FFFFE
3FE000
3FC000
3F8000
7F0000
7F0000
7F0000
7F0000
7F0000
FF0000
FF8000
FFE000
7FFC00
7FFFC0
7FFFE0
3FFFE0
3FFFE0
1FFFE0
0FFFE0
007FE0
003FC0
003FC0
00FF80
03FF80
03FF00
03FE00
07FC00
07F000
ENDCHAR
STARTCHAR 03C3
ENCODING 963
SWIDTH 472 0
DWIDTH 21 0
BBX 26 30 1 0
BITMAP
03FFFFC0
03FFFFC0
03FFFF80
03FFFF80
07FFFF80
07FFFF80
07FFEF00
07FC0000
03FE0000
01FF0000
00FF8000
007FC000
003FE000
001FF000
000FF000
000FF000
001FE000
003FC000
00FF0000
01FE0000
07FC0000
0FF00000
1FE00000
3FFFF800
7FFFF800
7FFFF800
7FFFF000
7FFFF000
FFFFF000
01FFF000
ENDCHAR
STARTCHAR 03C4
ENCODING 964
SWIDTH 562 0
DWIDTH 25 0
BBX 25 30 5 0
BITMAP
07FFFE00
3FFFFF80
3FFFFF80
3FFFFF80
3FFFFF80
7FFFFF80
7FFFFF80
7FFFFF80
FFFFF000
FE7F8000
C07F0000
007F0000
007E0000
00FE0000
00FE0000
00FE0000
00FC0000
01FC0000
01FC0000
01FC0000
01F80000
01F80000
03F80000
03F80000
03F80000
03F00000
07F00000
07F00000
07F00000
07E00000
ENDCHAR
STARTCHAR 03C5
ENCODING 965
SWIDTH 607 0
DWIDTH 27 0
BBX 27 31 6 0
BITMAP
00000020
00001FE0
07001FC0
7F803F80
FF807F80
7F807F00
7FC0FE00
7FC1FE00
7FC1FC00
3FC3F800
3FC7F800
3FEFF000
1FEFE000
1FFFE000
1FFFC000
0FFF8000
0FFF0000
0FFF0000
0FFE0000
07FC0000
07FC0000
07F80000
03F80000
03F80000
03F80000
07F00000
07F00000
07F00000
07F00000
07F00000
07C00000
ENDCHAR
STARTCHAR 03C6
ENCODING 966
SWIDTH 652 0
DWIDTH 29 0
BBX 30 35 3 -2
BITMAP
0001FE00
0003FE00
0003FE00
0003FE00
007FFEF0
01FFFFF8
03FFFFFC
07FFFFFC
0FFFFFFC
0FFFFFFC
1FFFFFFC
1FFFFFFC
3FFFF7FC
3FCFF7FC
3FCFF7FC
7F8FE7F8
7F9FE7F8
7F9FE7F8
7F9FC7F8
7FBFCFF0
FFBFCFF0
FFBF8FE0
FFBFBFE0
FFFFFFC0
FFFFFFC0
FFFFFF80
FFFFFF00
FFFFFE00
7FFFFC00
7FFFF800
01FDF000
01FC0000
03F80000
03F80000
03F80000
ENDCHAR
STARTCHAR 03C7
ENCODING 967
SWIDTH 562 0
DWIDTH 25 0
BBX 28 29 3 1
BITMAP
000007F0
07F00FF0
0FF00FF0
1FF01FE0
1FF83FC0
1FF87FC0
1FF87F80
1FF8FF00
0FFCFF00
0FFDFE00
07FFFC00
03FFFC00
03FFF800
01FFF000
01FFF000
01FFE000
00FFE000
01FFE000
03FFE000
07FFE000
07FFE000
0FFFE000
1FEFE000
3FE7F000
3FC7F000
7FC7F000
7F83F000
FF81C000
FF000000
ENDCHAR
STARTCHAR 03C8
ENCODING 968
SWIDTH 720 0
DWIDTH 32 0
BBX 32 30 5 0
BITMAP
3F00003F
3F83F07F
3F83F07F
7F07F07F
7F07F0FF
7F07F0FF
7F07F0FE
7F07E1FE
FE0FE1FE
FE0FE1FC
FE0FE1FC
FE1FE3FC
FC1FC3F8
FE1FC7F8
FF1FCFF0
FFFFFFF0
FFFFFFE0
7FFFFFC0
7FFFFFC0
3FFFFF80
3FFFFF00
0FFFFC00
03FFF000
007F0000
007F0000
00FF0000
00FF0000
00FE0000
01FE0000
01FE0000
ENDCHAR
STARTCHAR 03C9
ENCODING 969
SWIDTH 607 0
DWIDTH 27 0
BBX 29 31 1 0
BITMAP
0007FE00
001FFF80
007FFFC0
00FFFFE0
00FFFFE0
01FFFFF0
03FFFFF0
03FFFFF8
07FFFFF8
07FC0FF8
07F807F8
0FF007F8
0FE003F8
0FE003F8
0FE003F8
0FC003F8
0FC003F0
0FC003F0
0FC007E0
0FC007E0
0FE00FC0
0FE01FC0
07E01F80
07F07F00
7FF07FE0
7FF0FFE0
7FF0FFE0
7FF0FFC0
FFF1FFC0
FFE1FFC0
FFE1FFC0
ENDCHAR
STARTCHAR 03CA
ENCODING 970
SWIDTH 315 0
DWIDTH 14 0
BBX 22 36 1 0
BITMAP
001C38
003C7C
007C7C
007C78
003830
000000
003FC0
007FE0
007FE0
007FC0
00FFC0
00FF80
00FF80
01FF80
01FF00
01FF00
03FF00
03FF00
03FE00
03FE00
07FE00
07FE00
07FC00
0FFC00
0FFC00
0FFC00
0FFC00
1FF800
1FF800
1FF800
1FF000
3FF000
3FE000
7FE000
7FC000
F80000
ENDCHAR
STARTCHAR 03CB
ENCODING 971
SWIDTH 607 0
DWIDTH 27 0
BBX 27 36 6 0
BITMAP
00387800
007C7800
007CF800
0078F000
00302000
00000020
00001FE0
07001FC0
7F803F80
FF807F80
7F807F00
7FC0FE00
7FC1FE00
7FC1FC00
3FC3F800
3FC7F800
3FEFF000
1FEFE000
1FFFE000
1FFFC000
0FFF8000
0FFF0000
0FFF0000
0FFE0000
07FC0000
07FC0000
07F80000
03F80000
03F80000
03F80000
07F00000
07F00000
07F00000
07F00000
07F00000
07C00000
ENDCHAR
STARTCHAR 03CC
ENCODING 972
SWIDTH 540 0
DWIDTH 24 0
BBX 23 32 4 0
BITMAP
078000
0F9C00
0F7F00
1EFF80
3CFFE0
39FFF0
3BFFF8
07FFF8
07FFFC
0FFFFC
0FFFFC
1FFFFE
3FFFFE
3FE1FE
7FC1FE
7F81FE
7F81FE
7F83FE
FF83FE
FF87FE
FFEFFC
FFFFFC
FFFFF8
FFFFF8
FFFFF0
7FFFF0
7FFFF0
7FFFE0
3FFFC0
3FFF80
0FFF00
03FC00
ENDCHAR
STARTCHAR 03CD
ENCODING 973
SWIDTH 675 0
DWIDTH 30 0
BBX 30 32 6 0
BITMAP
1E000000
3E000000
3C2001FC
78F003F8
F7F003F8
EFF007F0
EFF80FF0
0FF80FE0
07F81FC0
07F83F80
07FC7F80
03FC7F00
03FCFE00
03FDFE00
03FFFC00
01FFF800
01FFF800
01FFF000
00FFE000
00FFE000
00FFC000
007F8000
007F0000
007F0000
007F0000
007F0000
007F0000
007F0000
00FF0000
00FF0000
00FF0000
00F80000
ENDCHAR
STARTCHAR 03CE
ENCODING 974
SWIDTH 630 0
DWIDTH 28 0
BBX 30 32 2 0
BITMAP
01E00000
03E7FE00
03DFFF80
07BFFFE0
0F7FFFE0
0EFFFFF0
0FFFFFF8
01FFFFF8
03FFFFF8
03FFFFF8
07FE0FFC
07F807F8
07F803F8
0FF003F8
0FE003F8
0FE003F8
0FE003F8
0FE003F8
0FC003F0
0FE003F0
0FE007E0
0FE00FE0
07E00FC0
07F01F80
07F03F00
3FF07FE0
7FF0FFE0
7FF0FFE0
7FF0FFE0
7FF0FFE0
FFF0FFC0
FFE1FFC0
ENDCHAR
STARTCHAR 03D2
ENCODING 978
SWIDTH 630 0
DWIDTH 28 0
BBX 27 30 6 0
BITMAP
38000780
7F001FE0
7F803FE0
7FC07FE0
7FC07FE0
7FC0FFE0
FFE1FFE0
0FE3FFC0
07E3FFC0
07E7FF80
07E7C000
07EFC000
07EF8000
07FF0000
07FF0000
07FE0000
07FC0000
07FC0000
07FC0000
07F80000
07F80000
07F00000
07F00000
07F00000
0FF00000
0FF00000
0FF00000
0FE00000
0FE00000
0FE00000
ENDCHAR
STARTCHAR 03D3
ENCODING 979
SWIDTH 720 0
DWIDTH 32 0
BBX 31 32 6 0
BITMAP
1E000000
3E000000
3DC00078
7BF800FC
F3FC01FE
E3FC03FE
63FE07FE
03FE0FFE
07FE1FFE
007F1FFC
007F3FFC
003F3FF8
003F7E00
003F7C00
003FF800
003EF800
003FF000
003FE000
003FE000
003FC000
003FC000
003FC000
003F8000
007F8000
007F8000
007F0000
007F0000
007F0000
007F0000
00FF0000
00FF0000
00FE0000
ENDCHAR
STARTCHAR 03D4
ENCODING 980
SWIDTH 630 0
DWIDTH 28 0
BBX 27 36 6 0
BITMAP
00387800
007C7800
007CF800
0078F000
00302000
00000000
38000780
7F001FE0
7F803FE0
7FC07FE0
7FC07FE0
7FC0FFE0
FFE1FFE0
0FE3FFC0
07E3FFC0
07E7FF80
07E7C000
07EFC000
07EF8000
07FF0000
07FF0000
07FE0000
07FC0000
07FC0000
07FC0000
07F80000
07F80000
07F00000
07F00000
07F00000
0FF00000
0FF00000
0FF00000
0FE00000
0FE00000
0FE00000
ENDCHAR
STARTCHAR 03D5
ENCODING 981
SWIDTH 652 0
DWIDTH 29 0
BBX 30 35 3 -2
BITMAP
0001FE00
0003FE00
0003FE00
0003FE00
007FFEF0
01FFFFF8
03FFFFFC
07FFFFFC
0FFFFFFC
0FFFFFFC
1FFFFFFC
1FFFFFFC
3FFFF7FC
3FCFF7FC
3FCFF7FC
7F8FE7F8
7F9FE7F8
7F9FE7F8
7F9FC7F8
7FBFCFF0
FFBFCFF0
FFBF8FE0
FFBFBFE0
FFFFFFC0
FFFFFFC0
FFFFFF80
FFFFFF00
FFFFFE00
7FFFFC00
7FFFF800
01FDF000
01FC0000
03F80000
03F80000
03F80000
ENDCHAR
STARTCHAR 03D8
ENCODING 984
SWIDTH 517 0
DWIDTH 23 0
BBX 24 37 3 -6
BITMAP
0003F8
000FFC
003FFE
00FFFE
01FFFE
03FFFE
03FFFF
07FFFF
0FFFFF
0FFFFF
1FF7FF
1FE1FF
3FC0FF
3FC0FF
7F80FF
7F80FF
7F80FE
7F81FE
FF81FE
FFC3FC
FFFFFC
FFFFF8
FFFFF8
FFFFF0
FFFFF0
FFFFE0
7FFFC0
7FFF80
3FFF00
1FFC00
07F000
07F000
07F000
07F000
07E000
07E000
078000
ENDCHAR
STARTCHAR 03D9
ENCODING 985
SWIDTH 517 0
DWIDTH 23 0
BBX 24 37 3 -6
BITMAP
0003F8
000FFC
003FFE
00FFFE
01FFFE
03FFFE
03FFFF
07FFFF
0FFFFF
0FFFFF
1FF7FF
1FE1FF
3FC0FF
3FC0FF
7F80FF
7F80FF
7F80FE
7F81FE
FF81FE
FFC3FC
FFFFFC
FFFFF8
FFFFF8
FFFFF0
FFFFF0
FFFFE0
7FFFC0
7FFF80
3FFF00
1FFC00
07F000
07F000
07F000
07F000
07E000
07E000
078000
ENDCHAR
STARTCHAR 03DA
ENCODING 986
SWIDTH 495 0
DWIDTH 22 0
BBX 25 37 3 -6
BITMAP
0003FF00
001FFF80
007FFF80
01FFFF00
03FFFF00
07FFFF00
07FFFE00
0FFFFE00
1FFF8000
1FF00000
3FC00000
3FC00000
3F800000
7F000000
7F000000
7F000000
7F000000
7F000000
FF000000
FF000000
FF800000
FFE00000
FFFC0000
7FFF8000
7FFFE000
3FFFE000
3FFFE000
1FFFE000
07FFE000
003FC000
003FC000
00FF8000
03FF8000
03FF0000
03FE0000
07FC0000
07E00000
ENDCHAR
STARTCHAR 03DB
ENCODING 987
SWIDTH 495 0
DWIDTH 22 0
BBX 25 37 3 -6
BITMAP
0003FF00
001FFF80
007FFF80
01FFFF00
03FFFF00
07FFFF00
07FFFE00
0FFFFE00
1FFF8000
1FF00000
3FC00000
3FC00000
3F800000
7F000000
7F000000
7F000000
7F000000
7F000000
FF000000
FF000000
FF800000
FFE00000
FFFC0000
7FFF8000
7FFFE000
3FFFE000
3FFFE000
1FFFE000
07FFE000
003FC000
003FC000
00FF8000
03FF8000
03FF0000
03FE0000
07FC0000
07E00000
ENDCHAR
STARTCHAR 03F2
ENCODING 1010
SWIDTH 472 0
DWIDTH 21 0
BBX 24 30 3 0
BITMAP
0007F0
003FFC
00FFFE
01FFFF
07FFFF
07FFFE
0FFFFE
1FFFFC
1FFF10
3FF800
3FF000
3FE000
3FC000
7FC000
7FC000
7FC000
7FE030
FFFFF0
FFFFF0
FFFFF0
7FFFF0
7FFFE0
7FFFE0
7FFFE0
7FFFE0
3FFFC0
3FFF80
3FFF00
07FC00
002000
ENDCHAR
STARTCHAR 03F3
ENCODING 1011
SWIDTH 450 0
DWIDTH 20 0
BBX 23 30 2 0
BITMAP
0003FE
0007FE
0007FE
0007FE
000FFE
000FFE
001FFC
001FFC
001FFC
003FFC
003FFC
003FFC
003FF8
003FF8
003FF8
003FF8
003FF8
003FF0
003FF0
003FF0
3E3FE0
7F3FE0
FF3FC0
FFBF80
FFFF80
FFFF00
7FFE00
7FFC00
1FF800
07E000
ENDCHAR
STARTCHAR 03F4
ENCODING 1012
SWIDTH 517 0
DWIDTH 23 0
BBX 23 31 4 0
BITMAP
007F00
01FFC0
03FFE0
07FFF0
07FFF8
0FFFF8
0FFFFC
1FFFFC
1FFFFC
3FFFFC
3FF7FC
7F83FC
7F81FE
7F7FFE
FFFFFE
FFFFFC
FFFFFC
FF83FC
FF07FC
FF8FF8
FFFFF8
FFFFF8
FFFFF0
FFFFF0
FFFFE0
FFFFE0
7FFFC0
7FFF80
3FFF00
1FFE00
03F800
ENDCHAR
STARTCHAR 03F7
ENCODING 1015
SWIDTH 495 0
DWIDTH 22 0
BBX 22 31 2 0
BITMAP
03E000
07F800
07F800
07F800
0FF400
0FFFC0
0FFFF0
0FFFF8
0FFFF8
0FFFFC
0FFFFC
1FE1FC
1FE0FC
1FE07C
1FE0FC
1FE0FC
1FC0FC
1FC1FC
3FC3FC
3FC7FC
3FFFFC
3FFFF8
3FFFF0
7FFFE0
7FFF80
7FC000
7FC000
7FC000
7F8000
FF8000
7F8000
ENDCHAR
STARTCHAR 03F8
ENCODING 1016
SWIDTH 495 0
DWIDTH 22 0
BBX 22 31 2 0
BITMAP
03E000
07F800
07F800
07F800
0FF400
0FFFC0
0FFFF0
0FFFF8
0FFFF8
0FFFFC
0FFFFC
1FE1FC
1FE0FC
1FE07C
1FE0FC
1FE0FC
1FC0FC
1FC1FC
3FC3FC
3FC7FC
3FFFFC
3FFFF8
3FFFF0
7FFFE0
7FFF80
7FC000
7FC000
7FC000
7F8000
FF8000
7F8000
ENDCHAR
STARTCHAR 03F9
ENCODING 1017
SWIDTH 472 0
DWIDTH 21 0
BBX 24 30 3 0
BITMAP
0007F0
003FFC
00FFFE
01FFFF
07FFFF
07FFFE
0FFFFE
1FFFFC
1FFF10
3FF800
3FF000
3FE000
3FC000
7FC000
7FC000
7FC000
7FE030
FFFFF0
FFFFF0
FFFFF0
7FFFF0
7FFFE0
7FFFE0
7FFFE0
7FFFE0
3FFFC0
3FFF80
3FFF00
07FC00
002000
ENDCHAR
STARTCHAR 03FA
ENCODING 1018
SWIDTH 607 0
DWIDTH 27 0
BBX 28 30 1 0
BITMAP
00C000F0
00E001F0
01F007F0
01FC0FF0
03FE3FF0
03FFFFF0
03FFFFF0
07FFFFF0
07FFFFF0
07FFFFF0
0FFFFFE0
0FFBBFE0
0FFB1FE0
0FF01FE0
1FF01FE0
1FF01FE0
1FF01FE0
1FF01FE0
3FE01FE0
3FE01FE0
3FE01FE0
3FE01FE0
7FE01FE0
7FE01FE0
7FE01FE0
7FC01FC0
FFC01FC0
FFC01FC0
FFC01FC0
10000000
ENDCHAR
STARTCHAR 03FB
ENCODING 1019
SWIDTH 607 0
DWIDTH 27 0
BBX 28 30 1 0
BITMAP
00C000F0
00E001F0
01F007F0
01FC0FF0
03FE3FF0
03FFFFF0
03FFFFF0
07FFFFF0
07FFFFF0
07FFFFF0
0FFFFFE0
0FFBBFE0
0FFB1FE0
0FF01FE0
1FF01FE0
1FF01FE0
1FF01FE0
1FF01FE0
3FE01FE0
3FE01FE0
3FE01FE0
3FE01FE0
7FE01FE0
7FE01FE0
7FE01FE0
7FC01FC0
FFC01FC0
FFC01FC0
FFC01FC0
10000000
ENDCHAR
STARTCHAR 03FD
ENCODING 1021
SWIDTH 472 0
DWIDTH 21 0
BBX 23 30 2 0
BITMAP
007F00
01FFE0
03FFF8
0FFFF8
0FFFFC
0FFFFE
0FFFFE
0FFFFE
023FFE
0007FE
0007FE
0003FE
0003FE
0003FE
0003FC
0007FC
380FFC
3FFFFC
3FFFF8
7FFFF8
7FFFF0
7FFFF0
7FFFE0
7FFFE0
FFFFC0
7FFF80
3FFF80
3FFF00
0FF800
020000
ENDCHAR
STARTCHAR 0400
ENCODING 1024
SWIDTH 495 0
DWIDTH 22 0
BBX 17 39 6 0
BITMAP
038000
1F8000
1FC000
0FC000
07E000
03E000
03E000
000000
07FE00
3FFF80
7FFF80
7FFF00
7FFF00
7FFE00
7FFE00
7FFE00
7FFE00
7FC000
7F0000
7F0000
7F0800
7FF800
7FF800
7FF800
7FF800
7F8000
7F0000
7F0300
7FFF00
7FFF00
FFFF00
FFFF00
FFFF00
FFFF00
FFFF00
FFFF00
FFF800
FF8000
F00000
ENDCHAR
STARTCHAR 0401
ENCODING 1025
SWIDTH 495 0
DWIDTH 22 0
BBX 17 37 6 0
BITMAP
001C00
0E3E00
1E3E00
3E3C00
3E1800
1C0000
07FE00
3FFF80
7FFF80
7FFF00
7FFF00
7FFE00
7FFE00
7FFE00
7FFE00
7FC000
7F0000
7F0000
7F0800
7FF800
7FF800
7FF800
7FF800
7F8000
7F0000
7F0300
7FFF00
7FFF00
FFFF00
FFFF00
FFFF00
FFFF00
FFFF00
FFFF00
FFF800
FF8000
F00000
ENDCHAR
STARTCHAR 0402
ENCODING 1026
SWIDTH 675 0
DWIDTH 30 0
BBX 26 36 6 -5
BITMAP
01851800
3FFFFF80
7FFFFF80
7FFFFF80
FFFFFF00
FFFFFF00
FFFFFF00
41FF0000
00FF0000
00FF0000
00FE7800
01FFFE00
01FFFF00
01FFFF80
01FFFF80
01FFFFC0
01FFFFC0
03FC3FC0
03FC3FC0
03F83FC0
03F83FC0
03F81F80
07F03F80
07F03F80
07F03F80
07F03F00
07E03F00
0FE03F00
0FE03F00
0FE07F00
03E1FE00
0007FE00
0007FC00
0007FC00
0007F800
0007E000
ENDCHAR
STARTCHAR 0403
ENCODING 1027
SWIDTH 495 0
DWIDTH 22 0
BBX 25 38 2 0
BITMAP
00007E00
0000FC00
0001F800
0001F000
0003E000
0007C000
00008000
0007FF80
01FFFF80
07FFFF80
07FFFF80
0FFFFF80
0FFFFF80
0FFFF780
0FF80000
0FF00000
1FF00000
1FE00000
1FE00000
1FE00000
1FC00000
3FC00000
3FC00000
3FC00000
3F800000
7F800000
7F800000
7F800000
7F800000
7F000000
FF000000
FF000000
FF000000
FF000000
FF000000
FF000000
FF000000
F8000000
ENDCHAR
STARTCHAR 0404
ENCODING 1028
SWIDTH 495 0
DWIDTH 22 0
BBX 23 30 3 1
BITMAP
001FF0
007FFC
00FFFE
01FFFE
03FFFE
07FFFE
0FFFFE
0FFFFE
1FFFFC
1FFFFC
3FE07C
3FC008
7F8E00
7FFFC0
7FFFC0
7FFFC0
7FFF80
FFFF80
FF0F00
FF0000
FFC070
FFFFF0
FFFFF0
7FFFF0
7FFFF0
3FFFF0
3FFFE0
0FFF80
03FF00
006000
ENDCHAR
STARTCHAR 0405
ENCODING 1029
SWIDTH 495 0
DWIDTH 22 0
BBX 26 31 2 0
BITMAP
0001F000
001FFFC0
007FFF80
00FFFF80
00FFFF00
01FFFE00
03FFFE00
03FFFC00
07FFF800
07FFF800
0FFFF000
0FFFF000
0FF02000
0FF80000
07FE0000
07FF8000
07FFE000
03FFF000
007FF000
000FF000
0007F000
0007F800
700FF800
7FFFF000
FFFFF000
FFFFF000
FFFFE000
FFFFC000
7FFF0000
3FFE0000
1FF80000
ENDCHAR
STARTCHAR 0406
ENCODING 1030
SWIDTH 315 0
DWIDTH 14 0
BBX 19 30 1 0
BITMAP
003FC0
007FE0
007FE0
007FC0
00FFC0
00FF80
00FF80
01FF80
01FF00
01FF00
03FF00
03FF00
03FE00
03FE00
07FE00
07FE00
07FC00
0FFC00
0FFC00
0FFC00
0FFC00
1FF800
1FF800
1FF800
1FF000
3FF000
3FE000
7FE000
7FC000
F80000
ENDCHAR
STARTCHAR 0407
ENCODING 1031
SWIDTH 315 0
DWIDTH 14 0
BBX 22 36 1 0
BITMAP
001C38
003C7C
007C7C
007C78
003830
000000
003FC0
007FE0
007FE0
007FC0
00FFC0
00FF80
00FF80
01FF80
01FF00
01FF00
03FF00
03FF00
03FE00
03FE00
07FE00
07FE00
07FC00
0FFC00
0FFC00
0FFC00
0FFC00
1FF800
1FF800
1FF800
1FF000
3FF000
3FE000
7FE000
7FC000
F80000
ENDCHAR
STARTCHAR 0408
ENCODING 1032
SWIDTH 450 0
DWIDTH 20 0
BBX 23 30 2 0
BITMAP
0003FE
0007FE
0007FE
0007FE
000FFE
000FFE
001FFC
001FFC
001FFC
003FFC
003FFC
003FFC
003FF8
003FF8
003FF8
003FF8
003FF8
003FF0
003FF0
003FF0
3E3FE0
7F3FE0
FF3FC0
FFBF80
FFFF80
FFFF00
7FFE00
7FFC00
1FF800
07E000
ENDCHAR
STARTCHAR 0409
ENCODING 1033
SWIDTH 720 0
DWIDTH 32 0
BBX 33 30 1 0
BITMAP
0001FFE000
0007FFE000
0007FFE000
000FFFE000
000FFFC000
001FFFC000
001FFFC000
001FFF8000
003FFF8000
003FFF8000
007FFFE000
00FFFFFC00
00FF7FFE00
01FE7FFF00
01FE7FFF00
03FCFFFF00
03FCFE3F80
07F8FC1F80
07F8FC1F80
0FF1FC1F80
0FF1FC1F00
1FE1FC3F00
3FE1FC3F00
3FE3F87F00
7FC3FDFE00
7FC3FFFE00
7FC3FFFC00
FF87FFF800
FF07FFF000
00003FE000
ENDCHAR
STARTCHAR 040A
ENCODING 1034
SWIDTH 720 0
DWIDTH 32 0
BBX 33 30 1 0
BITMAP
001F8FE000
00FF8FE000
00FF0FE000
00FF1FE000
00FF1FC000
00FF1FC000
01FE1FC000
01FE3F8000
01FE3F8000
03FE3F8000
03FC3FE000
03FFFFFC00
07FFFFFE00
07FFFFFF00
07FFFFFF00
07FFFFFF00
0FFFFE3F80
0FFFFC1F80
0FFFFC1F80
1FFFFC1F80
1FF1FC1F00
1FE1FC3F00
1FE1FC3F00
3FE3F87F00
3FE3FDFE00
3FC3FFFE00
7FC3FFFC00
7FC7FFF800
FF87FFF000
00003FE000
ENDCHAR
STARTCHAR 040B
ENCODING 1035
SWIDTH 675 0
DWIDTH 30 0
BBX 26 31 6 0
BITMAP
01851800
3FFFFF80
7FFFFF80
7FFFFF80
FFFFFF00
FFFFFF00
FFFFFF00
41FF0000
00FF0000
00FF0000
00FE7800
01FFFE00
01FFFF00
01FFFF80
01FFFF80
01FFFFC0
01FFFFC0
03FC3FC0
03FC3FC0
03F83FC0
03F83FC0
03F83F80
07F03F80
07F03F80
07F07F80
07F07F00
07E07F00
0FE07F00
0FE07F00
0FE07F00
03E0FE00
ENDCHAR
STARTCHAR 040C
ENCODING 1036
SWIDTH 540 0
DWIDTH 24 0
BBX 29 38 1 0
BITMAP
000003F8
000003F0
000007E0
00000FC0
00001F00
00001E00
00000000
00000080
03FFC180
01FFC3C0
03FFC7F8
03FF8FF0
03FF9FE0
03FFBFC0
07FFBF80
07FF7F00
07FFFE00
07FFFC00
0FFFFC00
0FFFF800
0FFFF000
1FFFE000
1FFFE000
1FFF8000
1FFFC000
3FFFE000
3FFFF000
3FFFF000
3FFFF800
7FFBF800
7FFBFC00
7FF9FC00
7FF1FE00
7FF1FE00
7FF0FE00
FFF0FE00
FFF07000
01C0C000
ENDCHAR
STARTCHAR 040D
ENCODING 1037
SWIDTH 562 0
DWIDTH 25 0
BBX 25 38 3 0
BITMAP
007E0000
007E0000
003F0000
001F0000
001F0000
000F0000
00000000
00000000
01C03E00
0FF0FF80
0FF0FF00
1FE1FF00
1FE0FF00
1FE1FF00
1FE1FF00
1FE1FF00
1FE3FF00
1FE3FF00
1FE7FF00
1FC7FF00
1FCFFF00
3FDFFE00
3FDFFE00
3FFFFE00
3FFFFE00
3FFDFE00
3FFDFE00
3FF9FE00
3FF3FC00
7FF3FC00
7FE3FC00
7FC3FC00
7FC3FC00
7FC3FC00
7FC3FC00
7F83FC00
FF03FC00
00003800
ENDCHAR
STARTCHAR 040E
ENCODING 1038
SWIDTH 495 0
DWIDTH 22 0
BBX 27 38 1 0
BITMAP
001E0F80
001E1F00
001FFF00
000FFE00
000FFC00
0007F000
00018000
00000000
03FE3FE0
03FC3FC0
03FC3FC0
03FC7F80
03FC7F80
01FE7F80
01FE7F00
01FEFF00
01FEFE00
00FFFE00
00FFFC00
00FFFC00
00FFFC00
007FF800
007FF800
007FF800
007FF000
003FF000
003FF000
003FE000
003FE000
3FFFE000
3FFFC000
3FFFC000
3FFFC000
7FFF8000
7FFF0000
7FFC0000
FFE00000
70000000
ENDCHAR
STARTCHAR 040F
ENCODING 1039
SWIDTH 517 0
DWIDTH 23 0
BBX 27 35 1 -6
BITMAP
03F80FE0
03F80FE0
03F80FE0
03F81FE0
07F81FC0
07F01FC0
07F01FC0
0FF03FC0
0FF03FC0
0FF03F80
0FE03F80
0FE03F80
1FE03F80
1FC07F80
1FC07F80
1FC07F00
3FC07F00
3F807F00
3F80FF00
3F80FF00
3F80FF00
7FFFFF00
7FFFFE00
7FFFFE00
7FFFFE00
FFFFFE00
FFFFFC00
FFFFFC00
00FC0000
01FC0000
01FC0000
01FC0000
01F80000
01F80000
01E00000
ENDCHAR
STARTCHAR 0410
ENCODING 1040
SWIDTH 630 0
DWIDTH 28 0
BBX 26 31 1 -1
BITMAP
00001C00
00003E00
00007E00
0000FE00
0000FE00
0001FE00
0001FE00
0003FE00
0003FE00
0007FE00
000FFE00
000FFE00
001FFE00
003FFF00
003FFF00
007FFF00
007DFF00
00F8FF00
01F0FF00
01E0FF00
03EFFF00
07FFFF00
07FFFF80
0FFFFF80
1FE1FF80
1FC1FF80
3F81FFC0
7F81FFC0
7F01FFC0
FF01FFC0
FC008000
ENDCHAR
STARTCHAR 0411
ENCODING 1041
SWIDTH 495 0
DWIDTH 22 0
BBX 24 30 3 0
BITMAP
07FFF8
07FFFF
07FFFF
07FFFE
0FFFFE
0FFFFE
0FFFFC
0FFFFC
0FF000
1FF000
1FF000
1FFF80
1FFFE0
1FFFF0
3FFFF8
3FFFFC
3FFFF8
3FC7F8
3FC3F8
7FC3F0
7F83F0
7F87E0
7F87E0
7FDFC0
FFFFC0
FFFF80
FFFF00
FFFE00
FFF800
078000
ENDCHAR
STARTCHAR 0412
ENCODING 1042
SWIDTH 517 0
DWIDTH 23 0
BBX 20 31 4 0
BITMAP
00C000
07FF00
1FFFC0
1FFFE0
3FFFE0
3FFFE0
3FFFF0
3FCFF0
3FC7F0
3F83E0
3F83E0
3F87C0
3FCFC0
3FFF80
3FFE00
3FFF80
3FFFE0
3FFFE0
7FFFF0
7FC7F0
7F87F0
7F87F0
7F8FF0
7F9FF0
7FBFE0
7FFFE0
7FFFC0
7FFF00
FFFE00
FFF800
3C0000
ENDCHAR
STARTCHAR 0413
ENCODING 1043
SWIDTH 495 0
DWIDTH 22 0
BBX 25 31 2 0
BITMAP
0007FF80
01FFFF80
07FFFF80
07FFFF80
0FFFFF80
0FFFFF80
0FFFF780
0FF80000
0FF00000
1FF00000
1FE00000
1FE00000
1FE00000
1FC00000
3FC00000
3FC00000
3FC00000
3F800000
7F800000
7F800000
7F800000
7F800000
7F000000
FF000000
FF000000
FF000000
FF000000
FF000000
FF000000
FF000000
F8000000
ENDCHAR
STARTCHAR 0414
ENCODING 1044
SWIDTH 585 0
DWIDTH 26 0
BBX 26 36 1 -6
BITMAP
00003C00
00007E00
0000FE00
0001FE00
0001FE00
0003FE00
0007FE00
0007FE00
000FFE00
001FFE00
001FFE00
003FFE00
003FFE00
007F7E00
00FF7E00
00FE7E00
01FE7E00
01FC7E00
03FCFF00
03F8FF00
07F8FF00
07F0FF00
0FF0FF00
0FE0FF00
7FFFFF80
7FFFFFC0
FFFFFFC0
FFFFFF80
FFFFFF80
FFFFFF80
FE003F00
FE003F00
FE007E00
FE00FE00
FE00FC00
FE01F800
ENDCHAR
STARTCHAR 0415
ENCODING 1045
SWIDTH 495 0
DWIDTH 22 0
BBX 17 31 6 0
BITMAP
07FE00
3FFF80
7FFF80
7FFF00
7FFF00
7FFE00
7FFE00
7FFE00
7FFE00
7FC000
7F0000
7F0000
7F0800
7FF800
7FF800
7FF800
7FF800
7F8000
7F0000
7F0300
7FFF00
7FFF00
FFFF00
FFFF00
FFFF00
FFFF00
FFFF00
FFFF00
FFF800
FF8000
F00000
ENDCHAR
STARTCHAR 0416
ENCODING 1046
SWIDTH 697 0
DWIDTH 31 0
BBX 33 30 2 1
BITMAP
0000000080
0000380780
07F8FC3F80
07F9FC3F80
07F9FC7F80
07F9FCFF00
07F9FCFF00
07F9FDFE00
07FDF9FE00
07FFFBFC00
03FFFFFC00
03FFFFF800
03FFFFF800
01FFFFF000
01FFFFE000
01FFFFE000
01FFFFE000
03FFFFE000
07FFFFF000
07FFFFF000
0FFFFFF800
1FFFFFFC00
3FE7F7FC00
3FE7E7FC00
7FEFE7FC00
7FCFE7FC00
FFCFE7F800
FF8FE7F000
FF0FE3C000
FE0FC00000
ENDCHAR
STARTCHAR 0417
ENCODING 1047
SWIDTH 472 0
DWIDTH 21 0
BBX 21 31 4 0
BITMAP
01FE00
0FFFC0
1FFFE0
1FFFF0
3FFFF0
3FFFF8
3FFFF8
3C0FF8
2007F0
0007F0
000FF0
000FE0
001FE0
01FFC0
0FFF80
0FFF80
0FFFC0
0FFFC0
003FE0
001FE0
001FE0
001FE0
407FE0
FFFFE0
FFFFC0
FFFFC0
FFFF80
FFFF00
FFFE00
FFF800
3FF000
ENDCHAR
STARTCHAR 0418
ENCODING 1048
SWIDTH 562 0
DWIDTH 25 0
BBX 25 30 3 0
BITMAP
01C03E00
0FF0FF80
0FF0FF00
1FE1FF00
1FE0FF00
1FE1FF00
1FE1FF00
1FE1FF00
1FE3FF00
1FE3FF00
1FE7FF00
1FC7FF00
1FCFFF00
3FDFFE00
3FDFFE00
3FFFFE00
3FFFFE00
3FFDFE00
3FFDFE00
3FF9FE00
3FF3FC00
7FF3FC00
7FE3FC00
7FC3FC00
7FC3FC00
7FC3FC00
7FC3FC00
7F83FC00
FF03FC00
00003800
ENDCHAR
STARTCHAR 0419
ENCODING 1049
SWIDTH 562 0
DWIDTH 25 0
BBX 25 38 3 0
BITMAP
00783E00
00787C00
007FFC00
003FF800
003FF000
001FC000
00060000
00000000
01C03E00
0FF0FF80
0FF0FF00
1FE1FF00
1FE0FF00
1FE1FF00
1FE1FF00
1FE1FF00
1FE3FF00
1FE3FF00
1FE7FF00
1FC7FF00
1FCFFF00
3FDFFE00
3FDFFE00
3FFFFE00
3FFFFE00
3FFDFE00
3FFDFE00
3FF9FE00
3FF3FC00
7FF3FC00
7FE3FC00
7FC3FC00
7FC3FC00
7FC3FC00
7FC3FC00
7F83FC00
FF03FC00
00003800
ENDCHAR
STARTCHAR 041A
ENCODING 1050
SWIDTH 540 0
DWIDTH 24 0
BBX 29 31 1 0
BITMAP
00000080
03FFC180
01FFC3C0
03FFC7F8
03FF8FF0
03FF9FE0
03FFBFC0
07FFBF80
07FF7F00
07FFFE00
07FFFC00
0FFFFC00
0FFFF800
0FFFF000
1FFFE000
1FFFE000
1FFF8000
1FFFC000
3FFFE000
3FFFF000
3FFFF000
3FFFF800
7FFBF800
7FFBFC00
7FF9FC00
7FF1FE00
7FF1FE00
7FF0FE00
FFF0FE00
FFF07000
01C0C000
ENDCHAR
ENDFONT
